<svg width="54" height="43" viewBox="0 0 54 43" fill="none" xmlns="http://www.w3.org/2000/svg">
<path d="M7.94 40.86C7.94 41.46 8.42 42 9.08 42H11.24C11.84 42 12.32 41.46 12.32 40.86V2.34C12.32 1.74 11.84 1.2 11.24 1.2H9.62L1.22 9.36C0.92 9.66 0.68 10.2 1.1 10.68L2.24 11.94C2.66 12.42 3.14 12.36 3.62 12L7.94 8.64V40.86ZM38.5545 42.6C47.8545 42.6 53.1345 34.74 53.1345 21.6C53.1345 8.46 47.8545 0.599997 38.5545 0.599997C29.2545 0.599997 23.9745 8.46 23.9745 21.6C23.9745 34.74 29.2545 42.6 38.5545 42.6ZM38.5545 38.7C31.9545 38.7 28.2345 32.58 28.2345 21.6C28.2345 10.74 31.9545 4.5 38.5545 4.5C45.1545 4.5 48.8745 10.74 48.8745 21.6C48.8745 32.58 45.1545 38.7 38.5545 38.7Z" fill="#3BB75E"/>
</svg>
