<svg width="34" height="41" viewBox="0 0 34 41" fill="none" xmlns="http://www.w3.org/2000/svg">
<path d="M7.94 39.86C7.94 40.46 8.42 41 9.08 41H11.24C11.84 41 12.32 40.46 12.32 39.86V1.34C12.32 0.74 11.84 0.2 11.24 0.2H9.62L1.22 8.36C0.92 8.66 0.68 9.2 1.1 9.68L2.24 10.94C2.66 11.42 3.14 11.36 3.62 11L7.94 7.64V39.86ZM28.7103 39.86C28.7103 40.46 29.1903 41 29.8503 41H32.0103C32.6103 41 33.0903 40.46 33.0903 39.86V1.34C33.0903 0.74 32.6103 0.2 32.0103 0.2H30.3903L21.9903 8.36C21.6903 8.66 21.4503 9.2 21.8703 9.68L23.0103 10.94C23.4303 11.42 23.9103 11.36 24.3903 11L28.7103 7.64V39.86Z" fill="#3BB75E"/>
</svg>
