<svg width="48" height="42" viewBox="0 0 48 42" fill="none" xmlns="http://www.w3.org/2000/svg">
<path d="M7.94 40.86C7.94 41.46 8.42 42 9.08 42H11.24C11.84 42 12.32 41.46 12.32 40.86V2.34C12.32 1.74 11.84 1.2 11.24 1.2H9.62L1.22 9.36C0.92 9.66 0.68 10.2 1.1 10.68L2.24 11.94C2.66 12.42 3.14 12.36 3.62 12L7.94 8.64V40.86ZM22.2903 40.86C22.2903 41.46 22.7703 42 23.4303 42H46.2303C46.8303 42 47.3703 41.46 47.3703 40.86V39.24C47.3703 38.64 46.8303 38.1 46.2303 38.1H28.5903C32.4303 34.02 36.2703 29.88 40.1103 25.8C44.2503 21.36 47.6103 17.46 47.6103 12.18C47.6103 6.06 43.2303 0.599997 34.6503 0.599997C27.5103 0.599997 23.2503 6.48 23.2503 6.48C22.8303 6.96 22.9503 7.62 23.3103 8.04L24.5103 9.18C24.9903 9.66 25.6503 9.66 26.1303 9.18C27.9903 7.2 30.9303 4.68 34.6503 4.68C40.8303 4.68 43.0503 8.88 43.0503 12.3C43.0503 15.12 41.0703 18.72 36.9903 23.16C32.0703 28.44 27.2103 33.78 22.2903 39.06V40.86Z" fill="#3BB75E"/>
</svg>
