<svg width="26" height="42" viewBox="0 0 26 42" fill="none" xmlns="http://www.w3.org/2000/svg">
<path d="M0.52 40.86C0.52 41.46 1 42 1.66 42H24.46C25.06 42 25.6 41.46 25.6 40.86V39.24C25.6 38.64 25.06 38.1 24.46 38.1H6.82C10.66 34.02 14.5 29.88 18.34 25.8C22.48 21.36 25.84 17.46 25.84 12.18C25.84 6.06 21.46 0.599997 12.88 0.599997C5.74 0.599997 1.48 6.48 1.48 6.48C1.06 6.96 1.18 7.62 1.54 8.04L2.74 9.18C3.22 9.66 3.88 9.66 4.36 9.18C6.22 7.2 9.16 4.68 12.88 4.68C19.06 4.68 21.28 8.88 21.28 12.3C21.28 15.12 19.3 18.72 15.22 23.16C10.3 28.44 5.44 33.78 0.52 39.06V40.86Z" fill="#3BB75E"/>
</svg>
