<svg width="27" height="43" viewBox="0 0 27 43" fill="none" xmlns="http://www.w3.org/2000/svg">
<path d="M0.82 37.26C2.14 38.76 5.5 42.6 12.88 42.6C21.16 42.6 26.2 37.5 26.2 30.96C26.2 25.8 21.82 22.44 19 21.24V21.06C21.7 19.8 25.18 16.2 25.18 11.58C25.18 4.86 20.08 0.599997 12.82 0.599997C6.28 0.599997 1.96 5.88 1.96 5.88C1.54 6.3 1.48 7.02 1.96 7.44L3.4 8.58C4 9.12 4.6 8.88 4.96 8.46C6.28 6.96 8.74 4.56 12.82 4.56C17.08 4.56 20.68 7.44 20.68 12.18C20.68 16.14 17.56 19.44 11.14 19.44H7.84C6.88 19.44 6.58 19.8 6.58 20.76V22.2C6.58 23.16 7.06 23.52 7.72 23.52H11.08C18.52 23.52 21.7 27.3 21.7 31.38C21.7 36.12 17.62 38.88 13.06 38.88C7.9 38.88 4.66 35.4 4.12 34.74C3.64 34.08 3.16 33.96 2.5 34.44L0.88 35.82C0.4 36.18 0.46 36.84 0.82 37.26Z" fill="#3BB75E"/>
</svg>
