<svg width="27" height="42" viewBox="0 0 27 42" fill="none" xmlns="http://www.w3.org/2000/svg">
<path d="M1.02 36.62C2.52 38.42 5.94 41.6 12.6 41.6C20.7 41.6 26.52 35.36 26.52 27.86C26.52 20 21.72 15.26 12.66 15.26H5.7V4.22H20.94C21.6 4.22 22.08 3.68 22.08 3.08V1.34C22.08 0.74 21.6 0.2 20.94 0.2H2.82C2.16 0.2 1.68 0.74 1.68 1.34V17.18C1.68 18.14 2.34 19.28 3.54 19.28H12.66C19.08 19.28 22.08 23.24 22.08 27.92C22.08 32.66 18.42 37.76 12.66 37.76C7.26 37.76 4.38 34.16 3.78 33.32C3.3 32.66 2.82 32.78 2.28 33.26C1.8 33.68 1.38 34.16 0.9 34.58C0.18 35.3 0.24 35.72 1.02 36.62Z" fill="#3BB75E"/>
</svg>
