<svg width="28" height="44" viewBox="0 0 28 44" fill="none" xmlns="http://www.w3.org/2000/svg">
<path d="M0.18 26.5C0.18 36.04 4.44 43.6 14.16 43.6C21.36 43.6 27.42 37.42 27.42 29.86C27.42 21.88 21.3 16.84 14.52 16.84C9.36 16.84 5.4 19.54 5.4 19.54C7.5 11.44 18.12 5.5 20.82 4.6C21.96 4.24 22.2 3.58 21.9 2.86L21.24 1.42C21 0.879999 20.52 0.579999 19.92 0.819999C13.86 3.22 0.18 10.54 0.18 26.5ZM14.16 39.64C5.94 39.64 3.6 30.64 4.62 24.64C4.62 24.64 8.52 20.74 14.1 20.74C19.14 20.74 23.16 24.88 23.16 30.1C23.16 35.26 19.2 39.64 14.16 39.64Z" fill="#3BB75E"/>
</svg>
