<svg width="28" height="43" viewBox="0 0 28 43" fill="none" xmlns="http://www.w3.org/2000/svg">
<path d="M0.72 31.02C0.72 37.56 5.82 42.6 14.1 42.6C22.62 42.6 27.72 37.56 27.72 31.02C27.72 25.86 23.28 22.2 20.46 21V20.82C23.16 19.56 26.64 16.2 26.64 11.58C26.64 4.98 21.42 0.599997 14.16 0.599997C7.02 0.599997 1.8 4.98 1.8 11.58C1.8 16.2 5.28 19.56 7.98 20.82V21C5.16 22.2 0.72 25.86 0.72 31.02ZM14.22 18.9C8.64 18.36 6.24 15.48 6.24 11.76C6.24 7.26 9.66 4.2 13.98 4.2C18.72 4.2 22.2 7.26 22.2 11.76C22.2 15.48 19.74 18.36 14.22 18.9ZM5.22 31.44C5.22 27.72 8.46 23.94 14.22 23.34C19.92 23.94 23.22 27.72 23.22 31.44C23.22 36.18 19.26 39 14.1 39C9.36 39 5.22 36.06 5.22 31.44Z" fill="#3BB75E"/>
</svg>
