<svg width="28" height="44" viewBox="0 0 28 44" fill="none" xmlns="http://www.w3.org/2000/svg">
<path d="M5.68 40.98L6.34 42.42C6.58 42.96 7.06 43.26 7.66 43.02C13.72 40.62 27.4 33.3 27.4 17.34C27.4 7.8 23.14 0.239998 13.42 0.239998C6.22 0.239998 0.16 6.42 0.16 13.98C0.16 21.96 6.28 27 13.06 27C18.22 27 22.18 24.3 22.18 24.3C20.08 32.4 9.46 38.34 6.76 39.24C5.62 39.6 5.38 40.26 5.68 40.98ZM13.48 23.1C8.44 23.1 4.42 18.96 4.42 13.74C4.42 8.58 8.38 4.2 13.42 4.2C21.64 4.2 23.98 13.2 22.96 19.2C22.96 19.2 19.06 23.1 13.48 23.1Z" fill="#3BB75E"/>
</svg>
