<svg width="20" height="20" viewBox="0 0 20 20" fill="none" xmlns="http://www.w3.org/2000/svg">
<path d="M17.975 7.09375C17.9163 7.02515 17.8435 6.97007 17.7615 6.93231C17.6795 6.89454 17.5903 6.87499 17.5 6.875H13.75V4.375C13.75 3.87772 13.5525 3.40081 13.2008 3.04917C12.8492 2.69754 12.3723 2.5 11.875 2.5H8.125C7.62772 2.5 7.1508 2.69754 6.79917 3.04917C6.44754 3.40081 6.25 3.87772 6.25 4.375V6.875H2.5C2.4094 6.87397 2.31966 6.89266 2.23701 6.92976C2.15435 6.96685 2.08074 7.02148 2.02129 7.08985C1.96184 7.15822 1.91796 7.23869 1.8927 7.3257C1.86744 7.41271 1.8614 7.50417 1.875 7.59375L3.05 15.1875C3.0952 15.4856 3.2466 15.7573 3.47631 15.9525C3.70601 16.1478 3.99854 16.2534 4.3 16.25H15.7125C16.014 16.2534 16.3065 16.1478 16.5362 15.9525C16.7659 15.7573 16.9173 15.4856 16.9625 15.1875L18.125 7.59375C18.1375 7.50452 18.1306 7.41364 18.1047 7.32734C18.0788 7.24104 18.0346 7.16135 17.975 7.09375V7.09375ZM7.5 4.375C7.5 4.20924 7.56585 4.05027 7.68306 3.93306C7.80027 3.81585 7.95924 3.75 8.125 3.75H11.875C12.0408 3.75 12.1997 3.81585 12.3169 3.93306C12.4342 4.05027 12.5 4.20924 12.5 4.375V6.875H7.5V4.375ZM15.7125 15H4.2875L3.23125 8.125H16.7687L15.7125 15Z" fill="white"/>
</svg>
