<svg width="186" height="50" viewBox="0 0 186 50" fill="none" xmlns="http://www.w3.org/2000/svg">
<g clip-path="url(#clip0)">
<path d="M12.3483 47.2845C12.0818 47.0848 11.826 46.872 11.5819 46.647C10.9493 46.0449 10.4263 45.549 9.86668 44.9823C9.3071 44.4156 8.6502 43.8017 7.96897 43.1995C6.37167 41.6947 4.97038 40.0056 3.79644 38.17C2.31878 35.8681 1.24965 33.3419 0.633585 30.6966C0.487607 30.0826 0.353794 29.4451 0.26864 28.8076C0.183487 28.17 0.122663 27.5325 0.00101455 26.7887C-0.0598271 25.979 -0.0598271 25.1662 0.00101455 24.3566C0.00101455 23.7544 0.0861682 23.1759 0.146992 22.5502C0.130425 22.1855 0.163143 21.8204 0.244311 21.464C0.378124 20.7202 0.511937 20.0118 0.670079 19.2562C0.915535 18.1235 1.26149 17.0135 1.70409 15.9386C2.24122 14.6166 2.89232 13.3409 3.65046 12.1251C4.23381 11.1641 4.87562 10.2376 5.5725 9.35065C6.21098 8.55624 6.89747 7.7993 7.62835 7.08383C8.74989 6.00848 9.97158 5.03621 11.2778 4.17946C13.4337 2.75891 15.8122 1.68641 18.3212 1.00354C19.3309 0.720189 20.3649 0.507674 21.3989 0.318772C22.0186 0.21237 22.6441 0.14141 23.2723 0.106257C24.0144 0.106257 24.7442 0 25.5471 0H27.0191C28.3174 0.0936645 29.6066 0.283114 30.8753 0.566706C31.9384 0.781945 32.9834 1.07398 34.0017 1.44038C36.5123 2.33746 38.8639 3.60806 40.9721 5.20661C43.0556 6.79147 44.87 8.68383 46.349 10.8146C47.5069 12.4013 48.4551 14.1227 49.1712 15.9386C49.5845 16.9256 49.926 17.9395 50.193 18.9728C50.3755 19.7757 50.5458 20.6021 50.6675 21.4286C50.7671 21.9914 50.8361 22.5589 50.8743 23.1287V27.1547C50.7384 28.7029 50.4408 30.2338 49.9862 31.7237C49.8038 32.3141 49.6091 32.9044 49.3902 33.4829C48.8824 34.9586 48.2179 36.3791 47.4073 37.7214C46.194 39.7203 44.7133 41.5544 43.0036 43.1759L41.8845 44.1558C40.6373 45.1706 39.3024 46.0791 37.8944 46.8713C35.7138 48.0765 33.3605 48.9599 30.9118 49.4923C30.1698 49.6458 29.452 49.7521 28.6492 49.8701C27.9617 49.9803 27.2657 50.0317 26.569 50.0236H25.0484C24.7407 50.0472 24.4315 50.0472 24.1238 50.0236L21.8977 49.7639C20.8957 49.6615 19.9243 49.3686 19.0389 48.902C16.7898 47.8623 14.9651 46.1205 13.8567 43.9551C13.4667 43.2561 13.1878 42.5037 13.0295 41.7237C12.9515 41.3338 12.8987 40.9395 12.8714 40.5431C12.8714 39.8937 12.7619 39.2326 12.7497 38.5714C12.7132 38.0289 12.7132 37.4847 12.7497 36.9422C12.8227 36.1629 12.9322 35.3837 13.0539 34.5809C13.1486 34.2361 13.2748 33.9003 13.431 33.5773C13.5283 33.3058 13.6499 33.046 13.7594 32.8099C14.3884 31.5277 15.231 30.3549 16.2532 29.3388C16.6546 28.9256 17.0804 28.5006 17.4697 28.1582C17.8266 27.8114 18.237 27.5206 18.6862 27.2963C20.0806 26.6062 21.5728 26.1208 23.1142 25.856C24.0444 25.6866 24.9902 25.6114 25.9364 25.6316C26.8009 25.6527 27.6558 25.8122 28.4667 26.1039C28.5919 26.1421 28.7108 26.1977 28.8195 26.2692C29.2045 26.4764 29.5744 26.7091 29.9265 26.9658C30.7602 27.6082 31.413 28.4449 31.8242 29.3979C32.1166 30.0546 32.2736 30.7605 32.2864 31.4758C32.31 32.623 32.0426 33.7582 31.5079 34.7816C31.3424 35.1533 31.1343 35.5058 30.8875 35.8324C30.4628 36.2975 29.9662 36.6958 29.4155 37.013C28.4757 37.5329 27.437 37.8623 26.3622 37.9811H23.7711C23.4183 37.9811 23.0655 38.0756 22.7127 38.0992C21.9326 38.1585 21.1616 38.301 20.4136 38.5242C19.668 38.7246 18.9669 39.0568 18.3456 39.5041C17.8044 39.9084 17.4466 40.5012 17.348 41.157C17.2644 41.7288 17.3228 42.3117 17.5183 42.8571C17.5926 43.072 17.7128 43.2691 17.8711 43.4357C18.1899 43.7942 18.5311 44.1333 18.893 44.451C19.6679 45.0365 20.5186 45.5207 21.4233 45.8914C22.4311 46.3414 23.4824 46.6933 24.5618 46.9422C25.5263 47.1675 26.5279 47.1996 27.5057 47.0366C27.9596 47.0166 28.4111 46.9613 28.856 46.8713C30.1499 46.6705 31.4238 46.3624 32.6635 45.9504C35.0671 45.1408 37.3126 43.9433 39.3055 42.4085C40.0931 41.8309 40.8408 41.2038 41.5439 40.5313C44.1621 37.963 46.0882 34.8083 47.1518 31.3459C47.4652 30.3612 47.7011 29.3547 47.8574 28.3353C47.957 27.7685 48.026 27.1971 48.0642 26.6234C48.0494 26.2285 48.0738 25.8331 48.1372 25.4427V22.503C48.1144 22.1296 48.0615 21.7585 47.979 21.3932C47.82 20.2965 47.5678 19.2145 47.2248 18.1582C46.7365 16.7755 46.1176 15.4397 45.3758 14.1677C44.6937 12.8898 43.8785 11.6832 42.9428 10.5667C42.5779 10.1417 42.2251 9.74026 41.8236 9.38607C41.4222 9.03188 40.887 8.46517 40.3517 8.04014C38.8343 6.70291 37.1257 5.5855 35.279 4.72255C33.8554 4.0379 32.3636 3.49594 30.8267 3.10508C30.2062 2.9634 29.6102 2.83353 28.9533 2.73908C28.4703 2.65448 27.983 2.59537 27.4935 2.56198C27.0069 2.56198 26.3987 2.56198 25.8512 2.46753H25.1335L23.0655 2.5856C21.7312 2.7108 20.4118 2.95584 19.1241 3.31759C17.9916 3.62819 16.8854 4.0229 15.8153 4.49823C14.3646 5.13876 12.99 5.9305 11.7157 6.8595C10.7633 7.53223 9.86826 8.27845 9.03947 9.09091C7.8075 10.327 6.73333 11.7025 5.84013 13.1877C5.0231 14.5279 4.32711 15.9342 3.75994 17.3908C3.38283 18.4416 3.11521 19.5396 2.83542 20.6375C2.72593 21.1334 2.68944 21.6647 2.61645 22.1724C2.51889 22.6474 2.4579 23.1289 2.43398 23.6128V26.5643C2.46677 27.0083 2.52771 27.4499 2.61645 27.8867C2.67727 28.4298 2.76243 28.9728 2.87191 29.5041C3.07532 30.3771 3.33536 31.2368 3.65046 32.0779C4.31884 33.9624 5.22599 35.7589 6.35105 37.4262C7.08463 38.4272 7.89812 39.3707 8.78401 40.2479C9.33119 40.8753 9.92043 41.4669 10.5479 42.0189C10.7668 42.2117 10.974 42.4167 11.1683 42.6328C11.1927 42.6936 11.1927 42.761 11.1683 42.8217C11.1683 43.0697 11.1683 43.3294 11.1683 43.5773C11.1655 43.9753 11.2146 44.372 11.3143 44.758C11.4968 45.3129 11.7157 45.856 11.9469 46.3991C12.0685 46.6588 12.2023 46.9185 12.3118 47.1901V47.3554L12.3483 47.2845Z" fill="#A9CE40"/>
<path d="M16.4833 28.5006C16.1147 28.5242 15.7449 28.5242 15.3763 28.5006C14.6558 28.428 13.9458 28.2775 13.2596 28.0519C12.6392 27.8394 12.0432 27.6151 11.4106 27.3554C10.5273 27.001 9.70645 26.5151 8.97763 25.915C7.97057 25.1185 7.14252 24.13 6.54466 23.0106C6.13791 22.2463 5.87039 21.4195 5.75395 20.5667C5.72463 20.0065 5.75316 19.4449 5.8391 18.8902C5.86586 18.4424 5.92275 17.9967 6.00941 17.5561C6.00941 17.1074 6.09456 16.8831 6.15539 16.5525C6.34308 15.6437 6.66255 14.7652 7.10424 13.9433C7.17723 13.7898 7.25022 13.6246 7.31105 13.4711C7.50532 12.9145 7.78413 12.3893 8.13825 11.9126C8.72184 11.1059 9.43194 10.3928 10.2428 9.79929C10.5591 9.56316 10.851 9.30342 11.1673 9.09091C12.0477 8.51745 12.985 8.03096 13.9652 7.63872C14.4306 7.42248 14.9267 7.27523 15.4371 7.20189C15.8913 7.15801 16.3423 7.08704 16.7874 6.98937C17.093 6.97977 17.3977 6.95217 17.6998 6.90673L18.9163 6.82408H23.7822C24.804 6.74144 25.8137 6.82408 26.8234 6.82408H29.4145L31.3974 6.93034H32.4557L34.2318 7.08382C35.1197 7.16432 35.9646 7.49233 36.6647 8.02833C37.6648 8.74335 38.4604 9.69425 38.9761 10.791C39.2599 11.3893 39.4249 12.0342 39.4626 12.6919C39.504 14.1611 38.9791 15.5925 37.9907 16.706C37.7022 17.0608 37.3805 17.3888 37.0297 17.6859C36.432 18.2449 35.7004 18.6506 34.9008 18.8666C34.6852 18.9135 34.4649 18.9372 34.2439 18.9374H15.9967L14.7802 19.0083C14.3701 19.0385 13.9632 19.1017 13.5638 19.1972C12.4918 19.4014 11.4607 19.7722 10.5104 20.2952C9.8167 20.6384 9.21646 21.136 8.75866 21.7473C8.54188 22.0261 8.38495 22.3442 8.29719 22.6829C8.20943 23.0216 8.19261 23.3739 8.24774 23.719C8.32467 24.1776 8.49863 24.6158 8.75866 25.0059C9.09228 25.5078 9.50244 25.9576 9.97514 26.34C10.3848 26.6642 10.8343 26.9378 11.3133 27.1547C12.0248 27.4865 12.7659 27.7552 13.5273 27.9575C14.2076 28.1462 14.9036 28.2766 15.6074 28.3471C15.9029 28.3774 16.1956 28.4287 16.4833 28.5006Z" fill="#279C3F"/>
<path d="M16.4833 28.5006C16.2035 28.5006 15.9359 28.3825 15.6683 28.3589C14.9624 28.2758 14.2633 28.1457 13.5759 27.9693C12.8164 27.7681 12.0789 27.4953 11.3741 27.1547C10.8992 26.9229 10.4542 26.6375 10.0481 26.3046C9.58008 25.9176 9.17056 25.4684 8.83165 24.9705C8.57162 24.5803 8.39766 24.1422 8.32073 23.6836C8.26826 23.3422 8.28642 22.9941 8.37415 22.6596C8.46187 22.3252 8.6174 22.011 8.83165 21.7355C9.25919 21.1417 9.8156 20.646 10.4617 20.2833C11.4228 19.7993 12.4579 19.4684 13.5273 19.3034C13.9361 19.2627 14.3422 19.1996 14.7438 19.1145L15.9602 19.0437H17.2984L15.8143 19.1972L14.8776 19.3034C14.3406 19.3732 13.8139 19.504 13.3083 19.693C12.6532 19.9057 12.0403 20.2251 11.4957 20.6375C10.9833 21.0411 10.6064 21.5836 10.4131 22.196C10.3168 22.5475 10.2963 22.9145 10.3528 23.2741C10.4093 23.6336 10.5417 23.978 10.7415 24.2857C10.9568 24.6324 11.2232 24.9467 11.5322 25.2184L12.1526 25.7851C12.9624 26.5252 13.8858 27.1386 14.8897 27.6033C15.3952 27.8226 15.8867 28.0709 16.3617 28.3471L16.4833 28.5006Z" fill="#5FBA74"/>
<path d="M68.123 22.4911L66.4077 36.5998L65.471 39.9292C65.3532 40.4585 65.0783 40.9428 64.6803 41.3223C64.2488 41.6516 63.7076 41.8154 63.1597 41.7828H61.3472L63.7801 22.5148L62.3325 22.2668C62.0878 22.2354 61.8587 22.1325 61.6756 21.9717C61.5876 21.8925 61.5189 21.7952 61.4747 21.6869C61.4305 21.5787 61.4118 21.4621 61.4202 21.3459C61.4161 21.3225 61.4161 21.2985 61.4202 21.2751C61.4247 21.1964 61.4247 21.1176 61.4202 21.039C61.4202 20.9091 61.4202 20.7202 61.4202 20.4723C61.4202 20.2243 61.5053 19.8583 61.5661 19.3979H64.0843L64.2424 18.0519C64.3601 17.079 64.6481 16.1327 65.0939 15.2538C65.4974 14.4541 66.0548 13.7368 66.7362 13.1405C67.4215 12.5512 68.2191 12.0979 69.084 11.8064C69.9814 11.4941 70.9286 11.3382 71.8819 11.3459C72.6138 11.3367 73.3419 11.4485 74.0351 11.6765L73.6336 13.9433C73.6125 14.0668 73.548 14.1794 73.4512 14.2621C73.3557 14.3402 73.2435 14.3967 73.1227 14.4274C72.9753 14.4646 72.8246 14.4883 72.6726 14.4982H72.1739C71.7196 14.495 71.2678 14.5628 70.8357 14.6989C70.4317 14.8275 70.062 15.0412 69.7531 15.3247C69.4131 15.6601 69.1516 16.0628 68.9867 16.5053C68.764 17.0541 68.6207 17.6303 68.5609 18.2172L68.4149 19.3979H72.6118L72.186 22.5148L68.123 22.4911Z" fill="white"/>
<path d="M87.5866 37.379H85.1537C84.9622 37.4207 84.7632 37.4169 84.5736 37.3678C84.384 37.3187 84.2094 37.2258 84.0648 37.097C83.9202 36.9683 83.8099 36.8075 83.7432 36.6284C83.6765 36.4493 83.6554 36.2572 83.6817 36.0685L83.8277 33.5891C83.1041 34.7513 82.1635 35.7723 81.0541 36.5998C80.0681 37.3069 78.874 37.6877 77.648 37.686C76.9641 37.6882 76.2878 37.5472 75.6651 37.2727C75.0431 37.0049 74.4934 36.6008 74.0594 36.0921C73.5623 35.4763 73.1982 34.7696 72.9889 34.0142C72.7051 33.0914 72.5697 32.1317 72.5874 31.1688C72.5859 27.9883 73.8346 24.927 76.0787 22.6092C76.7964 21.8573 77.6147 21.2022 78.5117 20.6612C80.3928 19.5306 82.564 18.9373 84.7766 18.9492C85.6232 18.9499 86.4688 19.0091 87.3068 19.1263C88.1397 19.2504 88.9557 19.4643 89.7398 19.7639L87.5866 37.379ZM79.4484 34.0732C79.9804 34.0615 80.4952 33.8881 80.9203 33.5773C81.4478 33.1954 81.908 32.7329 82.2828 32.2078C82.7551 31.5582 83.1624 30.8664 83.4993 30.1417C83.8776 29.3146 84.1947 28.4624 84.4481 27.5915L85.1537 22.1015C84.8498 22.0855 84.5452 22.0855 84.2413 22.1015C83.2614 22.0944 82.2953 22.3258 81.4312 22.7745C80.5297 23.1994 79.7268 23.7979 79.0713 24.5337C78.442 25.3213 77.9565 26.2078 77.6358 27.1547C77.2723 28.1841 77.0913 29.266 77.1006 30.3542C77.0266 31.3253 77.2419 32.2967 77.721 33.1523C77.8944 33.4367 78.142 33.6716 78.4389 33.8332C78.7358 33.9949 79.0715 34.0777 79.4119 34.0732H79.4484Z" fill="white"/>
<path d="M91.7349 37.379L94.0097 19.1972H96.2967C96.6752 19.1815 97.0493 19.2805 97.3672 19.4805C97.511 19.5825 97.6256 19.7185 97.7001 19.8755C97.7746 20.0325 97.8065 20.2054 97.7929 20.3778C97.7929 20.4604 97.7929 20.6021 97.7929 20.8028C97.7929 21.0035 97.7929 21.3223 97.7929 21.7591C97.7929 22.196 97.7929 22.7863 97.72 23.5655C98.3437 22.3233 99.1973 21.2028 100.238 20.2597C101.002 19.5354 102.017 19.1144 103.085 19.0791C103.609 19.084 104.126 19.1925 104.605 19.3979L103.717 23.6128C103.173 23.3761 102.586 23.2477 101.99 23.2349C101.426 23.2512 100.874 23.3966 100.38 23.6592C99.8851 23.9219 99.4614 24.2943 99.1432 24.7462C98.1427 26.1675 97.459 27.7761 97.136 29.4687L96.102 37.379H91.7349Z" fill="white"/>
<path d="M104.995 37.379L107.281 19.1972H109.556C109.948 19.1759 110.336 19.2887 110.651 19.5159C110.795 19.6404 110.907 19.7962 110.977 19.9707C111.046 20.1452 111.072 20.3333 111.053 20.5195V20.5785C111.053 20.5785 111.053 20.6848 111.053 20.8146C111.053 20.9445 111.053 21.157 111.053 21.4404C111.053 21.7237 111.053 22.1015 111.053 22.621C111.751 21.5211 112.685 20.5791 113.79 19.8583C114.671 19.2644 115.71 18.9284 116.782 18.8902C117.294 18.8662 117.805 18.9545 118.277 19.1487C118.749 19.3429 119.169 19.6379 119.507 20.0118C120.263 20.9294 120.69 22.0609 120.724 23.2349C121.421 21.9391 122.416 20.8162 123.631 19.9528C124.651 19.2615 125.866 18.8906 127.11 18.8902C127.723 18.8582 128.336 18.9665 128.898 19.2065C129.46 19.4464 129.956 19.8113 130.346 20.2715C131.18 21.425 131.584 22.8204 131.489 24.2267C131.489 24.4628 131.489 24.7107 131.489 24.9823C131.489 25.2538 131.489 25.5136 131.416 25.7851L130.018 37.3436H125.565L126.186 32.2432C126.356 30.8383 126.49 29.6694 126.599 28.7013L126.855 26.4935C126.855 25.9622 126.964 25.549 126.988 25.3129C127.013 25.0767 126.988 24.8288 126.988 24.7226C126.988 24.6163 126.988 24.5455 126.988 24.4864C127.033 23.9505 126.906 23.4142 126.624 22.9516C126.475 22.7841 126.286 22.6537 126.075 22.5715C125.863 22.4894 125.634 22.4577 125.407 22.4793C124.933 22.4824 124.468 22.6045 124.057 22.8335C123.594 23.1057 123.182 23.4531 122.84 23.8607C122.412 24.3696 122.045 24.9242 121.745 25.5136C121.393 26.2217 121.101 26.956 120.87 27.7096L119.653 37.3554H115.249L116.661 25.7969C116.661 25.549 116.661 25.3129 116.661 25.1004C116.661 24.8878 116.661 24.6753 116.661 24.4864C116.702 23.9522 116.579 23.418 116.308 22.9516C116.16 22.7825 115.972 22.651 115.76 22.5687C115.548 22.4864 115.318 22.4557 115.091 22.4793C114.603 22.4851 114.125 22.6154 113.705 22.8571C113.233 23.1384 112.821 23.5028 112.488 23.9315C112.049 24.45 111.681 25.0214 111.393 25.6316C111.032 26.3494 110.735 27.096 110.505 27.863L109.289 37.3081L104.995 37.379Z" fill="white"/>
<path d="M146.27 22.6328C146.169 22.787 146.042 22.9229 145.893 23.0342C145.747 23.1107 145.583 23.1474 145.418 23.1405C145.191 23.1355 144.969 23.0745 144.773 22.9634L144.019 22.5738C143.703 22.4125 143.374 22.2782 143.034 22.1724C142.6 22.046 142.149 21.9862 141.696 21.9953C140.905 21.9457 140.121 22.1671 139.482 22.621C139.24 22.8091 139.045 23.0483 138.912 23.3204C138.779 23.5924 138.712 23.8902 138.715 24.1913C138.708 24.5281 138.82 24.8572 139.032 25.124C139.27 25.3895 139.554 25.6131 139.871 25.7851C140.26 25.9931 140.667 26.1669 141.088 26.3046L142.438 26.8241C142.899 27.0047 143.35 27.2096 143.788 27.438C144.233 27.6592 144.643 27.9415 145.005 28.2763C145.351 28.6182 145.632 29.0182 145.832 29.4569C146.054 29.9848 146.162 30.5515 146.148 31.1216C146.153 31.9843 145.97 32.8382 145.612 33.6276C145.254 34.417 144.727 35.1241 144.068 35.7025C143.362 36.3269 142.535 36.8085 141.635 37.1192C140.619 37.4808 139.542 37.6569 138.46 37.6387C137.88 37.6446 137.3 37.5891 136.733 37.4734C136.198 37.3695 135.676 37.2112 135.175 37.0012C134.708 36.8129 134.263 36.5753 133.849 36.2928C133.475 36.0413 133.135 35.7436 132.84 35.4073L133.935 33.7426C134.054 33.5557 134.216 33.3982 134.409 33.2822C134.614 33.1748 134.845 33.1219 135.078 33.1287C135.329 33.1251 135.573 33.2042 135.772 33.353C135.978 33.5065 136.222 33.6836 136.501 33.8607C136.818 34.0652 137.156 34.2354 137.511 34.3684C138.003 34.5341 138.523 34.6101 139.044 34.5927C139.49 34.6025 139.934 34.5386 140.358 34.4038C140.714 34.2896 141.045 34.1092 141.331 33.8725C141.586 33.6597 141.789 33.3948 141.925 33.0967C142.062 32.7987 142.129 32.4749 142.122 32.1488C142.139 31.7943 142.031 31.4448 141.817 31.157C141.59 30.8717 141.304 30.6346 140.978 30.4604C140.591 30.2514 140.184 30.0813 139.762 29.9528L138.411 29.4805C137.959 29.3159 137.516 29.1267 137.085 28.9138C136.639 28.7095 136.229 28.4386 135.869 28.111C135.513 27.776 135.232 27.3743 135.042 26.9303C134.817 26.3865 134.71 25.804 134.725 25.2184C134.722 24.4087 134.883 23.6063 135.2 22.8571C135.511 22.0943 135.988 21.4057 136.599 20.8382C137.247 20.2228 138.016 19.7409 138.861 19.4215C139.842 19.0516 140.887 18.8711 141.939 18.8902C143.025 18.8703 144.104 19.0756 145.102 19.4923C145.967 19.8513 146.755 20.3638 147.425 21.0035L146.27 22.6328Z" fill="white"/>
<path d="M148.313 37.379L151.622 11.0626H156.014L154.542 22.8689C155.33 21.7607 156.319 20.8006 157.461 20.0354C158.473 19.3552 159.673 18.9888 160.904 18.9846C161.637 18.9758 162.363 19.1207 163.033 19.4097C163.674 19.6855 164.234 20.1115 164.663 20.6493C165.152 21.2798 165.508 21.9981 165.709 22.7627C165.969 23.7379 166.091 24.7426 166.074 25.7497C166.092 27.7587 165.678 29.7491 164.858 31.5938C164.472 32.4565 163.99 33.276 163.422 34.0378C162.896 34.7591 162.274 35.4101 161.573 35.974C160.901 36.4838 160.155 36.8936 159.359 37.1901C158.588 37.499 157.761 37.6555 156.926 37.6505C156.067 37.6728 155.215 37.496 154.441 37.1346C153.667 36.7732 152.992 36.2377 152.474 35.5726L152.328 36.1747C152.309 36.3561 152.252 36.5318 152.16 36.6909C152.068 36.85 151.944 36.9892 151.794 37.0999C151.645 37.2105 151.474 37.2903 151.292 37.3342C151.109 37.3781 150.92 37.3853 150.734 37.3554L148.313 37.379ZM159.152 22.3613C158.61 22.3756 158.084 22.5484 157.644 22.8571C157.078 23.2395 156.574 23.701 156.148 24.2267C155.634 24.8611 155.19 25.5456 154.822 26.2692C154.402 27.0821 154.052 27.9271 153.775 28.7957L153.277 33.1287C153.663 33.5478 154.153 33.8646 154.7 34.0496C155.208 34.2245 155.742 34.3162 156.281 34.3211C157.075 34.3223 157.846 34.0645 158.471 33.5891C159.157 33.0729 159.731 32.4311 160.162 31.7001C160.646 30.8751 161.01 29.9891 161.245 29.0673C161.5 28.1109 161.631 27.1273 161.634 26.1393C161.702 25.1507 161.478 24.1638 160.989 23.294C160.797 22.9936 160.525 22.7488 160.202 22.5848C159.879 22.4208 159.516 22.3436 159.152 22.3613Z" fill="white"/>
<path d="M173.628 42.4085C173.505 42.6835 173.301 42.9167 173.041 43.0786C172.781 43.2405 172.477 43.3237 172.169 43.3176H168.823L172.984 35.9976L168.264 19.209H172.035C172.169 19.1995 172.304 19.2165 172.432 19.2591C172.56 19.3018 172.677 19.369 172.777 19.4569C172.941 19.6127 173.058 19.8085 173.117 20.0236L175.417 29.4687C175.49 29.7757 175.538 30.0827 175.587 30.3778C175.636 30.673 175.66 30.9681 175.684 31.2751C175.818 30.9681 175.952 30.673 176.098 30.366L176.524 29.4569L181.146 20.0118C181.266 19.7781 181.446 19.5787 181.669 19.4333C181.882 19.2939 182.131 19.2161 182.387 19.209H186.036L173.628 42.4085Z" fill="white"/>
</g>
<defs>
<clipPath id="clip0">
<rect width="186" height="50" fill="white"/>
</clipPath>
</defs>
</svg>
