<svg xmlns="http://www.w3.org/2000/svg" viewBox="0 0 114.06 28.47"><defs><style>.cls-1{fill:#0f0f0f;}.cls-2{fill:#a9ce41;}.cls-3{fill:#25ce4d;}.cls-4{fill:#60cc7a;}</style></defs><title>logo-light_3</title><g id="Layer_2" data-name="Layer 2"><g id="Logo"><path class="cls-1" d="M35.84,23.15V12.87l-1-.17a1,1,0,0,1-.51-.25.66.66,0,0,1-.19-.51V10.7h1.68V9.77a6.11,6.11,0,0,1,.29-1.93A4.11,4.11,0,0,1,37,6.38a3.65,3.65,0,0,1,1.32-.92,4.68,4.68,0,0,1,1.76-.31,4.34,4.34,0,0,1,1.46.23L41.45,6.9a.43.43,0,0,1-.3.44,2.35,2.35,0,0,1-.63.08,2.9,2.9,0,0,0-.87.12,1.42,1.42,0,0,0-.64.4,1.9,1.9,0,0,0-.4.76,4.36,4.36,0,0,0-.14,1.17v.83h2.94v2.16H38.56V23.15Z"/><path class="cls-1" d="M51.92,23.15H50.69a1.28,1.28,0,0,1-.6-.12.82.82,0,0,1-.33-.52l-.24-.9a9.11,9.11,0,0,1-.84.75,5,5,0,0,1-.86.55,3.67,3.67,0,0,1-.93.33,5.32,5.32,0,0,1-1.1.11,4,4,0,0,1-1.32-.21,2.78,2.78,0,0,1-1-.65,2.93,2.93,0,0,1-.68-1.07,4.18,4.18,0,0,1-.24-1.48,3.24,3.24,0,0,1,.33-1.41A3.44,3.44,0,0,1,44,17.28,6.4,6.4,0,0,1,46,16.35,11.83,11.83,0,0,1,49.26,16v-.74a3.09,3.09,0,0,0-.47-1.88,1.67,1.67,0,0,0-1.4-.61,3.18,3.18,0,0,0-1.1.17,3.38,3.38,0,0,0-.76.39l-.6.38a1.1,1.1,0,0,1-.61.17.71.71,0,0,1-.47-.16,1.12,1.12,0,0,1-.32-.39l-.49-1a6.33,6.33,0,0,1,4.69-2,4.18,4.18,0,0,1,1.77.36,3.76,3.76,0,0,1,1.32,1,4.58,4.58,0,0,1,.82,1.53,6.77,6.77,0,0,1,.28,2Zm-5.29-1.88a3.07,3.07,0,0,0,.77-.09,2.57,2.57,0,0,0,.67-.25,3.83,3.83,0,0,0,.61-.41,5.42,5.42,0,0,0,.58-.59v-2.1a9.23,9.23,0,0,0-2,.17,4.91,4.91,0,0,0-1.28.42,1.61,1.61,0,0,0-.69.61,1.42,1.42,0,0,0-.21.75,1.4,1.4,0,0,0,.43,1.14A1.69,1.69,0,0,0,46.63,21.27Z"/><path class="cls-1" d="M54.59,23.15V10.59h1.59a.79.79,0,0,1,.59.18,1,1,0,0,1,.22.58l.16,1.52A6.07,6.07,0,0,1,58.57,11a2.85,2.85,0,0,1,1.83-.67,2.18,2.18,0,0,1,1.39.43l-.36,2.26a.5.5,0,0,1-.14.32.45.45,0,0,1-.3.09,1.6,1.6,0,0,1-.45-.09,3,3,0,0,0-.76-.08,2.13,2.13,0,0,0-1.45.52,4,4,0,0,0-1,1.52v7.82Z"/><path class="cls-1" d="M63.58,23.15V10.59h1.66a.68.68,0,0,1,.69.55l.18.94a6.77,6.77,0,0,1,.62-.68,4.16,4.16,0,0,1,.69-.52,3.19,3.19,0,0,1,.8-.35,3,3,0,0,1,.93-.13A2.45,2.45,0,0,1,70.9,11a4,4,0,0,1,1,1.71,4,4,0,0,1,.66-1.07,3.52,3.52,0,0,1,.87-.73,3.6,3.6,0,0,1,1-.42,4.29,4.29,0,0,1,1.07-.13,4,4,0,0,1,1.66.32,3.11,3.11,0,0,1,1.22.93,4.27,4.27,0,0,1,.76,1.49,7.28,7.28,0,0,1,.26,2v8H76.72v-8a2.89,2.89,0,0,0-.48-1.81,1.64,1.64,0,0,0-1.38-.6,1.85,1.85,0,0,0-.78.16,1.77,1.77,0,0,0-.63.46,2.09,2.09,0,0,0-.42.75,3.3,3.3,0,0,0-.15,1v8H70.15v-8a3,3,0,0,0-.46-1.84,1.62,1.62,0,0,0-1.35-.57,2,2,0,0,0-1.09.32,4,4,0,0,0-1,.89v9.19Z"/><path class="cls-1" d="M88.81,13a.84.84,0,0,1-.23.28.57.57,0,0,1-.31.08.9.9,0,0,1-.42-.12c-.15-.09-.33-.18-.53-.28a5.42,5.42,0,0,0-.67-.28,3,3,0,0,0-.9-.12,1.91,1.91,0,0,0-1.26.38A1.21,1.21,0,0,0,84,14a1,1,0,0,0,.24.68,2.12,2.12,0,0,0,.63.49,6.66,6.66,0,0,0,.88.37l1,.36a10,10,0,0,1,1,.45,3.45,3.45,0,0,1,.88.63,3.05,3.05,0,0,1,.63.93,3.18,3.18,0,0,1,.24,1.3,4.55,4.55,0,0,1-.3,1.67,3.71,3.71,0,0,1-.87,1.32A4,4,0,0,1,87,23a5.5,5.5,0,0,1-1.93.31,5.38,5.38,0,0,1-1.14-.12,5.51,5.51,0,0,1-1.07-.32,5.67,5.67,0,0,1-1-.49,4.72,4.72,0,0,1-.76-.61l.62-1.15a1,1,0,0,1,.29-.32.69.69,0,0,1,.42-.11.79.79,0,0,1,.48.16c.15.1.32.22.52.34a4.15,4.15,0,0,0,.7.34,2.73,2.73,0,0,0,1,.16A2.3,2.3,0,0,0,86,21.1a1.59,1.59,0,0,0,.57-.33,1.25,1.25,0,0,0,.33-.49,1.56,1.56,0,0,0,.1-.57,1.07,1.07,0,0,0-.23-.72,2.12,2.12,0,0,0-.63-.49,5.67,5.67,0,0,0-.89-.37l-1-.36a10.45,10.45,0,0,1-1-.46,3.65,3.65,0,0,1-.89-.67,3.11,3.11,0,0,1-.63-1,4,4,0,0,1-.23-1.42,4.08,4.08,0,0,1,.27-1.47,3.72,3.72,0,0,1,.81-1.22,4.12,4.12,0,0,1,1.33-.83,5.55,5.55,0,0,1,4,.12A4.79,4.79,0,0,1,89.43,12Z"/><path class="cls-1" d="M91.76,23.15V5h2.72v7.18A5.33,5.33,0,0,1,96,10.87a4.08,4.08,0,0,1,2-.47,3.44,3.44,0,0,1,1.69.42A3.85,3.85,0,0,1,101,12.05a6.13,6.13,0,0,1,.86,2,11.18,11.18,0,0,1,.3,2.73,9.4,9.4,0,0,1-.34,2.6,6.44,6.44,0,0,1-1,2.08,4.57,4.57,0,0,1-1.53,1.38,4.1,4.1,0,0,1-2,.5,3.45,3.45,0,0,1-.94-.12,3,3,0,0,1-.78-.32,3.24,3.24,0,0,1-.66-.51,6.5,6.5,0,0,1-.58-.67l-.12.85A.79.79,0,0,1,94,23a.68.68,0,0,1-.44.13ZM97,12.75a2.52,2.52,0,0,0-1.45.4,4.22,4.22,0,0,0-1.11,1.12V19.9a2.67,2.67,0,0,0,1,.89,2.94,2.94,0,0,0,1.18.25,2.4,2.4,0,0,0,1.12-.26,2.23,2.23,0,0,0,.84-.78,4.15,4.15,0,0,0,.53-1.33,8.16,8.16,0,0,0,.19-1.89,9,9,0,0,0-.16-1.87,3.79,3.79,0,0,0-.46-1.24A1.85,1.85,0,0,0,98,13,2,2,0,0,0,97,12.75Z"/><path class="cls-1" d="M107.91,26.61a1.14,1.14,0,0,1-.31.48.9.9,0,0,1-.59.17h-2l2.12-5-4.57-11.63h2.38a.65.65,0,0,1,.5.18,1.05,1.05,0,0,1,.27.39l2.41,6.51a6.37,6.37,0,0,1,.21.66c0,.23.11.46.15.69.06-.24.12-.47.19-.69s.15-.44.23-.67l2.26-6.5a.88.88,0,0,1,.3-.41.73.73,0,0,1,.45-.16h2.18Z"/><path class="cls-2" d="M7,26.92c-.14-.12-.29-.23-.43-.36-.33-.31-.65-.62-1-.95s-.71-.68-1.06-1a15.7,15.7,0,0,1-2.35-2.86A14,14,0,0,1,.38,17.49a10.28,10.28,0,0,1-.21-1.08C.11,16,.09,15.64.05,15.26a9.23,9.23,0,0,1,0-1.39c0-.34,0-.69.08-1a6.2,6.2,0,0,1,.06-.62c.07-.42.14-.84.23-1.25A11.56,11.56,0,0,1,1,9.05,14.57,14.57,0,0,1,2.05,6.88a14.14,14.14,0,0,1,1.1-1.56A15.19,15.19,0,0,1,4.3,4.06a14.55,14.55,0,0,1,2-1.65,13.86,13.86,0,0,1,4-1.84C10.87.41,11.45.29,12,.18A7.34,7.34,0,0,1,13.08.06c.42,0,.83,0,1.25-.06.26,0,.53,0,.79,0a15,15,0,0,1,2.22.29,13.12,13.12,0,0,1,1.76.5A14.54,14.54,0,0,1,23,3a14.29,14.29,0,0,1,3,3.19,13.53,13.53,0,0,1,1.56,2.9,11.68,11.68,0,0,1,.57,1.73c.11.46.2.93.28,1.4s.08.64.11,1c0,.14,0,.29,0,.43s0,.5,0,.75,0,.73,0,1.09A12.43,12.43,0,0,1,28.05,18c-.1.33-.21.67-.33,1a13.24,13.24,0,0,1-1.13,2.41,15.28,15.28,0,0,1-2.45,3.1c-.21.19-.41.38-.63.56a15.61,15.61,0,0,1-2.24,1.54,12.37,12.37,0,0,1-2.06.95,13.52,13.52,0,0,1-1.85.55c-.42.09-.85.15-1.27.21a7.72,7.72,0,0,1-1.18.09l-.85,0a4.35,4.35,0,0,1-.51,0c-.42,0-.83-.09-1.24-.12a4.56,4.56,0,0,1-1.61-.49A6.24,6.24,0,0,1,7.79,25a4.56,4.56,0,0,1-.46-1.28c0-.21-.06-.43-.08-.64,0-.37,0-.75-.06-1.12a7,7,0,0,1,0-.92c0-.45.1-.9.18-1.34a2.52,2.52,0,0,1,.21-.58c.05-.15.12-.29.18-.44a7.36,7.36,0,0,1,1.4-2c.23-.24.47-.47.71-.7a2.6,2.6,0,0,1,.7-.49A9,9,0,0,1,13,14.73a7,7,0,0,1,1.59-.11,4.8,4.8,0,0,1,1.41.25l.2.1a6.57,6.57,0,0,1,.62.4,3.5,3.5,0,0,1,1.07,1.39,2.87,2.87,0,0,1,.24,1.16,4.09,4.09,0,0,1-.44,1.88,3.61,3.61,0,0,1-.35.6,3.18,3.18,0,0,1-.84.67,4.54,4.54,0,0,1-1.71.56l-.45,0-1,0c-.2,0-.39,0-.59.06a7,7,0,0,0-1.29.25,2.84,2.84,0,0,0-.49.17,3.52,3.52,0,0,0-.68.39,1.43,1.43,0,0,0-.55.94,2,2,0,0,0,.09,1,.92.92,0,0,0,.21.34,5.11,5.11,0,0,0,.57.57,6.11,6.11,0,0,0,1.41.84,9.94,9.94,0,0,0,1.77.59,4.16,4.16,0,0,0,1.61.06c.25-.05.51-.06.76-.1a12.14,12.14,0,0,0,2.14-.52,12.63,12.63,0,0,0,3.72-2,12.78,12.78,0,0,0,1.3-1.14,12.37,12.37,0,0,0,3.14-5.23,11,11,0,0,0,.4-1.72c.05-.32.1-.64.12-1s0-.44,0-.65,0-.72,0-1.07,0-.43,0-.65-.06-.42-.09-.63a11.67,11.67,0,0,0-.42-1.84,13.41,13.41,0,0,0-1-2.27A11.6,11.6,0,0,0,24.08,6c-.2-.24-.4-.48-.62-.7s-.53-.52-.81-.76a11.9,11.9,0,0,0-2.82-1.89,12.69,12.69,0,0,0-2.55-.91c-.34-.08-.69-.16-1-.22s-.56-.07-.84-.1l-.91,0a2.81,2.81,0,0,0-.41,0c-.39,0-.77,0-1.16.06a12.86,12.86,0,0,0-2.21.42,11.89,11.89,0,0,0-4.14,2A11.85,11.85,0,0,0,5.1,5.18,12.08,12.08,0,0,0,3.28,7.51a13.89,13.89,0,0,0-1.14,2.4,16.75,16.75,0,0,0-.52,1.84c-.07.29-.08.59-.13.88a4.89,4.89,0,0,0-.08.85c0,.38,0,.75,0,1.12,0,.19,0,.37,0,.56s.06.5.1.75.08.6.15.89a11.8,11.8,0,0,0,.41,1.47,13.76,13.76,0,0,0,1.53,3,12.45,12.45,0,0,0,1.3,1.6,9.54,9.54,0,0,0,1,1c.12.1.23.22.35.34a.2.2,0,0,1,0,.11,3.13,3.13,0,0,0,0,.43,2.91,2.91,0,0,0,.08.66c.1.32.24.63.36.94l.21.45a.42.42,0,0,0,0,.1Z"/><path class="cls-3" d="M9.26,16.23a4.14,4.14,0,0,1-.61,0A6.15,6.15,0,0,1,7.46,16c-.35-.13-.69-.26-1-.41a4.74,4.74,0,0,1-1.35-.85,5.07,5.07,0,0,1-1.34-1.64,4.5,4.5,0,0,1-.41-1.37,5.07,5.07,0,0,1,0-1c0-.26.07-.51.1-.76s0-.38.08-.57A5.64,5.64,0,0,1,4,7.94a2,2,0,0,0,.11-.26,3.18,3.18,0,0,1,.48-.89A5,5,0,0,1,5.76,5.58a6.54,6.54,0,0,1,.52-.4,9.38,9.38,0,0,1,1.56-.84,3.61,3.61,0,0,1,.79-.24c.25,0,.5-.09.76-.12a4.38,4.38,0,0,1,.51,0l.7,0,.64,0,.76,0,.76,0H13c.1,0,.21,0,.31,0,.56,0,1.13,0,1.7,0,.24,0,.49,0,.73,0l.72,0,1.12.06.59,0,1,.08a2.64,2.64,0,0,1,1.41.56,4.22,4.22,0,0,1,1.3,1.57,3.07,3.07,0,0,1,.27,1.08,3.34,3.34,0,0,1-.85,2.29,5.49,5.49,0,0,1-.53.55,3,3,0,0,1-1.2.69,2.33,2.33,0,0,1-.37,0l-.79,0h-.49l-3.75,0-1.06,0H11.71l-.89,0-.61,0-.3,0-.49,0-.41,0-.66,0-.71.1a6,6,0,0,0-1.71.57,2.66,2.66,0,0,0-.95.78,1.45,1.45,0,0,0-.29,1.12,2,2,0,0,0,.29.74,3.55,3.55,0,0,0,.69.76,3.29,3.29,0,0,0,.73.48,8.51,8.51,0,0,0,1.24.47,9.62,9.62,0,0,0,1.17.22A3.54,3.54,0,0,1,9.26,16.23Z"/><path class="cls-4" d="M9.26,16.23a3.54,3.54,0,0,0-.45-.08,9.62,9.62,0,0,1-1.17-.22,8.51,8.51,0,0,1-1.24-.47A3.29,3.29,0,0,1,5.67,15,3.55,3.55,0,0,1,5,14.22a2,2,0,0,1-.29-.74A1.45,1.45,0,0,1,5,12.36a2.66,2.66,0,0,1,.95-.78A6,6,0,0,1,7.64,11l.71-.1.66,0,.41,0,.49,0,.2,0H9.73L8.94,11l-.53.06a3.78,3.78,0,0,0-.88.22,3.34,3.34,0,0,0-1,.54,1.83,1.83,0,0,0-.61.89,1.52,1.52,0,0,0,.19,1.19,2.21,2.21,0,0,0,.44.52l.35.32a5.8,5.8,0,0,0,1.54,1c.29.13.56.28.85.42l0,0Z"/></g></g></svg>