<svg xmlns="http://www.w3.org/2000/svg" viewBox="0 0 28.57 28.47"><defs><style>.cls-1{fill:#a9ce41;}.cls-2{fill:#25ce4d;}.cls-3{fill:#60cc7a;}</style></defs><title>logo</title><g id="Layer_2" data-name="Layer 2"><g id="Logo"><path class="cls-1" d="M7,26.92c-.14-.12-.29-.23-.43-.36-.33-.31-.65-.62-1-.95s-.71-.68-1.06-1a15.7,15.7,0,0,1-2.35-2.86A14,14,0,0,1,.38,17.49a10.28,10.28,0,0,1-.21-1.08C.11,16,.09,15.64.05,15.26a9.23,9.23,0,0,1,0-1.39c0-.34,0-.69.08-1a6.2,6.2,0,0,1,.06-.62c.07-.42.14-.84.23-1.25A11.56,11.56,0,0,1,1,9.05,14.57,14.57,0,0,1,2.05,6.88a14.14,14.14,0,0,1,1.1-1.56A15.19,15.19,0,0,1,4.3,4.06a14.55,14.55,0,0,1,2-1.65,13.86,13.86,0,0,1,4-1.84C10.87.41,11.45.29,12,.18A7.34,7.34,0,0,1,13.08.06c.42,0,.83,0,1.25-.06.26,0,.53,0,.79,0a15,15,0,0,1,2.22.29,13.12,13.12,0,0,1,1.76.5A14.54,14.54,0,0,1,23,3a14.29,14.29,0,0,1,3,3.19,13.53,13.53,0,0,1,1.56,2.9,11.68,11.68,0,0,1,.57,1.73c.11.46.2.93.28,1.4s.08.64.11,1c0,.14,0,.29,0,.43s0,.5,0,.75,0,.73,0,1.09A12.43,12.43,0,0,1,28.05,18c-.1.33-.21.67-.33,1a13.24,13.24,0,0,1-1.13,2.41,15.28,15.28,0,0,1-2.45,3.1c-.21.19-.41.38-.63.56a15.61,15.61,0,0,1-2.24,1.54,12.37,12.37,0,0,1-2.06.95,13.52,13.52,0,0,1-1.85.55c-.42.09-.85.15-1.27.21a7.72,7.72,0,0,1-1.18.09l-.85,0a4.35,4.35,0,0,1-.51,0c-.42,0-.83-.09-1.24-.12a4.56,4.56,0,0,1-1.61-.49A6.24,6.24,0,0,1,7.79,25a4.56,4.56,0,0,1-.46-1.28c0-.21-.06-.43-.08-.64,0-.37,0-.75-.06-1.12a7,7,0,0,1,0-.92c0-.45.1-.9.18-1.34a2.52,2.52,0,0,1,.21-.58c.05-.15.12-.29.18-.44a7.36,7.36,0,0,1,1.4-2c.23-.24.47-.47.71-.7a2.6,2.6,0,0,1,.7-.49A9,9,0,0,1,13,14.73a7,7,0,0,1,1.59-.11,4.8,4.8,0,0,1,1.41.25l.2.1a6.57,6.57,0,0,1,.62.4,3.5,3.5,0,0,1,1.07,1.39,2.87,2.87,0,0,1,.24,1.16,4.09,4.09,0,0,1-.44,1.88,3.61,3.61,0,0,1-.35.6,3.18,3.18,0,0,1-.84.67,4.54,4.54,0,0,1-1.71.56l-.45,0-1,0c-.2,0-.39,0-.59.06a7,7,0,0,0-1.29.25,2.84,2.84,0,0,0-.49.17,3.52,3.52,0,0,0-.68.39,1.43,1.43,0,0,0-.55.94,2,2,0,0,0,.09,1,.92.92,0,0,0,.21.34,5.11,5.11,0,0,0,.57.57,6.11,6.11,0,0,0,1.41.84,9.94,9.94,0,0,0,1.77.59,4.16,4.16,0,0,0,1.61.06c.25-.05.51-.06.76-.1a12.14,12.14,0,0,0,2.14-.52,12.63,12.63,0,0,0,3.72-2,12.78,12.78,0,0,0,1.3-1.14,12.37,12.37,0,0,0,3.14-5.23,11,11,0,0,0,.4-1.72c.05-.32.1-.64.12-1s0-.44,0-.65,0-.72,0-1.07,0-.43,0-.65-.06-.42-.09-.63a11.67,11.67,0,0,0-.42-1.84,13.41,13.41,0,0,0-1-2.27A11.6,11.6,0,0,0,24.08,6c-.2-.24-.4-.48-.62-.7s-.53-.52-.81-.76a11.9,11.9,0,0,0-2.82-1.89,12.69,12.69,0,0,0-2.55-.91c-.34-.08-.69-.16-1-.22s-.56-.07-.84-.1l-.91,0a2.81,2.81,0,0,0-.41,0c-.39,0-.77,0-1.16.06a12.86,12.86,0,0,0-2.21.42,11.89,11.89,0,0,0-4.14,2A11.85,11.85,0,0,0,5.1,5.18,12.08,12.08,0,0,0,3.28,7.51a13.89,13.89,0,0,0-1.14,2.4,16.75,16.75,0,0,0-.52,1.84c-.07.29-.08.59-.13.88a4.89,4.89,0,0,0-.08.85c0,.38,0,.75,0,1.12,0,.19,0,.37,0,.56s.06.5.1.75.08.6.15.89a11.8,11.8,0,0,0,.41,1.47,13.76,13.76,0,0,0,1.53,3,12.45,12.45,0,0,0,1.3,1.6,9.54,9.54,0,0,0,1,1c.12.1.23.22.35.34a.2.2,0,0,1,0,.11,3.13,3.13,0,0,0,0,.43,2.91,2.91,0,0,0,.08.66c.1.32.24.63.36.94l.21.45a.42.42,0,0,0,0,.1Z"/><path class="cls-2" d="M9.26,16.23a4.14,4.14,0,0,1-.61,0A6.15,6.15,0,0,1,7.46,16c-.35-.13-.69-.26-1-.41a4.74,4.74,0,0,1-1.35-.85,5.07,5.07,0,0,1-1.34-1.64,4.5,4.5,0,0,1-.41-1.37,5.07,5.07,0,0,1,0-1c0-.26.07-.51.1-.76s0-.38.08-.57A5.64,5.64,0,0,1,4,7.94a2,2,0,0,0,.11-.26,3.18,3.18,0,0,1,.48-.89A5,5,0,0,1,5.76,5.58a6.54,6.54,0,0,1,.52-.4,9.38,9.38,0,0,1,1.56-.84,3.61,3.61,0,0,1,.79-.24c.25,0,.5-.09.76-.12a4.38,4.38,0,0,1,.51,0l.7,0,.64,0,.76,0,.76,0H13c.1,0,.21,0,.31,0,.56,0,1.13,0,1.7,0,.24,0,.49,0,.73,0l.72,0,1.12.06.59,0,1,.08a2.64,2.64,0,0,1,1.41.56,4.22,4.22,0,0,1,1.3,1.57,3.07,3.07,0,0,1,.27,1.08,3.34,3.34,0,0,1-.85,2.29,5.49,5.49,0,0,1-.53.55,3,3,0,0,1-1.2.69,2.33,2.33,0,0,1-.37,0l-.79,0h-.49l-3.75,0-1.06,0H11.71l-.89,0-.61,0-.3,0-.49,0-.41,0-.66,0-.71.1a6,6,0,0,0-1.71.57,2.66,2.66,0,0,0-.95.78,1.45,1.45,0,0,0-.29,1.12,2,2,0,0,0,.29.74,3.55,3.55,0,0,0,.69.76,3.29,3.29,0,0,0,.73.48,8.51,8.51,0,0,0,1.24.47,9.62,9.62,0,0,0,1.17.22A3.54,3.54,0,0,1,9.26,16.23Z"/><path class="cls-3" d="M9.26,16.23a3.54,3.54,0,0,0-.45-.08,9.62,9.62,0,0,1-1.17-.22,8.51,8.51,0,0,1-1.24-.47A3.29,3.29,0,0,1,5.67,15,3.55,3.55,0,0,1,5,14.22a2,2,0,0,1-.29-.74A1.45,1.45,0,0,1,5,12.36a2.66,2.66,0,0,1,.95-.78A6,6,0,0,1,7.64,11l.71-.1.66,0,.41,0,.49,0,.2,0H9.73L8.94,11l-.53.06a3.78,3.78,0,0,0-.88.22,3.34,3.34,0,0,0-1,.54,1.83,1.83,0,0,0-.61.89,1.52,1.52,0,0,0,.19,1.19,2.21,2.21,0,0,0,.44.52l.35.32a5.8,5.8,0,0,0,1.54,1c.29.13.56.28.85.42l0,0Z"/></g></g></svg>