<svg width="96" height="98" viewBox="0 0 96 98" fill="none" xmlns="http://www.w3.org/2000/svg">
<path d="M92.5731 49.0691C94.1814 46.4746 95.3188 43.8076 95.7768 41.5588C96.5071 37.9664 95.3035 36.4827 94.1666 35.8709C93.7819 35.6632 93.3701 35.535 92.9378 35.4827C94.354 33.0818 95.3549 30.6508 95.7772 28.5765C96.5075 24.984 95.304 23.5004 94.1688 22.8902C93.8132 22.6984 93.3757 22.5446 92.8515 22.4971C93.3997 21.2135 93.8032 19.9725 94.0346 18.8394C94.7649 15.2469 93.5614 13.7633 92.4245 13.1515C91.5735 12.6934 89.9359 12.3259 87.4778 13.8773C86.0751 9.24989 83.7978 6.65221 81.0504 6.65221C78.303 6.65221 76.0257 9.24948 74.623 13.8773C72.1636 12.3243 70.5295 12.6951 69.6768 13.1515C68.5399 13.7633 67.3363 15.2465 68.0667 18.8394C68.2963 19.9692 68.6981 21.2054 69.2532 22.4955C68.7273 22.5446 68.288 22.6984 67.9342 22.8886C64.7336 24.6112 66.2034 30.0139 68.5652 34.4177L58.6731 41.1799C57.4735 38.0398 57.1301 34.1135 57.2538 30.1494C58.9515 28.923 64.0743 23.9073 62.184 8.8876L62.8886 7.57396C64.0359 5.43309 63.1012 2.82283 60.8052 1.75301C59.0043 0.916462 56.8425 1.24264 55.428 2.5644L54.6537 3.28371C53.7582 4.11579 52.5159 4.50567 51.2613 4.34542C47.1613 3.82937 39.5905 4.17908 33.5318 11.7153C31.763 10.4674 29.6126 9.61542 27.009 9.41501C27.5101 7.73258 28.9886 5.27527 33.2145 3.03339C34.0503 2.58956 34.3432 1.59763 33.8664 0.819501C33.3897 0.0397505 32.3226 -0.229633 31.4885 0.212577C25.7422 3.2622 23.9683 6.87413 23.468 9.30709C12.4691 9.82111 7.67626 19.6929 5.62255 28.2483C5.47613 28.8536 5.71449 29.4828 6.23522 29.8695C6.75594 30.2561 7.46579 30.3307 8.07018 30.0674C8.91642 29.6938 9.6999 29.3132 10.4699 28.9303C10.4555 29.1883 10.4089 29.4419 10.4089 29.7011V46.9899C7.50675 47.9648 5.1759 49.6655 3.56448 52.0907H1.74302C0.779566 52.0907 0 52.8165 0 53.7135V68.3186C0 69.2156 0.779566 69.9414 1.74302 69.9414V79.6781C0.779566 79.6781 0 80.4039 0 81.3009V95.906C0 96.803 0.779566 97.5288 1.74302 97.5288H94.1231C95.0865 97.5288 95.8661 96.803 95.8661 95.906V81.3009C95.8661 80.4039 95.0865 79.6781 94.1231 79.6781V69.9414C95.0865 69.9414 95.8661 69.2156 95.8661 68.3186V53.7135C95.8661 52.8165 95.0865 52.0907 94.1231 52.0907H91.2183C91.6297 50.6756 91.9739 50.0014 92.1622 49.7137C92.299 49.5048 92.4354 49.2894 92.5731 49.0691V49.0691ZM81.6862 49.2103C81.5093 50.1925 81.2312 51.1519 80.9018 52.0915H48.598L59.7777 44.4494C61.5486 46.2158 63.8494 47.3883 66.3594 47.781C66.9943 47.8792 67.6257 47.9283 68.2523 47.9283C73.9014 47.9283 78.991 44.01 80.3746 38.4431C81.8631 41.8051 82.3494 45.5314 81.6862 49.2103V49.2103ZM38.3456 29.3047C38.5826 29.413 38.8262 29.5173 39.0449 29.635C39.6084 29.9376 40.3047 29.9218 40.8507 29.5952C41.3989 29.2702 41.7052 28.6889 41.649 28.0864C41.6176 27.755 41.239 24.0838 39.6428 20.0796C40.5365 19.4889 41.4015 18.9217 42.2094 18.3988C41.7976 21.3815 41.646 25.3954 43.1166 28.1323C43.4827 28.8122 44.2997 29.1688 45.098 28.9802C45.3917 28.9128 50.47 27.6868 54.2062 24.3451C53.471 30.6245 53.4218 37.9083 55.7627 43.1678L53.7617 44.5358C52.2954 36.1379 46.8223 34.782 43.4914 34.782C43.4317 34.782 43.3707 34.7837 43.3127 34.7837C41.5009 34.8088 39.7992 35.3261 38.346 36.1728V29.3047H38.3456ZM50.7933 7.563C53.156 7.85916 55.4472 7.13499 57.1153 5.58036L57.8913 4.85943C58.2469 4.52676 58.7934 4.44725 59.2444 4.65659C59.823 4.92597 60.0579 5.5836 59.7686 6.12237L58.8291 7.87336C58.6757 8.16019 58.6164 8.48191 58.6587 8.80038C59.4313 14.5657 59.0945 18.6702 58.3763 21.5466C58.0613 19.781 57.568 18.5704 57.5236 18.4612C57.2582 17.8227 56.6743 17.4296 55.8555 17.4247C55.1217 17.4421 54.4768 17.886 54.2436 18.5339C52.8462 22.4436 48.1736 24.5321 45.7447 25.3768C44.9224 22.1486 45.8619 17.1472 46.3678 15.2611C46.5412 14.6112 46.2676 13.9268 45.6784 13.5418C45.091 13.1568 44.3067 13.1454 43.7088 13.5178C42.131 14.4964 40.2742 15.6907 38.2009 17.0543C37.5943 15.9869 36.8814 14.9524 36.0509 14.003C41.1122 7.45995 47.4241 7.13702 50.7933 7.563V7.563ZM23.5735 12.5579C23.8789 13.0513 24.445 13.3661 25.0703 13.3661C25.1757 13.3661 25.2829 13.3568 25.3901 13.3377C25.8751 13.2549 26.269 12.986 26.5209 12.6281C33.8277 13.0164 36.6592 21.0293 37.668 25.4705C34.9393 24.3848 32.8219 23.3645 32.3931 19.4467C32.2942 18.5546 31.4214 17.9127 30.4815 17.9967C29.583 18.0823 28.9154 18.7874 28.9154 19.6102C28.9154 19.6658 28.9189 19.7209 28.9241 19.7765C29.3616 23.7621 26.3318 27.2044 24.5888 28.8256C19.9349 23.8858 21.1995 20.7717 21.2439 20.6642C21.6152 19.9128 21.3206 19.0223 20.5615 18.5959C20.2805 18.4389 19.9693 18.3631 19.663 18.3631C19.137 18.3631 18.6194 18.585 18.279 18.9984C16.221 21.4926 13.5982 23.5592 10.0049 25.477C12.7166 17.2425 17.2607 12.9243 23.5735 12.5579V12.5579ZM13.894 29.7019C13.894 28.697 14.057 27.7144 14.332 26.761C15.6323 25.937 16.8345 25.0855 17.9008 24.1727C18.4573 26.3439 19.9092 29.1201 23.2558 32.2452C23.5926 32.5604 24.0406 32.7223 24.4899 32.7223C24.8659 32.7223 25.2424 32.6099 25.5588 32.3815C25.7766 32.2245 29.4209 29.5465 31.3208 25.4482C32.357 26.5484 33.6085 27.2596 34.8595 27.8316V39.3859C34.8595 39.4837 34.9014 39.5685 34.9192 39.6618C34.7 40.0833 34.5166 40.5235 34.3776 40.9819C34.2381 41.4367 34.0407 41.898 33.7871 42.3495C31.9095 45.6965 27.1301 47.4796 22.4253 46.5903C19.2965 45.9955 16.4445 45.8876 13.894 46.2044V29.7019ZM21.7307 49.7713C27.9232 50.9345 34.2978 48.4512 36.8784 43.8506C37.2427 43.2007 37.5285 42.5321 37.7311 41.8647C38.407 39.6427 40.7217 38.0662 43.3655 38.0297C47.3979 37.9724 49.7314 40.5003 50.4447 45.7602L50.4975 46.1692C50.5201 46.3611 50.5271 46.5489 50.5415 46.7379L42.7101 52.0911H7.97475C11.5906 48.7681 17.2908 48.9291 21.7307 49.7713V49.7713ZM76.692 79.6785V70.311C76.692 70.1986 76.6898 70.0672 76.6881 69.9418H80.178V79.6785H76.692ZM73.2016 69.9418C73.2033 70.0684 73.2059 70.199 73.2059 70.311V79.6785H68.1582C68.6196 77.9697 68.8654 76.2119 68.8654 74.4296C68.8654 74.3521 68.8593 72.679 68.5547 69.9418H73.2016ZM65.0469 69.9418C65.3693 72.6945 65.3794 74.4122 65.3794 74.4296C65.3794 76.2204 65.0961 77.9839 64.5492 79.6785H61.5678C62.3339 77.8781 62.7474 75.9526 62.7474 73.9988C62.7474 73.1018 61.9678 72.376 61.0044 72.376C60.0409 72.376 59.2614 73.1018 59.2614 73.9988C59.2614 75.9863 58.7184 77.9336 57.7279 79.6785H39.3936C38.7447 76.4869 38.3952 73.2215 38.3599 69.9418H65.0469ZM12.2003 79.6785H5.22819V69.9418H12.2003V79.6785ZM92.3792 94.2836H3.48517V82.9241H92.3792V94.2836ZM90.6361 79.6785H83.6641V69.9418H90.6361V79.6785ZM92.3792 66.6962H3.48517V55.3367H92.3792V66.6962ZM84.56 52.0911C84.7883 51.3199 84.9818 50.5373 85.1243 49.7458C86.3017 43.2128 84.3587 36.5566 79.9153 31.4687C79.9026 31.4537 79.8883 31.4419 79.8752 31.4273C79.3183 30.7928 78.737 30.1729 78.1025 29.5911C77.4933 29.0301 76.5347 28.9652 75.8471 29.439L71.4263 32.4611C69.5818 28.8414 69.4083 26.3788 69.6938 25.7386C69.9731 25.7845 70.659 26.0303 71.7004 26.8543C72.3453 27.3631 73.2648 27.3314 73.9202 26.8259C74.5703 26.3204 74.7115 25.4108 74.2879 24.7276C71.4128 20.0922 71.0912 16.7691 71.4368 16.0019C71.8128 16.0575 72.846 16.4725 74.4208 17.9781C74.8753 18.4122 75.5547 18.5785 76.1739 18.3996C76.797 18.2251 77.2633 17.7419 77.3822 17.146C78.4786 11.7246 80.3593 9.89901 81.0487 9.89901C81.738 9.89901 83.6188 11.7246 84.7151 17.146C84.8341 17.7419 85.3008 18.2251 85.9235 18.3996C86.5414 18.5785 87.222 18.4122 87.6765 17.9781C89.2509 16.4725 90.2841 16.0575 90.6605 16.0019C91.0061 16.7691 90.6828 20.0938 87.765 24.7958C87.3344 25.479 87.4961 26.3504 88.1462 26.8608C88.7999 27.3712 89.7498 27.3679 90.3965 26.8543C91.4384 26.0303 92.1243 25.7829 92.4031 25.7386C92.7487 26.5074 92.4271 29.8289 89.552 34.4644C88.4456 36.2486 87.181 37.8495 85.8938 39.0918C85.5805 39.3944 85.4053 39.7985 85.4053 40.2184V40.6148C85.4053 41.2963 85.8633 41.9049 86.5492 42.1394C87.2368 42.3739 88.0081 42.1836 88.4813 41.6606C90.5717 39.3547 91.9622 38.7875 92.4031 38.721C92.7487 39.4865 92.4271 42.8096 89.5555 47.4418C89.4348 47.6353 89.3154 47.8252 89.186 48.0203C88.6125 48.8983 88.1018 50.2553 87.6264 52.0915H84.56V52.0911ZM9.03189 60.5816C9.03189 59.6233 9.86636 58.8464 10.8952 58.8464C11.9244 58.8464 12.7589 59.6233 12.7589 60.5816C12.7589 61.5398 11.9244 62.3163 10.8952 62.3163C9.86593 62.3163 9.03189 61.5394 9.03189 60.5816ZM82.2387 60.5816C82.2387 59.6233 83.0732 58.8464 84.102 58.8464C85.1308 58.8464 85.9657 59.6233 85.9657 60.5816C85.9657 61.5398 85.1313 62.3163 84.102 62.3163C83.0727 62.3163 82.2387 61.5394 82.2387 60.5816ZM9.03189 88.169C9.03189 87.2107 9.86636 86.4338 10.8952 86.4338C11.9244 86.4338 12.7589 87.2107 12.7589 88.169C12.7589 89.1272 11.9244 89.9037 10.8952 89.9037C9.86593 89.9037 9.03189 89.1268 9.03189 88.169ZM82.2387 88.169C82.2387 87.2107 83.0732 86.4338 84.102 86.4338C85.1308 86.4338 85.9657 87.2107 85.9657 88.169C85.9657 89.1272 85.1313 89.9037 84.102 89.9037C83.0727 89.9037 82.2387 89.1268 82.2387 88.169ZM48.8037 61.8279C48.8037 60.9309 49.5832 60.2051 50.5467 60.2051H71.4629C72.4264 60.2051 73.2059 60.9309 73.2059 61.8279C73.2059 62.7249 72.4264 63.4506 71.4629 63.4506H50.5467C49.5832 63.4506 48.8037 62.7249 48.8037 61.8279ZM22.6584 89.4153C22.6584 88.5183 23.4379 87.7925 24.4014 87.7925H34.8595C35.823 87.7925 36.6025 88.5183 36.6025 89.4153C36.6025 90.3123 35.823 91.0381 34.8595 91.0381H24.4014C23.4379 91.0381 22.6584 90.3123 22.6584 89.4153ZM26.1444 58.5823C26.1444 57.6853 26.924 56.9595 27.8874 56.9595H36.6025C37.566 56.9595 38.3456 57.6853 38.3456 58.5823C38.3456 59.4793 37.566 60.2051 36.6025 60.2051H27.8874C26.924 60.2051 26.1444 59.4793 26.1444 58.5823ZM40.0886 89.4153C40.0886 88.5183 40.8681 87.7925 41.8316 87.7925H45.3176C46.2811 87.7925 47.0607 88.5183 47.0607 89.4153C47.0607 90.3123 46.2811 91.0381 45.3176 91.0381H41.8316C40.8681 91.0381 40.0886 90.3123 40.0886 89.4153ZM66.2339 86.1697C66.2339 85.2727 67.0134 84.5469 67.9769 84.5469H71.4629C72.4264 84.5469 73.2059 85.2727 73.2059 86.1697C73.2059 87.0667 72.4264 87.7925 71.4629 87.7925H67.9769C67.0134 87.7925 66.2339 87.0667 66.2339 86.1697Z" fill="white"/>
</svg>
