<svg width="96" height="92" viewBox="0 0 96 92" fill="none" xmlns="http://www.w3.org/2000/svg">
<path d="M95.9394 89.8189L83.3494 48.7937C83.1555 48.1644 82.5378 47.7307 81.8355 47.7307H79.7239C82.4229 43.6623 84.983 39.0121 84.983 36.0092C84.983 29.5459 79.3352 24.2878 72.393 24.2878C65.4508 24.2878 59.8031 29.5459 59.8031 36.0092C59.8031 39.0121 62.3632 43.6623 65.0621 47.7307H42.4919V19.8922C42.4919 15.5446 39.082 11.934 34.6232 11.2333V8.7773L35.0843 9.2066C35.3916 9.49268 35.7944 9.6359 36.1969 9.6359C36.5994 9.6359 37.0023 9.49268 37.3096 9.2066C37.9241 8.63444 37.9241 7.70698 37.3096 7.13483L35.2747 5.24034L37.3096 3.34586C37.9241 2.7737 37.9241 1.84624 37.3096 1.27409C36.695 0.701932 35.6988 0.701932 35.0843 1.27409L33.0494 3.16857L31.0146 1.27409C30.4 0.701932 29.4039 0.701932 28.7893 1.27409C28.1748 1.84624 28.1748 2.7737 28.7893 3.34586L30.8242 5.24034L28.7893 7.13483C28.1748 7.70698 28.1748 8.63444 28.7893 9.2066C29.0966 9.49268 29.4995 9.6359 29.902 9.6359C30.3044 9.6359 30.7073 9.49268 31.0146 9.2066L31.4757 8.7773V11.2333C27.0169 11.934 23.607 15.5446 23.607 19.8922V47.7307H23.4657C23.4465 47.7307 23.4307 47.7402 23.4118 47.7406C21.6028 46.8036 19.5247 46.2655 17.312 46.2655C10.3698 46.2655 4.72206 51.5237 4.72206 57.987C4.72206 60.0126 5.89725 62.7892 7.48358 65.6298L0.0606302 89.8193C-0.177399 90.5962 0.306528 91.4075 1.14258 91.6306C1.28736 91.6676 1.43175 91.6863 1.57457 91.6863C2.25994 91.6863 2.89022 91.2669 3.08851 90.6233L9.65928 69.2111C12.435 73.4638 15.4609 77.1941 16.0628 77.926C16.3607 78.2879 16.8218 78.4996 17.312 78.4996C17.8022 78.4996 18.2633 78.2879 18.5616 77.926C19.7218 76.515 29.902 63.9752 29.902 57.987C29.902 55.2156 28.8582 52.6699 27.1243 50.6611H32.9334L29.9063 90.1167C29.8433 90.9237 30.4964 91.6247 31.3632 91.6819C31.4017 91.6848 31.4399 91.6863 31.4769 91.6863C32.2944 91.6863 32.9861 91.0969 33.0443 90.3255L36.0879 50.6611H47.2131V90.2211C47.2131 91.031 47.917 91.6863 48.7869 91.6863C49.6568 91.6863 50.3606 91.031 50.3606 90.2211V50.6611H59.9121L62.9553 90.3255C63.0135 91.0965 63.7052 91.6863 64.5227 91.6863C64.5597 91.6863 64.5979 91.6848 64.6364 91.6819C65.5032 91.6247 66.1563 90.9237 66.0933 90.1167L63.0662 50.6611H67.0911C69.0307 53.3556 70.7115 55.4233 71.1435 55.9482C71.4417 56.3101 71.9028 56.5218 72.393 56.5218C72.8832 56.5218 73.3443 56.3101 73.6426 55.9482C74.0742 55.4233 75.7553 53.3559 77.695 50.6611H80.6493L92.9119 90.6233C93.1102 91.2672 93.7401 91.6863 94.4243 91.6863C94.5686 91.6863 94.713 91.6676 94.8578 91.6306C95.6935 91.4072 96.1774 90.5958 95.9394 89.8189ZM33.0494 14.0315C36.5211 14.0315 39.3444 16.66 39.3444 19.8922V24.2878H26.7545V19.8922C26.7545 16.66 29.5778 14.0315 33.0494 14.0315ZM26.7545 33.0789H39.3444V47.7307H37.7707V40.4048C37.7707 37.981 35.6528 36.0092 33.0494 36.0092C30.4461 36.0092 28.3282 37.981 28.3282 40.4048V47.7307H26.7545V33.0789ZM17.312 74.5821C13.8525 70.1506 7.86954 61.7174 7.86954 57.987C7.86954 53.1395 12.1053 49.1959 17.312 49.1959C22.5187 49.1959 26.7545 53.1395 26.7545 57.987C26.7545 61.7174 20.7715 70.1506 17.312 74.5821ZM72.393 52.6043C68.9335 48.1728 62.9506 39.7396 62.9506 36.0092C62.9506 31.1617 67.1863 27.2181 72.393 27.2181C77.5998 27.2181 81.8355 31.1617 81.8355 36.0092C81.8355 39.7396 75.8525 48.1728 72.393 52.6043ZM75.8139 58.7009L81.8107 89.9636C81.963 90.7606 81.394 91.5218 80.5383 91.6636C80.4447 91.6793 80.3522 91.6863 80.2602 91.6863C79.5119 91.6863 78.8493 91.1885 78.7124 90.4786L72.7156 59.2159C72.5634 58.4189 73.1323 57.6577 73.988 57.516C74.8429 57.3746 75.6621 57.9039 75.8139 58.7009V58.7009ZM18.8614 82.2743L17.2876 90.4786C17.1523 91.1885 16.4885 91.6863 15.7398 91.6863C15.6478 91.6863 15.5553 91.679 15.4617 91.6636C14.6056 91.5218 14.037 90.7606 14.1893 89.9636L15.763 81.7593C15.9153 80.9622 16.7344 80.4271 17.589 80.5747C18.4447 80.7161 19.0132 81.4772 18.8614 82.2743V82.2743ZM14.1645 18.427C14.1645 17.6179 14.8692 16.9618 15.7383 16.9618C16.6074 16.9618 17.312 17.6179 17.312 18.427C17.312 19.2362 16.6074 19.8922 15.7383 19.8922C14.8692 19.8922 14.1645 19.2362 14.1645 18.427ZM4.72206 33.0789C4.72206 32.2697 5.4267 31.6137 6.2958 31.6137C7.1649 31.6137 7.86954 32.2697 7.86954 33.0789C7.86954 33.888 7.1649 34.5441 6.2958 34.5441C5.4267 34.5441 4.72206 33.888 4.72206 33.0789ZM55.8687 18.427C58.9056 18.427 61.3768 16.1263 61.3768 13.2989C61.3768 10.4714 58.9056 8.17071 55.8687 8.17071C52.8318 8.17071 50.3606 10.4714 50.3606 13.2989C50.3606 16.1263 52.8318 18.427 55.8687 18.427ZM55.8687 11.1011C57.1706 11.1011 58.2293 12.0868 58.2293 13.2989C58.2293 14.5109 57.1706 15.4966 55.8687 15.4966C54.5668 15.4966 53.5081 14.5109 53.5081 13.2989C53.5081 12.0868 54.5668 11.1011 55.8687 11.1011ZM72.393 30.1485C68.9213 30.1485 66.098 32.777 66.098 36.0092C66.098 39.2414 68.9213 41.87 72.393 41.87C75.8647 41.87 78.688 39.2414 78.688 36.0092C78.688 32.777 75.8647 30.1485 72.393 30.1485ZM72.393 38.9396C70.658 38.9396 69.2455 37.6246 69.2455 36.0092C69.2455 34.3939 70.658 33.0789 72.393 33.0789C74.1281 33.0789 75.5405 34.3939 75.5405 36.0092C75.5405 37.6246 74.1281 38.9396 72.393 38.9396ZM17.312 52.1263C13.8403 52.1263 11.017 54.7548 11.017 57.987C11.017 61.2192 13.8403 63.8478 17.312 63.8478C20.7837 63.8478 23.607 61.2192 23.607 57.987C23.607 54.7548 20.7837 52.1263 17.312 52.1263ZM17.312 60.9174C15.577 60.9174 14.1645 59.6024 14.1645 57.987C14.1645 56.3717 15.577 55.0566 17.312 55.0566C19.0471 55.0566 20.4595 56.3717 20.4595 57.987C20.4595 59.6024 19.0471 60.9174 17.312 60.9174Z" fill="white"/>
</svg>
