<svg width="96" height="87" viewBox="0 0 96 87" fill="none" xmlns="http://www.w3.org/2000/svg">
<path d="M75.75 11.0435C78.6446 11.0435 81 8.85062 81 6.15567C81 3.46071 78.6446 1.26781 75.75 1.26781C72.8554 1.26781 70.5 3.46071 70.5 6.15567C70.5 8.85062 72.8554 11.0435 75.75 11.0435ZM75.75 4.06087C76.9909 4.06087 78 5.00039 78 6.15567C78 7.31095 76.9909 8.25046 75.75 8.25046C74.5091 8.25046 73.5 7.31095 73.5 6.15567C73.5 5.00039 74.5091 4.06087 75.75 4.06087ZM25.8769 15.4604C26.7626 15.4604 27.4807 16.129 27.4807 16.9536C27.4807 17.7783 26.7626 18.4465 25.8769 18.4465C24.9911 18.4465 24.2734 17.7779 24.2734 16.9536C24.2734 16.1293 24.9915 15.4604 25.8769 15.4604ZM19.3185 5.04822L20.379 4.06087L19.3185 3.07352C18.7327 2.52818 18.7327 1.64417 19.3185 1.09883C19.9042 0.553483 20.8537 0.553483 21.4395 1.09883L22.5 2.08618L23.5605 1.09883C24.1463 0.553483 25.0958 0.553483 25.6815 1.09883C26.2673 1.64417 26.2673 2.52818 25.6815 3.07352L24.621 4.06087L25.6815 5.04822C26.2673 5.59356 26.2673 6.47757 25.6815 7.02291C25.3886 7.29558 25.0046 7.43209 24.621 7.43209C24.2374 7.43209 23.8534 7.29558 23.5605 7.02291L22.5 6.03556L21.4395 7.02291C21.1466 7.29558 20.7626 7.43209 20.379 7.43209C19.9954 7.43209 19.6114 7.29558 19.3185 7.02291C18.7324 6.47757 18.7324 5.59391 19.3185 5.04822ZM94.5 75.2839H81V66.984C81 64.6301 78.9435 62.7152 76.4149 62.7152H75V36.9858C77.6441 35.9053 79.5 33.4509 79.5 30.595C79.5 29.823 78.8291 29.1984 78 29.1984H75V22.2158C75 21.4438 74.3291 20.8192 73.5 20.8192C72.6709 20.8192 72 21.4438 72 22.2158V29.1984H69H52.5V26.8449C56.0411 25.2721 58.5 21.9152 58.5 18.0262C58.5 17.0664 58.3384 16.1342 58.0489 15.2331H63C63.8291 15.2331 64.5 14.6085 64.5 13.8366C64.5 13.0647 63.8291 12.4401 63 12.4401H58.2296L56.6704 5.18333C56.5298 4.5315 55.9144 4.06087 55.1996 4.06087H40.8004C40.0856 4.06087 39.4702 4.5315 39.3296 5.18333L37.7704 12.4401H33C32.1709 12.4401 31.5 13.0647 31.5 13.8366C31.5 14.6085 32.1709 15.2331 33 15.2331H37.9523C37.6631 16.1335 37.5 17.0654 37.5 18.0262C37.5 21.9155 39.9589 25.2721 43.5 26.8449V29.1984H27H18C17.1709 29.1984 16.5 29.823 16.5 30.595C16.5 34.4448 19.8649 37.5776 24 37.5776H25.5C25.5 38.3495 26.1709 38.9741 27 38.9741H34.5V50.6799C33.3109 50.337 32.0527 50.1464 30.75 50.1464H21.75C20.3655 50.1464 19.0177 50.3562 17.7615 50.7437C16.9087 49.5106 15.7196 48.2216 14.1709 47.5007C11.0378 46.0441 8.78025 46.9797 7.9395 47.7625C7.65825 48.0244 7.5 48.3791 7.5 48.7499C7.5 51.1166 7.98038 52.9206 8.65313 54.3014L5.25 58.5256H1.5C0.670875 58.5256 0 59.1502 0 59.9221V65.5082C0 66.1464 0.46575 66.7043 1.131 66.8625L3.10275 67.3275C3.56138 67.6575 4.03275 68.0202 4.51763 68.3914C6.28875 69.7523 8.27625 71.2787 10.5 71.9057V75.2839H1.5C0.670875 75.2839 0 75.9085 0 76.6805C0 82.0704 4.71075 86.4562 10.5 86.4562H85.5C91.2892 86.4562 96 82.0704 96 76.6805C96 75.9085 95.3291 75.2839 94.5 75.2839V75.2839ZM76.4149 65.5082C77.2894 65.5082 78 66.1698 78 66.984V75.2839H75V65.5082H76.4149ZM69 75.2839V66.984C69 66.1698 69.7106 65.5082 70.5851 65.5082H72V75.2839H69ZM72 62.7152H70.5851C68.0569 62.7152 66 64.6298 66 66.984V75.2839H58.5V56.8773L59.7056 57.1018C59.8039 57.1196 59.9018 57.129 60 57.129C60.3442 57.129 60.681 57.0187 60.9506 56.8127C61.2979 56.5467 61.5 56.1511 61.5 55.7325V38.9741H69C69.8291 38.9741 70.5 38.3495 70.5 37.5776H72V62.7152ZM72 34.7845H70.5V31.9915H76.2435C75.624 33.617 73.9556 34.7845 72 34.7845ZM54 31.9915H67.5V36.1811H60C59.1709 36.1811 58.5 36.8057 58.5 37.5776V54.0291L54 53.1919V31.9915ZM55.5 56.3187V75.2839H49.5V61.3186C49.5 60.5467 48.8291 59.9221 48 59.9221C47.1709 59.9221 46.5 60.5467 46.5 61.3186V75.2839H41.2905C42.585 72.2611 44.6126 66.3587 43.4707 61.0446C43.4647 61.0159 43.4576 60.9887 43.4501 60.9615C43.2818 59.1903 42.6844 57.5396 41.7735 56.0813L43.7944 55.7053C44.4945 55.5743 45 55.0014 45 54.336V41.7672H51V54.336C51 55.0014 51.5055 55.5743 52.2056 55.7053L55.5 56.3187ZM40.5 18.0262C40.5 17.0497 40.7216 16.1133 41.1364 15.2331H54.8655C55.2799 16.1147 55.5004 17.0514 55.5004 18.0262C55.5004 21.8761 52.1355 25.0088 48.0004 25.0088C43.8653 25.0088 40.5 21.8761 40.5 18.0262ZM48 27.8019C48.5107 27.8019 49.0088 27.7562 49.5 27.6905V29.1984H46.5V27.6905C46.9912 27.7562 47.4893 27.8019 48 27.8019ZM24 34.7845C22.0444 34.7845 20.376 33.617 19.7565 31.9915H25.5V34.7845H24ZM36 36.1811H28.5V31.9915H42V53.1905L39.7245 53.6143C39.0491 52.9897 38.3089 52.4276 37.5 51.9556V37.5776C37.5 36.8057 36.8291 36.1811 36 36.1811V36.1811ZM12.2858 69.4209L11.7131 69.3173C9.98475 68.9695 8.09363 67.5185 6.42638 66.2365C5.8215 65.7729 5.23537 65.3228 4.66725 64.9273C4.509 64.8169 4.329 64.7363 4.137 64.6898L3 64.4214V61.3186H6C6.47175 61.3186 6.91688 61.1112 7.19963 60.7593L10.4152 56.7673C11.688 58.0075 12.9191 58.4205 13.0253 58.4533C13.1835 58.5025 13.3432 58.5256 13.5 58.5256C14.1285 58.5256 14.7127 58.1558 14.9224 57.571C15.1845 56.8386 14.7596 56.0478 13.9747 55.8048C13.941 55.794 10.8296 54.6809 10.5236 49.5748C10.9777 49.4806 11.7277 49.4876 12.8291 49.999C14.82 50.9249 16.2101 53.7644 16.5776 54.779C16.8413 55.5101 17.6925 55.9029 18.4759 55.6588C19.2611 55.4148 19.6845 54.6251 19.422 53.894C19.4077 53.8538 19.3211 53.6203 19.1681 53.2715C20.004 53.0581 20.8654 52.9391 21.7496 52.9391H30.7496C35.8181 52.9391 40.0571 56.5858 40.4674 61.2691C40.4587 61.4681 40.4981 61.6674 40.5818 61.8528C41.5706 67.0475 39.0319 73.1588 38.0374 75.2836H37.5V73.8871C37.5 73.4321 37.3856 72.7049 36.5366 70.7595C36.5355 70.7564 36.5359 70.7532 36.5348 70.7504C35.6366 68.6951 34.3946 66.3783 34.3418 66.2798C33.9698 65.5896 33.0716 65.3127 32.3291 65.6552C31.5877 66.0001 31.2877 66.8391 31.6582 67.529C31.6691 67.5482 32.5069 69.1148 33.2786 70.7588C32.4577 70.9641 31.6151 71.0936 30.75 71.0936H21.75C21.0439 71.0936 20.3512 70.9969 19.668 70.8562C19.9916 70.2383 20.3449 69.6385 20.7484 69.0753C21.2085 68.4329 21.0221 67.5671 20.3325 67.1387C19.641 66.7117 18.711 66.8848 18.2524 67.5259C17.4146 68.6972 16.7171 69.9754 16.1813 71.3269C16.179 71.3328 16.1805 71.3391 16.1782 71.345C15.5561 72.92 15.2621 74.3158 15.1238 75.2832H13.5V70.7909C13.5 70.1234 12.9904 69.5477 12.2858 69.4209ZM18.1564 75.2839C18.2415 74.7878 18.372 74.1859 18.5756 73.5124C19.6099 73.7621 20.6734 73.8874 21.75 73.8874H30.75C31.9909 73.8874 33.2066 73.7237 34.377 73.4004C34.4869 73.7415 34.4985 73.8696 34.5 73.8874V75.2839H18.1564ZM85.5 83.6631H10.5C6.8775 83.6631 3.84825 81.26 3.15075 78.077H92.8489C92.1517 81.26 89.1225 83.6631 85.5 83.6631V83.6631ZM12 61.3186C12 62.0899 11.3284 62.7152 10.5 62.7152C9.67162 62.7152 9 62.0899 9 61.3186C9 60.5474 9.67162 59.9221 10.5 59.9221C11.3284 59.9221 12 60.5474 12 61.3186Z" fill="white"/>
</svg>
