<svg width="96" height="80" viewBox="0 0 96 80" fill="none" xmlns="http://www.w3.org/2000/svg">
<path d="M30.4899 9.6262C31.1929 9.97542 31.9613 10.1527 32.737 10.1527C33.2012 10.1527 33.6699 10.0893 34.1282 9.95992C35.3499 9.61503 36.354 8.84919 36.956 7.80189C37.5564 6.75458 37.6849 5.55087 37.3144 4.4149C36.944 3.27894 36.1214 2.34408 34.9965 1.78367C33.8716 1.22182 32.5787 1.10217 31.3586 1.4485C30.1385 1.7934 29.1343 2.55924 28.5324 3.60654C27.9305 4.65385 27.802 5.85756 28.1724 6.99352C28.5421 8.13093 29.3647 9.06579 30.4899 9.6262V9.6262ZM31.2626 4.96631C31.4743 4.59871 31.8266 4.32841 32.2559 4.20768C32.4161 4.16263 32.581 4.13993 32.7444 4.13993C33.0165 4.13993 33.2871 4.20191 33.5352 4.32589C33.9301 4.52302 34.2204 4.85098 34.3501 5.25066C34.4797 5.65033 34.4348 6.07272 34.2246 6.44176C34.0129 6.80936 33.6591 7.07966 33.2298 7.20039C32.8021 7.3186 32.3499 7.28076 31.9505 7.08362C31.5556 6.88649 31.2653 6.55709 31.1356 6.15741C31.0059 5.75773 31.0508 5.33499 31.2626 4.96631V4.96631ZM61.7068 27.9778L62.8921 26.8703L61.7022 25.7661C61.0976 25.2042 61.0945 24.2921 61.6991 23.7277C62.3037 23.1648 63.2839 23.1647 63.8885 23.7248L65.0781 24.8283L66.2641 23.7205C66.8676 23.1575 67.8473 23.1575 68.4535 23.7176C69.0582 24.2794 69.0613 25.1916 68.4566 25.756L67.2713 26.8635L68.4613 27.9677C69.0659 28.5296 69.069 29.4417 68.4644 30.0061C68.162 30.289 67.7657 30.4299 67.3681 30.4299C66.9721 30.4299 66.5773 30.289 66.275 30.009L65.0854 28.9055L63.8994 30.0133C63.597 30.2962 63.2007 30.4371 62.8031 30.4371C62.4071 30.4371 62.0123 30.2962 61.7099 30.0162C61.1049 29.4547 61.1022 28.5425 61.7068 27.9778ZM92.9029 61.6833V39.4571C92.9029 38.6602 92.2103 38.0155 91.3545 38.0155H89.8061V25.0413C89.8061 24.2445 89.1136 23.5997 88.2577 23.5997H82.0642C81.2083 23.5997 80.5158 24.2445 80.5158 25.0413V38.0155H71.2255C70.3697 38.0155 69.6771 38.6602 69.6771 39.4571V45.2234H60.3869C59.531 45.2234 58.8385 45.8681 58.8385 46.6649V55.3144H57.2537C56.9467 49.2436 54.7035 43.6394 51.0966 39.0138V27.9245C51.0966 27.1276 50.4041 26.4829 49.5482 26.4829H48.2534L42.3997 18.2364L45.7616 16.1497C46.4739 15.7075 46.6659 14.8137 46.1909 14.1506C45.7159 13.4889 44.7559 13.3101 44.0437 13.7509L34.7534 19.5172C34.0412 19.9594 33.8492 20.8532 34.3241 21.5163C34.6222 21.9329 35.1134 22.1582 35.6139 22.1582C35.9089 22.1582 36.2066 22.0792 36.4713 21.916L39.8228 19.8358L44.5415 26.4829H25.8583L20.0353 11.5745C19.7434 10.8256 18.8573 10.441 18.0514 10.7128C17.2486 10.9845 16.8328 11.8109 17.1259 12.5598L22.5642 26.4829H20.129H15.4838H10.8387C9.9828 26.4829 9.29029 27.1276 9.29029 27.9245C9.29029 28.7213 9.9828 29.366 10.8387 29.366H13.9354V36.0474C5.69959 39.7998 0 47.6596 0 56.756C0 69.4739 11.1139 79.8212 24.7741 79.8212C33.2697 79.8212 40.7762 75.8158 45.2414 69.7301H72.8134C73.2148 75.3559 78.2447 79.8212 84.3871 79.8212C90.7909 79.8212 96 74.9713 96 69.0094C95.9996 66.1817 94.8182 63.6121 92.9029 61.6833V61.6833ZM83.6126 26.4829H86.7093V38.0155H83.6126V26.4829ZM24.7741 76.938C12.821 76.938 3.09676 67.8846 3.09676 56.756C3.09676 45.6274 12.821 36.5739 24.7741 36.5739C36.7272 36.5739 46.4514 45.6274 46.4514 56.756C46.4514 67.8846 36.7272 76.938 24.7741 76.938ZM24.7741 33.6908C22.0691 33.6908 19.4709 34.1106 17.0322 34.8602V29.366H20.129H24.7741C40.9957 29.366 54.1933 41.6533 54.1933 56.756C54.1933 57.5528 54.8858 58.1975 55.7417 58.1975H60.3869C61.2427 58.1975 61.9352 57.5528 61.9352 56.756V48.1065H71.2255H89.8061V59.4542C88.1869 58.6549 86.3439 58.1975 84.3868 58.1975C78.7781 58.1975 74.0869 61.9179 73.0081 66.847H47.017C48.6219 63.7941 49.5482 60.3779 49.5482 56.756C49.5482 44.038 38.4343 33.6908 24.7741 33.6908V33.6908ZM84.3868 76.938C79.6917 76.938 75.8707 73.3806 75.8707 69.0094C75.8707 64.6381 79.6917 61.0807 84.3868 61.0807C89.0818 61.0807 92.9029 64.6381 92.9029 69.0094C92.9029 73.3806 89.0818 76.938 84.3868 76.938ZM84.3868 63.9638C81.3988 63.9638 78.9674 66.2275 78.9674 69.0094C78.9674 71.7912 81.3988 74.0549 84.3868 74.0549C87.3747 74.0549 89.8061 71.7912 89.8061 69.0094C89.8061 66.2275 87.3747 63.9638 84.3868 63.9638ZM84.3868 71.1717C83.1059 71.1717 82.0642 70.2019 82.0642 69.0094C82.0642 67.8168 83.1059 66.847 84.3868 66.847C85.6677 66.847 86.7093 67.8168 86.7093 69.0094C86.7093 70.2019 85.6677 71.1717 84.3868 71.1717ZM24.7741 48.1065C19.6513 48.1065 15.4838 51.9865 15.4838 56.756C15.4838 61.5254 19.6513 65.4054 24.7741 65.4054C29.8969 65.4054 34.0644 61.5254 34.0644 56.756C34.0644 51.9865 29.8969 48.1065 24.7741 48.1065ZM24.7741 62.5223C21.3584 62.5223 18.5806 59.9361 18.5806 56.756C18.5806 53.5759 21.3584 50.9897 24.7741 50.9897C28.1898 50.9897 30.9676 53.5759 30.9676 56.756C30.9676 59.9361 28.1898 62.5223 24.7741 62.5223ZM65.032 50.9897C65.032 50.1928 65.7245 49.5481 66.5804 49.5481H75.8707C76.7265 49.5481 77.419 50.1928 77.419 50.9897C77.419 51.7865 76.7265 52.4312 75.8707 52.4312H66.5804C65.7245 52.4312 65.032 51.7865 65.032 50.9897ZM65.032 55.3144C65.032 54.5176 65.7245 53.8728 66.5804 53.8728H75.8707C76.7265 53.8728 77.419 54.5176 77.419 55.3144C77.419 56.1112 76.7265 56.756 75.8707 56.756H66.5804C65.7245 56.756 65.032 56.1112 65.032 55.3144ZM65.032 59.6391C65.032 58.8423 65.7245 58.1975 66.5804 58.1975H75.8707C76.7265 58.1975 77.419 58.8423 77.419 59.6391C77.419 60.4359 76.7265 61.0807 75.8707 61.0807H66.5804C65.7245 61.0807 65.032 60.4359 65.032 59.6391ZM78.9674 7.74242C78.9674 6.94559 79.6599 6.30085 80.5158 6.30085C81.3701 6.30085 82.0642 5.65466 82.0642 4.85927C82.0642 4.61564 81.9903 4.3749 81.8451 4.14425C81.4158 3.4559 81.6651 2.57329 82.4029 2.17181C83.1469 1.77466 84.0887 2.00423 84.5215 2.69114C84.9403 3.36147 85.1609 4.11037 85.1609 4.85927C85.1609 5.36454 85.0673 5.85035 84.8962 6.30085H88.2577C90.8191 6.30085 92.9029 8.24085 92.9029 10.6256C92.9029 11.732 92.4538 12.7429 91.7176 13.5087C92.4538 14.2746 92.9029 15.2855 92.9029 16.3919C92.9029 18.7766 90.8191 20.7166 88.2577 20.7166C87.4018 20.7166 86.7093 20.0719 86.7093 19.275C86.7093 18.4782 87.4018 17.8334 88.2577 17.8334C89.112 17.8334 89.8061 17.1873 89.8061 16.3919C89.8061 15.5965 89.112 14.9503 88.2577 14.9503C87.4018 14.9503 86.7093 14.3056 86.7093 13.5087C86.7093 12.7119 87.4018 12.0671 88.2577 12.0671C89.112 12.0671 89.8061 11.421 89.8061 10.6256C89.8061 9.83018 89.112 9.184 88.2577 9.184H80.5158C79.6599 9.184 78.9674 8.53925 78.9674 7.74242ZM58.8385 4.85927C58.8385 2.47455 60.9222 0.534546 63.4836 0.534546H74.7516C75.6074 0.534546 76.2999 1.17929 76.2999 1.97612C76.2999 2.77295 75.6074 3.4177 74.7516 3.4177H63.4836C62.6293 3.4177 61.9352 4.06388 61.9352 4.85927C61.9352 5.65466 62.6293 6.30085 63.4836 6.30085H71.2255C72.0814 6.30085 72.7739 6.94559 72.7739 7.74242C72.7739 8.53925 72.0814 9.184 71.2255 9.184C70.3712 9.184 69.6771 9.83018 69.6771 10.6256C69.6771 11.421 70.3712 12.0671 71.2255 12.0671H80.5158C81.3717 12.0671 82.0642 12.7119 82.0642 13.5087C82.0642 14.3056 81.3717 14.9503 80.5158 14.9503C79.6615 14.9503 78.9674 15.5965 78.9674 16.3919C78.9674 17.1873 79.6615 17.8334 80.5158 17.8334C81.3717 17.8334 82.0642 18.4782 82.0642 19.275C82.0642 20.0719 81.3717 20.7166 80.5158 20.7166C77.9544 20.7166 75.8707 18.7766 75.8707 16.3919C75.8707 15.8866 75.9643 15.4008 76.1354 14.9503H71.2255C68.6641 14.9503 66.5804 13.0103 66.5804 10.6256C66.5804 10.1203 66.6741 9.63449 66.8452 9.184H63.4836C60.9222 9.184 58.8385 7.244 58.8385 4.85927Z" fill="white"/>
</svg>
