<svg width="109" height="30" viewBox="0 0 109 30" fill="none" xmlns="http://www.w3.org/2000/svg">
<g clip-path="url(#clip0)">
<path d="M7.23566 28.3707C7.07951 28.2509 6.92961 28.1232 6.78654 27.9882C6.41584 27.6269 6.1093 27.3294 5.78138 26.9894C5.45345 26.6494 5.06849 26.281 4.66928 25.9197C3.73323 25.0168 2.91204 24.0034 2.22408 22.902C1.35815 21.5209 0.731611 20.0051 0.370585 18.4179C0.285039 18.0496 0.206622 17.6671 0.15672 17.2845C0.106818 16.902 0.0711739 16.5195 -0.000114575 16.0732C-0.0357691 15.5874 -0.0357691 15.0997 -0.000114578 14.6139C-0.000114578 14.2527 0.0497873 13.9056 0.0854315 13.5301C0.0757227 13.3113 0.0948961 13.0922 0.142462 12.8784C0.22088 12.4321 0.299297 12.0071 0.391972 11.5537C0.535814 10.8741 0.738554 10.2081 0.997923 9.56317C1.3127 8.76996 1.69425 8.00455 2.13854 7.27509C2.48039 6.69846 2.85651 6.14257 3.2649 5.61039C3.63906 5.13374 4.04136 4.67958 4.46967 4.2503C5.12691 3.60509 5.84285 3.02173 6.60832 2.50767C7.87171 1.65535 9.2656 1.01184 10.7359 0.602125C11.3276 0.432113 11.9336 0.304605 12.5395 0.191263C12.9026 0.127422 13.2692 0.0848457 13.6374 0.0637544C14.0722 0.0637544 14.5 0 14.9705 0H15.833C16.5939 0.0561987 17.3494 0.169868 18.0929 0.340024C18.7159 0.469167 19.3283 0.64439 19.925 0.864227C21.3963 1.40248 22.7744 2.16484 24.0098 3.12397C25.2308 4.07488 26.2941 5.2103 27.1608 6.48878C27.8394 7.44078 28.395 8.47365 28.8147 9.56317C29.0569 10.1553 29.257 10.7637 29.4135 11.3837C29.5204 11.8654 29.6202 12.3613 29.6915 12.8571C29.7499 13.1948 29.7903 13.5353 29.8127 13.8772V16.2928C29.7331 17.2218 29.5587 18.1403 29.2923 19.0342C29.1854 19.3884 29.0713 19.7426 28.943 20.0897C28.6455 20.9752 28.256 21.8275 27.781 22.6328C27.07 23.8322 26.2022 24.9327 25.2003 25.9056L24.5445 26.4935C23.8136 27.1024 23.0313 27.6475 22.2062 28.1228C20.9284 28.8459 19.5493 29.3759 18.1143 29.6954C17.6794 29.7875 17.2588 29.8512 16.7883 29.9221C16.3855 29.9882 15.9776 30.019 15.5693 30.0142H14.6782C14.4979 30.0283 14.3167 30.0283 14.1364 30.0142L12.8318 29.8583C12.2446 29.7969 11.6754 29.6212 11.1565 29.3412C9.83849 28.7174 8.76915 27.6723 8.11964 26.3731C7.89107 25.9536 7.72763 25.5023 7.63488 25.0342C7.58914 24.8003 7.55818 24.5637 7.5422 24.3259C7.5422 23.9362 7.47804 23.5396 7.47091 23.1429C7.44952 22.8173 7.44952 22.4908 7.47091 22.1653C7.51369 21.6978 7.57785 21.2302 7.64913 20.7485C7.70463 20.5417 7.77859 20.3402 7.87013 20.1464C7.92716 19.9835 7.99845 19.8276 8.06261 19.686C8.43121 18.9166 8.92497 18.213 9.52402 17.6033C9.75927 17.3554 10.0088 17.1004 10.2369 16.8949C10.4461 16.6868 10.6866 16.5124 10.9498 16.3778C11.7669 15.9637 12.6414 15.6725 13.5447 15.5136C14.0898 15.412 14.6441 15.3669 15.1986 15.379C15.7052 15.3916 16.2062 15.4873 16.6814 15.6623C16.7548 15.6852 16.8244 15.7186 16.8881 15.7615C17.1138 15.8858 17.3305 16.0255 17.5368 16.1795C18.0254 16.5649 18.408 17.0669 18.6489 17.6387C18.8203 18.0327 18.9123 18.4563 18.9198 18.8855C18.9336 19.5738 18.7769 20.2549 18.4636 20.869C18.3666 21.092 18.2446 21.3035 18.1 21.4994C17.8512 21.7785 17.5602 22.0175 17.2374 22.2078C16.6867 22.5198 16.0779 22.7174 15.4481 22.7887H13.9296C13.7229 22.7887 13.5162 22.8453 13.3094 22.8595C12.8523 22.8951 12.4004 22.9806 11.9621 23.1145C11.5252 23.2348 11.1143 23.4341 10.7502 23.7025C10.433 23.945 10.2234 24.3007 10.1656 24.6942C10.1166 25.0373 10.1508 25.387 10.2654 25.7143C10.3089 25.8432 10.3794 25.9615 10.4722 26.0614C10.6589 26.2765 10.8589 26.48 11.071 26.6706C11.5251 27.0219 12.0236 27.3124 12.5538 27.5348C13.1444 27.8048 13.7605 28.016 14.393 28.1653C14.9582 28.3005 15.5452 28.3198 16.1182 28.222C16.3842 28.2099 16.6488 28.1768 16.9095 28.1228C17.6678 28.0023 18.4143 27.8174 19.1408 27.5702C20.5493 27.0845 21.8653 26.366 23.0332 25.4451C23.4947 25.0986 23.9329 24.7223 24.3449 24.3188C25.8792 22.7778 27.008 20.885 27.6313 18.8076C27.8149 18.2167 27.9532 17.6128 28.0448 17.0012C28.1031 16.6611 28.1436 16.3183 28.1659 15.974C28.1573 15.7371 28.1716 15.4999 28.2087 15.2656V13.5018C28.1954 13.2777 28.1644 13.0551 28.116 12.8359C28.0229 12.1779 27.875 11.5287 27.6741 10.8949C27.3879 10.0653 27.0252 9.2638 26.5905 8.50059C26.1908 7.73387 25.713 7.00989 25.1647 6.34002C24.9508 6.08501 24.7441 5.84416 24.5088 5.63164C24.2736 5.41913 23.9599 5.0791 23.6463 4.82409C22.757 4.02175 21.7558 3.3513 20.6735 2.83353C19.8393 2.42274 18.965 2.09756 18.0644 1.86305C17.7008 1.77804 17.3515 1.70012 16.9665 1.64345C16.6835 1.59269 16.3979 1.55722 16.1111 1.53719C15.8259 1.53719 15.4695 1.53719 15.1487 1.48052H14.7281L13.5162 1.55136C12.7342 1.62648 11.961 1.77351 11.2064 1.99056C10.5428 2.17692 9.89449 2.41374 9.26738 2.69894C8.41726 3.08326 7.61171 3.5583 6.86496 4.1157C6.30679 4.51934 5.7823 4.96707 5.29662 5.45455C4.57466 6.19618 3.94517 7.02148 3.42173 7.91263C2.94293 8.71673 2.53507 9.56049 2.2027 10.4345C1.9817 11.0649 1.82487 11.7237 1.66091 12.3825C1.59675 12.68 1.57536 12.9988 1.53259 13.3034C1.47542 13.5885 1.43967 13.8773 1.42565 14.1677V15.9386C1.44487 16.205 1.48058 16.47 1.53259 16.732C1.56823 17.0579 1.61813 17.3837 1.68229 17.7025C1.8015 18.2263 1.95388 18.7421 2.13854 19.2468C2.53023 20.3774 3.06184 21.4554 3.72114 22.4557C4.15104 23.0563 4.62776 23.6224 5.14691 24.1488C5.46757 24.5252 5.81288 24.8801 6.18059 25.2113C6.30887 25.327 6.43027 25.45 6.54416 25.5797C6.55848 25.6161 6.55848 25.6566 6.54416 25.693C6.54416 25.8418 6.54416 25.9976 6.54416 26.1464C6.54253 26.3852 6.57127 26.6232 6.62971 26.8548C6.73664 27.1877 6.86496 27.5136 7.00041 27.8394C7.0717 27.9953 7.15011 28.1511 7.21427 28.3141V28.4132L7.23566 28.3707Z" fill="#A9CE40"/>
<path d="M9.65941 17.1005C9.4434 17.1146 9.22669 17.1146 9.01069 17.1005C8.58842 17.0569 8.17237 16.9666 7.77027 16.8313C7.40669 16.7038 7.05738 16.5692 6.68668 16.4133C6.16907 16.2007 5.68802 15.9091 5.26091 15.5491C4.67076 15.0712 4.1855 14.4781 3.83514 13.8065C3.59678 13.3479 3.44001 12.8518 3.37177 12.3401C3.35459 12.004 3.37131 11.667 3.42167 11.3342C3.43735 11.0655 3.47069 10.7981 3.52148 10.5337C3.52148 10.2646 3.57138 10.13 3.60702 9.93162C3.71702 9.3863 3.90423 8.85922 4.16307 8.3661C4.20584 8.27401 4.24862 8.17483 4.28426 8.08274C4.39811 7.74882 4.5615 7.43365 4.76902 7.14768C5.11102 6.66365 5.52715 6.23581 6.00231 5.87967C6.18766 5.738 6.35876 5.58215 6.54411 5.45464C7.06002 5.11057 7.6093 4.81867 8.18374 4.58333C8.45646 4.45359 8.74722 4.36523 9.04633 4.32123C9.31248 4.29491 9.57675 4.25232 9.83763 4.19372C10.0167 4.18796 10.1952 4.1714 10.3723 4.14413L11.0852 4.09455H13.9367C14.5355 4.04496 15.1272 4.09455 15.7189 4.09455H17.2374L18.3994 4.1583H19.0196L20.0604 4.25039C20.5807 4.29869 21.0759 4.4955 21.4862 4.8171C22.0722 5.24611 22.5385 5.81665 22.8406 6.47471C23.007 6.8337 23.1037 7.22062 23.1258 7.61521C23.15 8.49676 22.8425 9.35558 22.2632 10.0237C22.0941 10.2366 21.9056 10.4334 21.7 10.6117C21.3498 10.947 20.9211 11.1905 20.4525 11.3201C20.3261 11.3482 20.197 11.3624 20.0675 11.3626H9.37426L8.66137 11.4051C8.421 11.4232 8.18256 11.4611 7.94849 11.5184C7.32027 11.641 6.71606 11.8634 6.15915 12.1772C5.75263 12.3832 5.40087 12.6817 5.13259 13.0485C5.00556 13.2157 4.9136 13.4066 4.86216 13.6098C4.81073 13.813 4.80088 14.0244 4.83318 14.2315C4.87827 14.5067 4.98021 14.7696 5.13259 15.0036C5.3281 15.3048 5.56847 15.5747 5.84548 15.8041C6.08555 15.9986 6.34895 16.1628 6.62965 16.2929C7.04665 16.492 7.4809 16.6532 7.9271 16.7746C8.32577 16.8878 8.73368 16.9661 9.14613 17.0084C9.31926 17.0266 9.49081 17.0573 9.65941 17.1005V17.1005Z" fill="#279C3F"/>
<path d="M9.6595 17.1004C9.49554 17.1004 9.33871 17.0296 9.18187 17.0154C8.76823 16.9656 8.35854 16.8875 7.95571 16.7816C7.51059 16.6609 7.07842 16.4972 6.66539 16.2929C6.38711 16.1538 6.12629 15.9826 5.88835 15.7828C5.61405 15.5506 5.37407 15.2811 5.17546 14.9823C5.02308 14.7483 4.92113 14.4854 4.87605 14.2102C4.8453 14.0054 4.85594 13.7965 4.90735 13.5958C4.95876 13.3952 5.04991 13.2067 5.17546 13.0414C5.42601 12.6851 5.75208 12.3877 6.13073 12.1701C6.69395 11.8796 7.30052 11.6811 7.92719 11.5821C8.16678 11.5577 8.40478 11.5198 8.64008 11.4688L9.35296 11.4263H10.1371L9.26742 11.5184L8.7185 11.5821C8.40381 11.624 8.09515 11.7025 7.79888 11.8159C7.41499 11.9435 7.05579 12.1351 6.73668 12.3826C6.4364 12.6247 6.21551 12.9502 6.10221 13.3177C6.0458 13.5286 6.03378 13.7488 6.0669 13.9645C6.10001 14.1802 6.17756 14.3869 6.29469 14.5715C6.42081 14.7795 6.57693 14.9681 6.75806 15.1311L7.12164 15.4711C7.59616 15.9152 8.13729 16.2832 8.72563 16.562C9.02184 16.6936 9.30988 16.8426 9.58822 17.0083V17.0083L9.6595 17.1004Z" fill="#5FBA74"/>
<path d="M39.9214 13.4946L38.9163 21.9597L38.3674 23.9574C38.2983 24.275 38.1372 24.5656 37.904 24.7933C37.6511 24.9908 37.334 25.0892 37.0129 25.0695H35.9507L37.3765 13.5087L36.5281 13.36C36.3847 13.3411 36.2504 13.2794 36.1432 13.1829C36.0916 13.1354 36.0513 13.077 36.0254 13.0121C35.9995 12.9471 35.9886 12.8772 35.9935 12.8074C35.9911 12.7934 35.9911 12.779 35.9935 12.7649C35.9961 12.7178 35.9961 12.6705 35.9935 12.6233C35.9935 12.5453 35.9935 12.432 35.9935 12.2832C35.9935 12.1345 36.0434 11.9149 36.079 11.6386H37.5547L37.6473 10.8311C37.7163 10.2473 37.8851 9.67952 38.1464 9.15219C38.3828 8.67238 38.7095 8.24197 39.1088 7.88419C39.5103 7.5306 39.9778 7.25865 40.4846 7.08371C41.0105 6.89634 41.5656 6.80281 42.1243 6.80745C42.5531 6.80191 42.9798 6.86899 43.3861 7.00579L43.1508 8.36589C43.1384 8.43998 43.1006 8.50755 43.0439 8.55715C42.9879 8.60402 42.9222 8.6379 42.8514 8.65632C42.765 8.67867 42.6767 8.6929 42.5876 8.69883H42.2954C42.0292 8.6969 41.7644 8.73756 41.5112 8.81925C41.2744 8.89638 41.0578 9.02459 40.8767 9.19469C40.6775 9.39597 40.5243 9.63759 40.4276 9.90308C40.2971 10.2324 40.2131 10.578 40.1781 10.9302L40.0925 11.6386H42.552L42.3025 13.5087L39.9214 13.4946Z" fill="#279C3F"/>
<path d="M51.3274 22.4273H49.9016C49.7894 22.4524 49.6728 22.4501 49.5617 22.4206C49.4506 22.3911 49.3483 22.3354 49.2636 22.2582C49.1788 22.1809 49.1141 22.0845 49.075 21.977C49.0359 21.8695 49.0236 21.7543 49.039 21.641L49.1246 20.1534C48.7005 20.8507 48.1493 21.4633 47.4992 21.9598C46.9214 22.3841 46.2216 22.6126 45.5031 22.6115C45.1024 22.6128 44.706 22.5283 44.3411 22.3636C43.9766 22.2029 43.6545 21.9604 43.4001 21.6552C43.1088 21.2857 42.8955 20.8617 42.7728 20.4085C42.6065 19.8548 42.5271 19.279 42.5375 18.7012C42.5366 16.7929 43.2684 14.9561 44.5835 13.5655C45.0041 13.1143 45.4836 12.7212 46.0093 12.3966C47.1116 11.7183 48.384 11.3623 49.6806 11.3695C50.1768 11.3699 50.6723 11.4054 51.1634 11.4757C51.6515 11.5502 52.1297 11.6785 52.5892 11.8583L51.3274 22.4273ZM46.5582 20.4439C46.87 20.4368 47.1717 20.3328 47.4208 20.1464C47.7299 19.9172 47.9996 19.6397 48.2192 19.3246C48.496 18.9349 48.7347 18.5198 48.9321 18.085C49.1538 17.5887 49.3397 17.0774 49.4881 16.5549L49.9016 13.2609C49.7235 13.2512 49.545 13.2512 49.367 13.2609C48.7927 13.2566 48.2265 13.3954 47.7202 13.6647C47.1919 13.9196 46.7213 14.2787 46.3372 14.7201C45.9685 15.1928 45.6839 15.7247 45.496 16.2927C45.2829 16.9104 45.1769 17.5595 45.1823 18.2125C45.139 18.7952 45.2652 19.3779 45.5459 19.8913C45.6475 20.0619 45.7927 20.2029 45.9666 20.2999C46.1406 20.3969 46.3373 20.4466 46.5368 20.4439H46.5582Z" fill="#279C3F"/>
<path d="M53.7588 22.4274L55.0919 11.5183H56.4321C56.6539 11.5089 56.8732 11.5684 57.0594 11.6884C57.1437 11.7496 57.2109 11.8311 57.2545 11.9254C57.2982 12.0196 57.3169 12.1233 57.309 12.2267C57.309 12.2763 57.309 12.3613 57.309 12.4817C57.309 12.6022 57.309 12.7934 57.309 13.0555C57.309 13.3176 57.309 13.6718 57.2662 14.1394C57.6317 13.394 58.1319 12.7217 58.7418 12.1559C59.1895 11.7213 59.7845 11.4687 60.41 11.4475C60.717 11.4504 61.0202 11.5155 61.3011 11.6388L60.7807 14.1677C60.4619 14.0257 60.1177 13.9487 59.7684 13.941C59.4381 13.9508 59.1148 14.038 58.8249 14.1956C58.535 14.3532 58.2867 14.5766 58.1003 14.8477C57.5139 15.7006 57.1132 16.6657 56.924 17.6813L56.318 22.4274H53.7588Z" fill="#279C3F"/>
<path d="M61.5288 22.4274L62.869 11.5183H64.2021C64.4319 11.5055 64.659 11.5732 64.8437 11.7096C64.9282 11.7842 64.9935 11.8777 65.0344 11.9824C65.0753 12.0871 65.0906 12.2 65.079 12.3117V12.3471C65.079 12.3471 65.079 12.4108 65.079 12.4888C65.079 12.5667 65.079 12.6942 65.079 12.8642C65.079 13.0342 65.079 13.2609 65.079 13.5726C65.4885 12.9127 66.0354 12.3475 66.683 11.915C67.1996 11.5586 67.8082 11.357 68.4367 11.3341C68.7366 11.3197 69.036 11.3727 69.3125 11.4892C69.589 11.6057 69.8354 11.7828 70.0335 12.0071C70.4762 12.5577 70.7265 13.2365 70.7464 13.941C71.155 13.1635 71.7379 12.4897 72.4502 11.9717C73.0482 11.5569 73.7598 11.3344 74.489 11.3341C74.8484 11.3149 75.2072 11.3799 75.5366 11.5239C75.866 11.6678 76.1567 11.8867 76.3853 12.1629C76.8742 12.855 77.1106 13.6922 77.0554 14.536C77.0554 14.6777 77.0554 14.8264 77.0554 14.9894C77.0554 15.1523 77.0554 15.3081 77.0127 15.4711L76.1928 22.4061H73.5837L73.9473 19.3459C74.0471 18.5029 74.1255 17.8016 74.1896 17.2208L74.3393 15.8961C74.3393 15.5773 74.4035 15.3294 74.4178 15.1877C74.432 15.046 74.4178 14.8973 74.4178 14.8335C74.4178 14.7698 74.4178 14.7273 74.4178 14.6918C74.4441 14.3703 74.3694 14.0485 74.2039 13.7709C74.1166 13.6704 74.0063 13.5922 73.8822 13.5429C73.7582 13.4936 73.624 13.4746 73.491 13.4876C73.2132 13.4895 72.9406 13.5627 72.6997 13.7001C72.4283 13.8634 72.1871 14.0719 71.9868 14.3164C71.7359 14.6218 71.5206 14.9545 71.3452 15.3081C71.139 15.733 70.9673 16.1736 70.832 16.6257L70.1191 22.4132H67.5384L68.3654 15.4781C68.3654 15.3294 68.3654 15.1877 68.3654 15.0602C68.3654 14.9327 68.3654 14.8052 68.3654 14.6918C68.3898 14.3713 68.3178 14.0508 68.1586 13.7709C68.0721 13.6695 67.9619 13.5906 67.8376 13.5412C67.7134 13.4918 67.5788 13.4734 67.4458 13.4876C67.1595 13.491 66.8793 13.5692 66.6331 13.7143C66.357 13.883 66.1152 14.1017 65.9202 14.3589C65.6629 14.67 65.4472 15.0128 65.2786 15.379C65.0669 15.8096 64.8928 16.2576 64.7582 16.7178L64.0453 22.3849L61.5288 22.4274Z" fill="#279C3F"/>
<path d="M85.7169 13.5796C85.658 13.6722 85.5832 13.7537 85.4959 13.8205C85.4108 13.8664 85.3147 13.8884 85.2179 13.8843C85.0849 13.8812 84.9549 13.8447 84.8401 13.778L84.3981 13.5442C84.213 13.4475 84.0198 13.3669 83.8207 13.3034C83.5664 13.2275 83.3018 13.1917 83.0365 13.1971C82.5731 13.1674 82.1139 13.3002 81.739 13.5726C81.5971 13.6854 81.4829 13.8289 81.4051 13.9922C81.3273 14.1554 81.2879 14.3341 81.2899 14.5147C81.2856 14.7168 81.351 14.9143 81.4753 15.0743C81.6151 15.2336 81.7815 15.3678 81.9672 15.471C82.195 15.5958 82.4335 15.7001 82.68 15.7827L83.4713 16.0944C83.7417 16.2028 84.0058 16.3257 84.2626 16.4628C84.5234 16.5955 84.7635 16.7649 84.9755 16.9657C85.1788 17.1709 85.343 17.4109 85.4603 17.6741C85.5906 17.9908 85.6537 18.3309 85.6456 18.6729C85.6486 19.1905 85.5415 19.7029 85.3315 20.1765C85.1214 20.6502 84.8131 21.0744 84.4266 21.4214C84.0129 21.7961 83.5282 22.0851 83.0008 22.2715C82.4053 22.4884 81.7744 22.5941 81.1402 22.5832C80.8002 22.5867 80.4607 22.5534 80.1279 22.484C79.8146 22.4217 79.5087 22.3267 79.2154 22.2007C78.9415 22.0877 78.6809 21.9452 78.4384 21.7756C78.2189 21.6247 78.02 21.4461 77.8467 21.2443L78.4883 20.2455C78.5583 20.1334 78.6535 20.0389 78.7663 19.9693C78.8866 19.9048 79.0218 19.8731 79.1584 19.8772C79.3053 19.875 79.4485 19.9225 79.5647 20.0118C79.6859 20.1038 79.8285 20.2101 79.9925 20.3164C80.1779 20.4391 80.3763 20.5412 80.5842 20.621C80.8727 20.7204 81.1772 20.766 81.4824 20.7556C81.7436 20.7615 82.004 20.7231 82.2523 20.6422C82.4614 20.5737 82.6551 20.4655 82.8226 20.3234C82.972 20.1958 83.091 20.0368 83.1711 19.858C83.2512 19.6792 83.2905 19.4849 83.286 19.2892C83.2959 19.0766 83.2331 18.8668 83.1078 18.6942C82.9742 18.523 82.8068 18.3807 82.6159 18.2762C82.3893 18.1508 82.1505 18.0487 81.903 17.9716L81.1117 17.6883C80.8465 17.5895 80.587 17.476 80.3346 17.3482C80.0731 17.2257 79.8326 17.0631 79.6218 16.8665C79.4135 16.6656 79.2485 16.4245 79.137 16.1582C79.0056 15.8319 78.9425 15.4823 78.9517 15.131C78.9496 14.6452 79.0441 14.1637 79.2297 13.7142C79.4121 13.2566 79.6917 12.8434 80.0495 12.5029C80.4293 12.1337 80.8803 11.8445 81.3755 11.6528C81.95 11.4309 82.5627 11.3226 83.1791 11.3341C83.8157 11.3221 84.4476 11.4453 85.0326 11.6954C85.5393 11.9107 86.0011 12.2183 86.3942 12.6021L85.7169 13.5796Z" fill="#279C3F"/>
<path d="M86.915 22.4273L88.8541 6.63745H91.4276L90.565 13.7213C91.027 13.0563 91.6067 12.4803 92.2759 12.0212C92.8687 11.613 93.5722 11.3932 94.2934 11.3907C94.7229 11.3854 95.1485 11.4724 95.5409 11.6457C95.9164 11.8112 96.2447 12.0668 96.4962 12.3895C96.7828 12.7678 96.9912 13.1988 97.1093 13.6575C97.2613 14.2427 97.3333 14.8455 97.3232 15.4497C97.3336 16.6551 97.0908 17.8494 96.6103 18.9562C96.3841 19.4738 96.1021 19.9655 95.7691 20.4226C95.4607 20.8554 95.0964 21.246 94.6855 21.5843C94.2919 21.8902 93.8546 22.1361 93.388 22.314C92.936 22.4993 92.4513 22.5932 91.9623 22.5902C91.4589 22.6036 90.9596 22.4975 90.5058 22.2807C90.052 22.0638 89.6569 21.7425 89.3531 21.3435L89.2676 21.7047C89.2564 21.8136 89.2229 21.919 89.1691 22.0145C89.1154 22.1099 89.0425 22.1934 88.9549 22.2598C88.8674 22.3262 88.7671 22.3741 88.6603 22.4004C88.5534 22.4268 88.4423 22.4311 88.3337 22.4131L86.915 22.4273ZM93.2668 13.4167C92.9488 13.4253 92.6407 13.529 92.3829 13.7142C92.0514 13.9436 91.7559 14.2205 91.506 14.5359C91.205 14.9166 90.9446 15.3273 90.729 15.7614C90.4831 16.2492 90.2781 16.7562 90.1159 17.2774L89.8236 19.8771C90.05 20.1286 90.337 20.3187 90.6577 20.4297C90.9554 20.5346 91.2686 20.5897 91.5844 20.5926C92.0496 20.5933 92.5016 20.4386 92.8676 20.1534C93.2694 19.8437 93.6061 19.4586 93.8585 19.02C94.1422 18.525 94.3557 17.9934 94.493 17.4403C94.6427 16.8665 94.7194 16.2763 94.7211 15.6835C94.7608 15.0903 94.6298 14.4982 94.3433 13.9763C94.2304 13.7961 94.0711 13.6492 93.8818 13.5508C93.6925 13.4524 93.4802 13.4061 93.2668 13.4167V13.4167Z" fill="#279C3F"/>
<path d="M101.75 25.4452C101.678 25.6102 101.558 25.7501 101.406 25.8472C101.254 25.9444 101.076 25.9943 100.895 25.9906H98.9344L101.372 21.5987L98.6064 11.5255H100.816C100.895 11.5198 100.974 11.53 101.049 11.5556C101.124 11.5811 101.193 11.6215 101.251 11.6742C101.347 11.7677 101.416 11.8851 101.451 12.0142L102.798 17.6813C102.841 17.8655 102.869 18.0497 102.898 18.2268C102.927 18.4039 102.941 18.581 102.955 18.7651C103.033 18.581 103.112 18.4039 103.197 18.2197L103.447 17.6742L106.156 12.0072C106.226 11.8669 106.332 11.7473 106.462 11.6601C106.587 11.5764 106.733 11.5297 106.883 11.5255H109.022L101.75 25.4452Z" fill="#279C3F"/>
</g>
<defs>
<clipPath id="clip0">
<rect width="109" height="30" fill="white"/>
</clipPath>
</defs>
</svg>
