<svg width="119" height="32" viewBox="0 0 119 32" fill="none" xmlns="http://www.w3.org/2000/svg">
<g clip-path="url(#clip0)">
<path d="M7.89999 30.2621C7.72952 30.1343 7.56586 29.9981 7.40967 29.8541C7.00497 29.4687 6.6703 29.1514 6.31229 28.7887C5.95428 28.426 5.534 28.0331 5.09816 27.6477C4.07624 26.6846 3.17971 25.6036 2.42864 24.4288C1.48326 22.9556 0.799242 21.3388 0.405095 19.6458C0.3117 19.2529 0.226089 18.8449 0.171609 18.4368C0.117129 18.0288 0.0782143 17.6208 0.000385596 17.1447C-0.03854 16.6266 -0.03854 16.1064 0.000385593 15.5882C0.000385593 15.2028 0.0548657 14.8326 0.09378 14.4321C0.0831805 14.1987 0.104113 13.965 0.156043 13.737C0.241654 13.2609 0.327266 12.8076 0.428443 12.324C0.585482 11.599 0.806822 10.8886 1.08999 10.2007C1.43364 9.35462 1.8502 8.53819 2.33525 7.7601C2.70846 7.14502 3.11909 6.55208 3.56494 5.98442C3.97343 5.47599 4.41263 4.99155 4.88024 4.53365C5.59778 3.84543 6.37941 3.22318 7.2151 2.67485C8.59439 1.7657 10.1162 1.0793 11.7214 0.642267C12.3674 0.460921 13.0289 0.324911 13.6904 0.204014C14.0869 0.135917 14.4871 0.0905021 14.889 0.0680047C15.3638 0.0680047 15.8307 0 16.3444 0H17.2861C18.1168 0.0599453 18.9416 0.181193 19.7533 0.362692C20.4334 0.500445 21.102 0.687349 21.7535 0.921842C23.3598 1.49598 24.8643 2.30916 26.2131 3.33223C27.5461 4.34654 28.7069 5.55765 29.6531 6.92137C30.3939 7.93683 31.0006 9.03855 31.4587 10.2007C31.7232 10.8324 31.9416 11.4813 32.1125 12.1426C32.2292 12.6564 32.3382 13.1854 32.416 13.7143C32.4797 14.0745 32.5239 14.4377 32.5483 14.8024V17.379C32.4614 18.3699 32.271 19.3496 31.9802 20.3032C31.8634 20.681 31.7389 21.0588 31.5988 21.429C31.274 22.3735 30.8488 23.2826 30.3302 24.1417C29.554 25.421 28.6066 26.5948 27.5128 27.6326L26.7968 28.2597C25.9989 28.9092 25.1448 29.4906 24.244 29.9976C22.8489 30.769 21.3433 31.3343 19.7766 31.6751C19.3019 31.7733 18.8427 31.8413 18.329 31.9169C17.8892 31.9874 17.4439 32.0203 16.9982 32.0151H16.0253C15.8284 32.0302 15.6307 32.0302 15.4338 32.0151L14.0095 31.8489C13.3685 31.7833 12.747 31.5959 12.1806 31.2973C10.7416 30.6319 9.57417 29.5171 8.86507 28.1313C8.61553 27.6839 8.4371 27.2024 8.33584 26.7032C8.2859 26.4536 8.25211 26.2013 8.23466 25.9476C8.23466 25.532 8.16461 25.1089 8.15683 24.6857C8.13348 24.3385 8.13348 23.9902 8.15683 23.643C8.20353 23.1443 8.27357 22.6456 8.3514 22.1318C8.41199 21.9111 8.49273 21.6962 8.59267 21.4895C8.65493 21.3157 8.73276 21.1495 8.80281 20.9983C9.20523 20.1777 9.74429 19.4272 10.3983 18.7769C10.6551 18.5124 10.9275 18.2404 11.1766 18.0213C11.405 17.7993 11.6675 17.6132 11.9549 17.4697C12.847 17.028 13.8017 16.7173 14.7878 16.5478C15.383 16.4394 15.9881 16.3913 16.5935 16.4043C17.1465 16.4177 17.6935 16.5198 18.2123 16.7065C18.2924 16.7309 18.3685 16.7666 18.438 16.8123C18.6844 16.9449 18.921 17.0939 19.1462 17.2581C19.6796 17.6693 20.0973 18.2047 20.3604 18.8146C20.5474 19.2349 20.6479 19.6867 20.6561 20.1445C20.6712 20.8787 20.5001 21.6053 20.158 22.2602C20.0521 22.4981 19.919 22.7237 19.7611 22.9327C19.4894 23.2304 19.1717 23.4853 18.8194 23.6883C18.2181 24.0211 17.5535 24.2319 16.8659 24.3079H15.2081C14.9824 24.3079 14.7567 24.3684 14.531 24.3835C14.0319 24.4214 13.5386 24.5127 13.06 24.6555C12.583 24.7838 12.1345 24.9964 11.7369 25.2826C11.3907 25.5414 11.1618 25.9208 11.0988 26.3405C11.0453 26.7064 11.0826 27.0795 11.2077 27.4286C11.2552 27.5661 11.3321 27.6922 11.4334 27.7988C11.6373 28.0283 11.8557 28.2453 12.0872 28.4486C12.5829 28.8233 13.1272 29.1333 13.706 29.3705C14.3508 29.6585 15.0234 29.8837 15.714 30.043C16.3311 30.1872 16.9719 30.2078 17.5974 30.1034C17.8879 30.0906 18.1767 30.0552 18.4613 29.9976C19.2892 29.8691 20.1042 29.6719 20.8974 29.4083C22.4351 28.8901 23.8718 28.1237 25.1468 27.1414C25.6507 26.7718 26.1291 26.3705 26.5789 25.94C28.254 24.2963 29.4863 22.2773 30.1668 20.0614C30.3673 19.4311 30.5182 18.787 30.6182 18.1346C30.6819 17.7719 30.726 17.4062 30.7505 17.039C30.741 16.7862 30.7567 16.5332 30.7972 16.2834V14.4019C30.7826 14.1629 30.7488 13.9255 30.696 13.6916C30.5943 12.9898 30.4329 12.2973 30.2135 11.6213C29.9011 10.7363 29.5051 9.88139 29.0305 9.0673C28.5941 8.24946 28.0725 7.47722 27.4739 6.76269C27.2404 6.49067 27.0147 6.23377 26.7579 6.00708C26.501 5.7804 26.1586 5.41771 25.8162 5.14569C24.8453 4.28986 23.7522 3.57472 22.5707 3.02243C21.6599 2.58426 20.7055 2.2374 19.7222 1.98725C19.3252 1.89658 18.9439 1.81346 18.5236 1.75301C18.2146 1.69887 17.9029 1.66103 17.5897 1.63967C17.2783 1.63967 16.8892 1.63967 16.539 1.57922H16.0798L14.7567 1.65478C13.903 1.73491 13.0589 1.89174 12.2351 2.12326C11.5105 2.32204 10.8028 2.57466 10.1181 2.87887C9.18999 3.28881 8.31055 3.79552 7.49529 4.39008C6.8859 4.82063 6.3133 5.29821 5.78306 5.81818C4.99486 6.60926 4.30762 7.48958 3.73616 8.44014C3.21344 9.29784 2.76815 10.1979 2.40529 11.1301C2.16402 11.8026 1.9928 12.5053 1.81379 13.208C1.74375 13.5254 1.7204 13.8654 1.6737 14.1903C1.61129 14.4944 1.57227 14.8025 1.55696 15.1122V17.0012C1.57794 17.2853 1.61692 17.568 1.6737 17.8475C1.71262 18.195 1.7671 18.5426 1.83714 18.8826C1.96728 19.4414 2.13365 19.9915 2.33525 20.5299C2.76287 21.7359 3.34325 22.8857 4.06304 23.9528C4.53238 24.5934 5.05284 25.1972 5.61961 25.7587C5.96969 26.1602 6.34668 26.5388 6.74813 26.8921C6.88818 27.0155 7.02072 27.1467 7.14506 27.285C7.16069 27.3239 7.16069 27.367 7.14506 27.4059C7.14506 27.5646 7.14506 27.7308 7.14506 27.8895C7.14327 28.1442 7.17465 28.3981 7.23845 28.6451C7.35519 29.0002 7.49529 29.3478 7.64316 29.6954C7.72099 29.8616 7.8066 30.0279 7.87665 30.2017V30.3074L7.89999 30.2621Z" fill="white"/>
<path d="M10.5459 18.2405C10.3101 18.2556 10.0735 18.2556 9.8377 18.2405C9.37669 18.194 8.92247 18.0977 8.48348 17.9533C8.08655 17.8173 7.70519 17.6738 7.30048 17.5075C6.73538 17.2807 6.2102 16.9697 5.74391 16.5857C5.09961 16.0759 4.56984 15.4433 4.18734 14.7269C3.9271 14.2377 3.75595 13.7086 3.68145 13.1628C3.66269 12.8043 3.68094 12.4448 3.73593 12.0898C3.75305 11.8032 3.78945 11.518 3.84489 11.236C3.84489 10.9488 3.89937 10.8053 3.93829 10.5937C4.05837 10.012 4.26276 9.44981 4.54535 8.92382C4.59205 8.82559 4.63874 8.7198 4.67766 8.62157C4.80195 8.26539 4.98033 7.92921 5.20689 7.62417C5.58026 7.10788 6.03457 6.65151 6.55333 6.27163C6.75568 6.12051 6.94247 5.95428 7.14483 5.81827C7.70807 5.45125 8.30775 5.1399 8.93488 4.88887C9.23262 4.75047 9.55006 4.65623 9.87661 4.6093C10.1672 4.58122 10.4557 4.53579 10.7405 4.47329C10.936 4.46714 11.1309 4.44948 11.3242 4.42039L12.1025 4.3675H15.2157C15.8694 4.31461 16.5154 4.3675 17.1614 4.3675H18.8191L20.0877 4.43551H20.7648L21.9011 4.53374C22.4692 4.58525 23.0098 4.79518 23.4577 5.13822C24.0976 5.59583 24.6065 6.20441 24.9365 6.90634C25.118 7.28926 25.2236 7.70198 25.2478 8.12287C25.2742 9.06319 24.9384 9.97927 24.306 10.6919C24.1215 10.919 23.9156 11.1289 23.6912 11.3191C23.3088 11.6768 22.8408 11.9365 22.3292 12.0747C22.1912 12.1047 22.0503 12.1199 21.9089 12.12H10.2346L9.45634 12.1654C9.19391 12.1847 8.93359 12.2252 8.67805 12.2863C7.9922 12.417 7.33256 12.6543 6.72455 12.989C6.28073 13.2087 5.89671 13.5271 5.60382 13.9184C5.46512 14.0968 5.36473 14.3004 5.30858 14.5171C5.25243 14.7339 5.24167 14.9594 5.27694 15.1803C5.32616 15.4738 5.43746 15.7542 5.60382 16.0039C5.81726 16.3251 6.07968 16.613 6.3821 16.8577C6.6442 17.0652 6.93176 17.2403 7.23822 17.3791C7.69347 17.5914 8.16756 17.7634 8.6547 17.8929C9.08995 18.0137 9.53528 18.0971 9.98557 18.1422C10.1746 18.1616 10.3619 18.1945 10.5459 18.2405V18.2405Z" fill="white"/>
<path d="M10.5457 18.2404C10.3667 18.2404 10.1955 18.1648 10.0243 18.1497C9.57269 18.0966 9.12541 18.0133 8.68562 17.9004C8.19966 17.7716 7.72785 17.597 7.27693 17.379C6.97311 17.2307 6.68837 17.0481 6.42859 16.835C6.12914 16.5873 5.86713 16.2998 5.65031 15.9811C5.48394 15.7315 5.37264 15.451 5.32343 15.1575C5.28986 14.9391 5.30148 14.7163 5.3576 14.5022C5.41373 14.2881 5.51323 14.0871 5.65031 13.9108C5.92384 13.5307 6.27982 13.2135 6.69321 12.9814C7.3081 12.6716 7.97032 12.4598 8.65449 12.3542C8.91605 12.3281 9.17589 12.2878 9.43278 12.2333L10.2111 12.188H11.0672L10.1177 12.2862L9.51839 12.3542C9.17483 12.3989 8.83786 12.4826 8.5144 12.6036C8.0953 12.7397 7.70314 12.9441 7.35475 13.2081C7.02692 13.4663 6.78578 13.8136 6.66208 14.2055C6.60049 14.4304 6.58737 14.6653 6.62352 14.8954C6.65968 15.1256 6.74434 15.346 6.87222 15.5429C7.00991 15.7648 7.18035 15.9659 7.3781 16.1398L7.77503 16.5025C8.29309 16.9762 8.88386 17.3687 9.52617 17.6661C9.84956 17.8065 10.164 17.9654 10.4679 18.1422V18.1422L10.5457 18.2404Z" fill="white"/>
<path d="M43.5841 14.3943L42.4867 23.4238L41.8874 25.5546C41.812 25.8934 41.6362 26.2033 41.3815 26.4462C41.1054 26.6569 40.7592 26.7618 40.4087 26.7409H39.249L40.8056 14.4094L39.8794 14.2507C39.7228 14.2306 39.5763 14.1647 39.4592 14.0618C39.4028 14.0111 39.3589 13.9489 39.3306 13.8796C39.3023 13.8103 39.2904 13.7357 39.2957 13.6613C39.2931 13.6463 39.2931 13.631 39.2957 13.616C39.2986 13.5657 39.2986 13.5152 39.2957 13.4649C39.2957 13.3817 39.2957 13.2609 39.2957 13.1022C39.2957 12.9435 39.3502 12.7093 39.3891 12.4146H41.0002L41.1013 11.5532C41.1767 10.9305 41.3609 10.3249 41.6461 9.76239C41.9043 9.25058 42.2609 8.79148 42.6968 8.40985C43.1353 8.03269 43.6456 7.74261 44.1989 7.55601C44.7731 7.35615 45.3791 7.25638 45.989 7.26132C46.4572 7.25542 46.9231 7.32697 47.3666 7.47289L47.1097 8.92366C47.0962 9.0027 47.0549 9.07477 46.993 9.12768C46.9319 9.17767 46.8601 9.21381 46.7828 9.23346C46.6885 9.25729 46.5921 9.27247 46.4949 9.2788H46.1758C45.8852 9.27674 45.5961 9.32012 45.3197 9.40725C45.0612 9.48952 44.8246 9.62628 44.627 9.80772C44.4095 10.0224 44.2422 10.2801 44.1367 10.5633C43.9942 10.9146 43.9025 11.2833 43.8643 11.659L43.7709 12.4146H46.456L46.1836 14.4094L43.5841 14.3943Z" fill="white"/>
<path d="M56.0367 23.9226H54.4801C54.3576 23.9493 54.2303 23.9468 54.109 23.9154C53.9877 23.884 53.876 23.8245 53.7835 23.7422C53.691 23.6598 53.6204 23.5569 53.5777 23.4422C53.535 23.3276 53.5215 23.2047 53.5384 23.0839L53.6318 21.4971C53.1688 22.2409 52.567 22.8943 51.8573 23.4239C51.2265 23.8765 50.4625 24.1202 49.6781 24.1191C49.2406 24.1205 48.8079 24.0303 48.4095 23.8546C48.0115 23.6832 47.6599 23.4245 47.3822 23.099C47.0641 22.7049 46.8312 22.2526 46.6973 21.7691C46.5157 21.1785 46.4291 20.5643 46.4404 19.9481C46.4395 17.9126 47.2384 15.9533 48.6741 14.4699C49.1333 13.9887 49.6568 13.5694 50.2307 13.2232C51.4342 12.4996 52.8233 12.1199 54.2389 12.1276C54.7806 12.128 55.3215 12.1659 55.8577 12.2409C56.3906 12.3203 56.9126 12.4572 57.4143 12.6489L56.0367 23.9226ZM50.83 21.8069C51.1704 21.7994 51.4997 21.6884 51.7717 21.4895C52.1092 21.2451 52.4036 20.9491 52.6434 20.613C52.9456 20.1973 53.2062 19.7545 53.4217 19.2907C53.6638 18.7614 53.8666 18.216 54.0287 17.6586L54.4801 14.145C54.2857 14.1348 54.0908 14.1348 53.8964 14.145C53.2695 14.1405 52.6514 14.2886 52.0986 14.5757C51.5218 14.8476 51.0081 15.2307 50.5887 15.7016C50.1861 16.2057 49.8755 16.7731 49.6703 17.379C49.4377 18.0379 49.3219 18.7303 49.3279 19.4267C49.2805 20.0483 49.4183 20.6699 49.7248 21.2175C49.8357 21.3995 49.9942 21.5498 50.1842 21.6533C50.3741 21.7568 50.5888 21.8098 50.8066 21.8069H50.83Z" fill="white"/>
<path d="M58.6904 23.9226L60.1458 12.2863H61.609C61.8512 12.2762 62.0905 12.3396 62.2939 12.4676C62.3859 12.5329 62.4592 12.6199 62.5069 12.7204C62.5545 12.8209 62.575 12.9315 62.5663 13.0419C62.5663 13.0948 62.5663 13.1854 62.5663 13.3139C62.5663 13.4423 62.5663 13.6463 62.5663 13.9259C62.5663 14.2055 62.5663 14.5833 62.5196 15.082C62.9187 14.287 63.4648 13.5698 64.1307 12.9663C64.6194 12.5028 65.269 12.2333 65.9518 12.2107C66.287 12.2138 66.6181 12.2832 66.9247 12.4147L66.3566 15.1122C66.0085 14.9608 65.6327 14.8786 65.2514 14.8704C64.8908 14.8808 64.5378 14.9739 64.2213 15.142C63.9048 15.3101 63.6337 15.5484 63.4302 15.8376C62.79 16.7473 62.3526 17.7767 62.146 18.86L61.4845 23.9226H58.6904Z" fill="white"/>
<path d="M67.1738 23.9225L68.637 12.2862H70.0924C70.3433 12.2725 70.5911 12.3447 70.7929 12.4902C70.885 12.5698 70.9564 12.6696 71.0011 12.7812C71.0457 12.8929 71.0624 13.0133 71.0497 13.1324V13.1702C71.0497 13.1702 71.0497 13.2382 71.0497 13.3213C71.0497 13.4045 71.0497 13.5405 71.0497 13.7218C71.0497 13.9032 71.0497 14.145 71.0497 14.4774C71.4968 13.7735 72.0939 13.1706 72.8008 12.7093C73.3648 12.3292 74.0293 12.1141 74.7154 12.0897C75.0429 12.0743 75.3698 12.1309 75.6716 12.2552C75.9735 12.3794 76.2425 12.5683 76.4588 12.8075C76.9421 13.3948 77.2153 14.1189 77.2371 14.8703C77.6831 14.041 78.3195 13.3223 79.0972 12.7697C79.75 12.3273 80.5269 12.09 81.3231 12.0897C81.7154 12.0692 82.1071 12.1385 82.4668 12.2921C82.8264 12.4457 83.1438 12.6792 83.3933 12.9738C83.927 13.712 84.1851 14.605 84.1249 15.505C84.1249 15.6562 84.1249 15.8148 84.1249 15.9886C84.1249 16.1624 84.1249 16.3287 84.0782 16.5024L83.1832 23.8999H80.3346L80.7316 20.6356C80.8405 19.7365 80.9261 18.9884 80.9962 18.3688L81.1596 16.9558C81.1596 16.6158 81.2297 16.3513 81.2452 16.2002C81.2608 16.0491 81.2452 15.8904 81.2452 15.8224C81.2452 15.7544 81.2452 15.7091 81.2452 15.6713C81.274 15.3283 81.1924 14.9851 81.0118 14.689C80.9164 14.5818 80.796 14.4984 80.6606 14.4458C80.5251 14.3932 80.3786 14.3729 80.2335 14.3867C79.9302 14.3887 79.6326 14.4668 79.3696 14.6134C79.0732 14.7876 78.81 15.01 78.5913 15.2708C78.3173 15.5965 78.0823 15.9514 77.8908 16.3287C77.6656 16.7818 77.4782 17.2518 77.3305 17.7341L76.5522 23.9074H73.7348L74.6376 16.51C74.6376 16.3513 74.6376 16.2002 74.6376 16.0642C74.6376 15.9282 74.6376 15.7922 74.6376 15.6713C74.6643 15.3294 74.5857 14.9875 74.4119 14.689C74.3174 14.5808 74.1971 14.4966 74.0614 14.4439C73.9258 14.3913 73.7789 14.3716 73.6336 14.3867C73.3211 14.3904 73.0152 14.4738 72.7464 14.6285C72.445 14.8085 72.181 15.0418 71.9681 15.3161C71.6872 15.6479 71.4517 16.0137 71.2676 16.4042C71.0365 16.8636 70.8464 17.3414 70.6995 17.8323L69.9212 23.8772L67.1738 23.9225Z" fill="white"/>
<path d="M93.5811 14.485C93.5167 14.5837 93.4351 14.6707 93.3398 14.7419C93.2468 14.7909 93.1419 14.8144 93.0363 14.8099C92.8911 14.8067 92.7491 14.7677 92.6238 14.6966L92.1412 14.4472C91.9392 14.344 91.7282 14.2581 91.5108 14.1903C91.2333 14.1094 90.9444 14.0712 90.6547 14.077C90.1488 14.0453 89.6475 14.187 89.2382 14.4775C89.0833 14.5979 88.9586 14.7509 88.8737 14.925C88.7887 15.0992 88.7457 15.2898 88.7479 15.4824C88.7432 15.698 88.8146 15.9086 88.9503 16.0794C89.1029 16.2493 89.2846 16.3924 89.4873 16.5025C89.736 16.6356 89.9965 16.7469 90.2656 16.835L91.1294 17.1674C91.4246 17.283 91.713 17.4142 91.9933 17.5603C92.278 17.7019 92.5401 17.8826 92.7716 18.0968C92.9935 18.3157 93.1728 18.5716 93.3009 18.8524C93.4431 19.1903 93.512 19.553 93.5032 19.9178C93.5065 20.4699 93.3896 21.0165 93.1602 21.5217C92.9309 22.0269 92.5943 22.4794 92.1724 22.8496C91.7207 23.2492 91.1915 23.5575 90.6158 23.7563C89.9656 23.9877 89.2769 24.1005 88.5845 24.0888C88.2132 24.0925 87.8426 24.0571 87.4793 23.983C87.1372 23.9165 86.8033 23.8152 86.4831 23.6808C86.1841 23.5603 85.8996 23.4082 85.6347 23.2274C85.3951 23.0664 85.1779 22.8759 84.9888 22.6607L85.6892 21.5953C85.7657 21.4757 85.8696 21.3748 85.9928 21.3006C86.1241 21.2319 86.2717 21.198 86.4208 21.2024C86.5812 21.2001 86.7376 21.2507 86.8644 21.3459C86.9968 21.4442 87.1524 21.5575 87.3314 21.6709C87.5339 21.8017 87.7505 21.9107 87.9774 21.9958C88.2924 22.1018 88.6248 22.1505 88.958 22.1393C89.2433 22.1456 89.5275 22.1048 89.7986 22.0184C90.0269 21.9454 90.2384 21.8299 90.4212 21.6784C90.5843 21.5422 90.7142 21.3727 90.8017 21.1819C90.8891 20.9912 90.932 20.784 90.9271 20.5752C90.938 20.3484 90.8694 20.1247 90.7325 19.9405C90.5867 19.7579 90.404 19.6062 90.1955 19.4947C89.9482 19.3609 89.6874 19.252 89.4172 19.1698L88.5533 18.8676C88.2638 18.7622 87.9805 18.6411 87.705 18.5049C87.4195 18.3741 87.1569 18.2008 86.9267 17.991C86.6993 17.7767 86.5192 17.5196 86.3975 17.2354C86.254 16.8874 86.1852 16.5146 86.1951 16.1398C86.1929 15.6216 86.296 15.108 86.4986 14.6286C86.6978 14.1404 87.0031 13.6997 87.3937 13.3365C87.8083 12.9426 88.3007 12.6342 88.8413 12.4298C89.4686 12.193 90.1375 12.0775 90.8104 12.0897C91.5054 12.077 92.1953 12.2084 92.8339 12.4751C93.3871 12.7049 93.8912 13.0329 94.3204 13.4423L93.5811 14.485Z" fill="white"/>
<path d="M94.8887 23.9226L97.0056 7.08008H99.8152L98.8735 14.6362C99.3779 13.9269 100.011 13.3124 100.741 12.8227C101.389 12.3874 102.157 12.1529 102.944 12.1502C103.413 12.1445 103.877 12.2373 104.306 12.4222C104.716 12.5988 105.074 12.8714 105.349 13.2156C105.662 13.6191 105.889 14.0788 106.018 14.5682C106.184 15.1923 106.263 15.8353 106.252 16.4798C106.263 17.7656 105.998 19.0395 105.473 20.2201C105.226 20.7722 104.919 21.2967 104.555 21.7842C104.218 22.2459 103.821 22.6625 103.372 23.0234C102.942 23.3497 102.465 23.612 101.956 23.8017C101.462 23.9994 100.933 24.0996 100.399 24.0964C99.8494 24.1107 99.3043 23.9975 98.8089 23.7662C98.3135 23.5349 97.882 23.1922 97.5504 22.7665L97.457 23.1519C97.4448 23.268 97.4082 23.3804 97.3495 23.4822C97.2908 23.5841 97.2113 23.6731 97.1157 23.744C97.0202 23.8148 96.9107 23.8658 96.794 23.8939C96.6774 23.9221 96.556 23.9267 96.4375 23.9075L94.8887 23.9226ZM101.823 14.3112C101.476 14.3204 101.14 14.431 100.858 14.6286C100.496 14.8733 100.174 15.1687 99.9008 15.5051C99.5722 15.9112 99.2879 16.3492 99.0525 16.8123C98.7841 17.3326 98.5603 17.8734 98.3832 18.4293L98.0641 21.2024C98.3113 21.4706 98.6246 21.6734 98.9747 21.7918C99.2997 21.9037 99.6416 21.9624 99.9864 21.9656C100.494 21.9663 100.988 21.8013 101.387 21.4971C101.826 21.1667 102.194 20.7559 102.469 20.2881C102.779 19.7601 103.012 19.1931 103.162 18.6031C103.325 17.991 103.409 17.3615 103.411 16.7292C103.454 16.0965 103.311 15.4649 102.998 14.9082C102.875 14.716 102.701 14.5593 102.495 14.4543C102.288 14.3493 102.056 14.3 101.823 14.3112V14.3112Z" fill="white"/>
<path d="M111.085 27.1416C111.006 27.3175 110.876 27.4668 110.709 27.5704C110.543 27.674 110.349 27.7273 110.151 27.7234H108.011L110.673 23.0386L107.653 12.2939H110.066C110.152 12.2878 110.238 12.2987 110.32 12.326C110.401 12.3533 110.476 12.3963 110.54 12.4526C110.645 12.5523 110.72 12.6775 110.758 12.8152L112.229 18.8601C112.276 19.0566 112.307 19.253 112.338 19.4419C112.369 19.6308 112.385 19.8197 112.4 20.0162C112.486 19.8197 112.572 19.6308 112.665 19.4344L112.937 18.8526L115.895 12.8077C115.971 12.6581 116.087 12.5305 116.23 12.4374C116.365 12.3482 116.525 12.2984 116.689 12.2939H119.024L111.085 27.1416Z" fill="white"/>
</g>
<defs>
<clipPath id="clip0">
<rect width="119" height="32" fill="white"/>
</clipPath>
</defs>
</svg>
