<svg width="47" height="47" viewBox="0 0 47 47" fill="none" xmlns="http://www.w3.org/2000/svg">
<path d="M11.4391 44.4108C11.1932 44.2232 10.9571 44.0233 10.7317 43.812C10.1478 43.2464 9.665 42.7807 9.14849 42.2484C8.63198 41.7162 8.02563 41.1396 7.39683 40.574C5.92247 39.1607 4.62903 37.5742 3.54543 35.8502C2.1815 33.6882 1.19465 31.3155 0.626005 28.831C0.491262 28.2543 0.367748 27.6555 0.289148 27.0567C0.210548 26.4579 0.154405 25.8591 0.0421193 25.1606C-0.0140398 24.4001 -0.0140398 23.6367 0.0421193 22.8763C0.0421193 22.3107 0.120719 21.7674 0.176862 21.1797C0.16157 20.8372 0.19177 20.4942 0.266691 20.1595C0.390205 19.4609 0.513719 18.7956 0.659691 18.0859C0.886255 17.022 1.20559 15.9794 1.61412 14.9699C2.10991 13.7282 2.7109 12.5301 3.41069 11.3882C3.94914 10.4856 4.54156 9.61542 5.1848 8.78235C5.77414 8.03622 6.4078 7.32529 7.08243 6.6533C8.11765 5.64331 9.24532 4.73013 10.451 3.92545C12.4409 2.59124 14.6365 1.58391 16.9523 0.94255C17.8843 0.676419 18.8387 0.47682 19.7932 0.299398C20.3651 0.199463 20.9425 0.132815 21.5224 0.0997995C22.2073 0.0997995 22.881 0 23.6221 0H24.9808C26.1792 0.0879719 27.3691 0.265907 28.5402 0.532264C29.5215 0.734422 30.4861 1.00871 31.426 1.35284C33.7434 2.1954 35.914 3.38877 37.8599 4.89017C39.7831 6.37871 41.4578 8.15606 42.823 10.1574C43.8918 11.6476 44.767 13.2644 45.428 14.9699C45.8095 15.8969 46.1247 16.8492 46.3712 17.8197C46.5396 18.5738 46.6968 19.35 46.8091 20.1262C46.901 20.6548 46.9648 21.1878 47 21.723V25.5043C46.8746 26.9585 46.5999 28.3963 46.1803 29.7957C46.0119 30.3501 45.8322 30.9046 45.6301 31.4479C45.1615 32.834 44.5481 34.1681 43.7999 35.4288C42.68 37.3062 41.3132 39.0289 39.7351 40.5518L38.7021 41.4722C37.5509 42.4253 36.3187 43.2786 35.0191 44.0226C33.0064 45.1546 30.8341 45.9843 28.5739 46.4844C27.889 46.6285 27.2265 46.7283 26.4854 46.8392C25.8509 46.9427 25.2084 46.9909 24.5653 46.9834H23.1617C22.8777 47.0055 22.5924 47.0055 22.3084 46.9834L20.2535 46.7394C19.3287 46.6432 18.4321 46.3682 17.6148 45.9299C15.5388 44.9534 13.8545 43.3174 12.8315 41.2837C12.4714 40.6271 12.214 39.9205 12.0679 39.1879C11.9959 38.8217 11.9471 38.4513 11.9219 38.079C11.9219 37.4691 11.8209 36.8482 11.8097 36.2272C11.776 35.7177 11.776 35.2065 11.8097 34.6969C11.877 33.9651 11.9781 33.2332 12.0904 32.4792C12.1778 32.1554 12.2943 31.84 12.4385 31.5366C12.5283 31.2816 12.6406 31.0376 12.7416 30.8159C13.3222 29.6116 14.0999 28.5101 15.0435 27.5557C15.414 27.1676 15.807 26.7684 16.1663 26.4469C16.4958 26.1211 16.8746 25.848 17.2892 25.6374C18.5763 24.9892 19.9537 24.5332 21.3764 24.2845C22.235 24.1255 23.108 24.0548 23.9814 24.0738C24.7794 24.0936 25.5685 24.2435 26.317 24.5174C26.4326 24.5532 26.5423 24.6055 26.6426 24.6726C26.998 24.8673 27.3394 25.0859 27.6644 25.3269C28.434 25.9303 29.0365 26.7161 29.4161 27.6112C29.686 28.228 29.8309 28.891 29.8427 29.5628C29.8645 30.6403 29.6177 31.7065 29.1241 32.6677C28.9713 33.0168 28.7792 33.3479 28.5515 33.6546C28.1595 34.0915 27.7011 34.4656 27.1928 34.7635C26.3253 35.2518 25.3665 35.5611 24.3744 35.6728H21.9827C21.6571 35.6728 21.3315 35.7615 21.0059 35.7836C20.2858 35.8394 19.5741 35.9732 18.8837 36.1828C18.1955 36.3711 17.5484 36.6831 16.9748 37.1032C16.4753 37.4829 16.145 38.0397 16.0541 38.6557C15.9769 39.1927 16.0308 39.7401 16.2113 40.2524C16.2798 40.4542 16.3907 40.6394 16.5369 40.7958C16.8311 41.1326 17.1461 41.4511 17.4801 41.7494C18.1953 42.2993 18.9806 42.7541 19.8156 43.1023C20.7459 43.5249 21.7163 43.8555 22.7126 44.0892C23.6029 44.3008 24.5275 44.331 25.4299 44.1779C25.8489 44.1591 26.2657 44.1072 26.6763 44.0226C27.8707 43.834 29.0465 43.5447 30.1908 43.1577C32.4094 42.3973 34.4821 41.2726 36.3216 39.8311C37.0486 39.2886 37.7388 38.6996 38.3877 38.0679C40.8044 35.6557 42.5823 32.6927 43.5641 29.4408C43.8533 28.5159 44.071 27.5707 44.2153 26.6132C44.3072 26.0809 44.3709 25.5442 44.4062 25.0053C44.3925 24.6344 44.4151 24.2631 44.4736 23.8964V21.1353C44.4525 20.7846 44.4037 20.4361 44.3276 20.093C44.1808 19.0629 43.948 18.0467 43.6314 17.0546C43.1807 15.756 42.6094 14.5013 41.9247 13.3066C41.2951 12.1064 40.5426 10.9731 39.679 9.9245C39.3421 9.5253 39.0165 9.14828 38.6459 8.81562C38.2754 8.48295 37.7813 7.95069 37.2873 7.55149C35.8866 6.29553 34.3096 5.24604 32.605 4.43553C31.2909 3.79249 29.9139 3.28347 28.4953 2.91636C27.9227 2.7833 27.3725 2.66132 26.7661 2.57261C26.3203 2.49315 25.8705 2.43763 25.4187 2.40628C24.9695 2.40628 24.4081 2.40628 23.9028 2.31756H23.2403L21.3315 2.42845C20.0999 2.54604 18.882 2.7762 17.6934 3.11596C16.6481 3.40768 15.627 3.77841 14.6393 4.22484C13.3002 4.82644 12.0314 5.57007 10.8552 6.44261C9.97606 7.07445 9.14995 7.77532 8.38495 8.5384C7.24779 9.69933 6.25629 10.9912 5.43183 12.3862C4.67769 13.6449 4.03526 14.9657 3.51175 16.3338C3.16366 17.3207 2.91663 18.352 2.65838 19.3833C2.55732 19.849 2.52363 20.348 2.45626 20.8248C2.36622 21.271 2.30992 21.7232 2.28783 22.1777V24.9499C2.3181 25.3669 2.37435 25.7816 2.45626 26.1918C2.51241 26.7019 2.591 27.212 2.69206 27.711C2.87982 28.5309 3.11984 29.3383 3.41069 30.1283C4.02763 31.8983 4.86497 33.5856 5.90343 35.1516C6.58055 36.0917 7.33144 36.9779 8.14915 37.8018C8.65421 38.391 9.19811 38.9467 9.77729 39.4651C9.97935 39.6462 10.1706 39.8387 10.3499 40.0418C10.3725 40.0988 10.3725 40.1621 10.3499 40.2192C10.3499 40.452 10.3499 40.696 10.3499 40.9289C10.3474 41.3026 10.3926 41.6752 10.4847 42.0377C10.6531 42.5589 10.8552 43.069 11.0686 43.5791C11.1809 43.823 11.3044 44.067 11.4054 44.322V44.4773L11.4391 44.4108Z" fill="#A9CE40"/>
<path d="M15.2567 26.7686C14.9164 26.7908 14.5751 26.7908 14.2349 26.7686C13.5698 26.7004 12.9144 26.559 12.2811 26.3472C11.7084 26.1476 11.1582 25.9369 10.5744 25.693C9.75906 25.3602 9.00137 24.9037 8.32864 24.3401C7.39909 23.592 6.63477 22.6636 6.08292 21.6123C5.70747 20.8944 5.46055 20.1178 5.35307 19.3169C5.326 18.7907 5.35234 18.2632 5.43167 17.7423C5.45637 17.3217 5.50888 16.9031 5.58887 16.4892C5.58887 16.0679 5.66747 15.8572 5.72361 15.5467C5.89686 14.6931 6.19174 13.868 6.59944 13.0961C6.66681 12.9519 6.73418 12.7967 6.79032 12.6525C6.96965 12.1298 7.227 11.6364 7.55387 11.1888C8.09254 10.4311 8.74799 9.76136 9.49641 9.20388C9.78835 8.98211 10.0578 8.73815 10.3498 8.53855C11.1624 7.99995 12.0276 7.54303 12.9324 7.17463C13.3619 6.97152 13.8199 6.83322 14.291 6.76434C14.7102 6.72313 15.1265 6.65647 15.5374 6.56474C15.8194 6.55572 16.1007 6.5298 16.3795 6.48712L17.5024 6.4095H21.9938C22.937 6.33188 23.869 6.4095 24.801 6.4095H27.1926L29.0229 6.5093H29.9998L31.6392 6.65345C32.4587 6.72905 33.2386 7.03713 33.8849 7.54056C34.808 8.21212 35.5423 9.10523 36.0183 10.1353C36.2803 10.6973 36.4326 11.303 36.4674 11.9206C36.5056 13.3006 36.0211 14.645 35.1088 15.6908C34.8425 16.024 34.5455 16.3321 34.2217 16.6112C33.6701 17.1362 32.9948 17.5173 32.2567 17.7201C32.0577 17.7641 31.8544 17.7865 31.6504 17.7866H14.8075L13.6847 17.8532C13.3061 17.8816 12.9305 17.9409 12.5618 18.0306C11.5723 18.2224 10.6206 18.5707 9.74344 19.0619C9.10313 19.3843 8.54909 19.8516 8.12652 20.4258C7.92643 20.6876 7.78158 20.9864 7.70057 21.3045C7.61956 21.6226 7.60404 21.9535 7.65492 22.2776C7.72593 22.7083 7.88651 23.1199 8.12652 23.4863C8.43447 23.9577 8.81306 24.3801 9.24938 24.7393C9.62752 25.0438 10.0424 25.3008 10.4845 25.5045C11.1413 25.8161 11.8253 26.0685 12.5281 26.2585C13.1561 26.4358 13.7986 26.5582 14.4482 26.6244C14.7209 26.6529 14.9911 26.7011 15.2567 26.7686V26.7686Z" fill="#279C3F"/>
<path d="M15.2567 26.7684C14.9985 26.7684 14.7514 26.6575 14.5044 26.6353C13.8529 26.5573 13.2076 26.435 12.5731 26.2694C11.872 26.0804 11.1913 25.8242 10.5407 25.5043C10.1024 25.2865 9.69159 25.0186 9.3168 24.7059C8.88477 24.3423 8.50677 23.9205 8.19395 23.4528C7.95393 23.0864 7.79336 22.6749 7.72235 22.2441C7.67392 21.9235 7.69068 21.5966 7.77165 21.2824C7.85262 20.9683 7.99619 20.6732 8.19395 20.4145C8.58858 19.8568 9.10217 19.3912 9.69858 19.0506C10.5857 18.5959 11.5411 18.2852 12.5282 18.1302C12.9055 18.0919 13.2804 18.0327 13.651 17.9528L14.7739 17.8862H16.009L14.6391 18.0304L13.7745 18.1302C13.2789 18.1958 12.7927 18.3186 12.3261 18.4961C11.7214 18.6959 11.1556 18.9958 10.653 19.3832C10.18 19.7622 9.83212 20.2718 9.65366 20.8469C9.56481 21.1771 9.54587 21.5218 9.59804 21.8595C9.6502 22.1972 9.77234 22.5207 9.95683 22.8097C10.1555 23.1353 10.4014 23.4304 10.6867 23.6857L11.2593 24.218C12.0068 24.9131 12.8591 25.4892 13.7858 25.9256C14.2523 26.1316 14.706 26.3649 15.1444 26.6242V26.6242L15.2567 26.7684Z" fill="#5FBA74"/>
</svg>
