<svg width="1227" height="117" viewBox="0 0 1227 117" fill="none" xmlns="http://www.w3.org/2000/svg">
<line x1="46" y1="13.7046" x2="1175.99" y2="13.7046" stroke="white" stroke-width="2"/>
<circle cx="49.5" cy="14.5" r="13" fill="#27AE60" stroke="white" stroke-width="3"/>
<circle cx="333.5" cy="14.5" r="13" fill="#27AE60" stroke="white" stroke-width="3"/>
<circle cx="618.5" cy="14.5" r="13" fill="#27AE60" stroke="white" stroke-width="3"/>
<circle cx="901.5" cy="14.5" r="13" fill="#27AE60" stroke="white" stroke-width="3"/>
<circle cx="1182.5" cy="14.5" r="13" fill="#27AE60" stroke="white" stroke-width="3"/>
<path d="M17.9763 53.904C19.6723 53.904 21.0643 54.312 22.1523 55.128C23.2563 55.928 23.9363 57.024 24.1923 58.416L20.5203 59.376C20.3923 58.736 20.0883 58.264 19.6083 57.96C19.1443 57.64 18.5683 57.48 17.8803 57.48C17.1443 57.48 16.5763 57.648 16.1763 57.984C15.7763 58.304 15.5763 58.728 15.5763 59.256C15.5763 60.136 16.1363 60.704 17.2563 60.96L20.0163 61.656C21.6643 62.072 22.8563 62.728 23.5923 63.624C24.3283 64.504 24.6963 65.568 24.6963 66.816C24.6963 67.632 24.5363 68.384 24.2162 69.072C23.9123 69.744 23.4723 70.32 22.8963 70.8C22.3203 71.28 21.6243 71.656 20.8083 71.928C20.0083 72.184 19.1123 72.312 18.1203 72.312C17.2083 72.312 16.3603 72.2 15.5763 71.976C14.7923 71.736 14.1043 71.408 13.5123 70.992C12.9203 70.56 12.4323 70.056 12.0483 69.48C11.6803 68.888 11.4403 68.24 11.3283 67.536L14.9763 66.6C15.0723 67.288 15.4163 67.816 16.0083 68.184C16.6003 68.536 17.3523 68.712 18.2643 68.712C19.0963 68.712 19.7283 68.56 20.1603 68.256C20.5923 67.952 20.8083 67.544 20.8083 67.032C20.8083 66.184 20.2643 65.624 19.1763 65.352L16.3683 64.68C14.7363 64.296 13.5443 63.64 12.7923 62.712C12.0563 61.784 11.6883 60.688 11.6883 59.424C11.6883 58.608 11.8323 57.864 12.1203 57.192C12.4243 56.504 12.8483 55.92 13.3923 55.44C13.9523 54.96 14.6163 54.584 15.3843 54.312C16.1683 54.04 17.0323 53.904 17.9763 53.904ZM38.3339 67.224H29.5979C29.6939 67.896 29.9899 68.392 30.4859 68.712C30.9979 69.016 31.5899 69.168 32.2619 69.168C33.4619 69.168 34.3099 68.688 34.8059 67.728L37.8779 68.928C37.4619 69.984 36.7499 70.816 35.7419 71.424C34.7339 72.016 33.5819 72.312 32.2859 72.312C31.3899 72.312 30.5659 72.16 29.8139 71.856C29.0619 71.552 28.4139 71.12 27.8699 70.56C27.3259 70 26.9019 69.336 26.5979 68.568C26.2939 67.784 26.1419 66.92 26.1419 65.976C26.1419 65.016 26.2939 64.152 26.5979 63.384C26.9019 62.6 27.3179 61.928 27.8459 61.368C28.3899 60.808 29.0379 60.376 29.7899 60.072C30.5579 59.768 31.3979 59.616 32.3099 59.616C33.2219 59.616 34.0459 59.768 34.7819 60.072C35.5179 60.376 36.1499 60.808 36.6779 61.368C37.2059 61.928 37.6139 62.6 37.9019 63.384C38.1899 64.168 38.3339 65.04 38.3339 66V67.224ZM34.5659 64.704C34.5019 64.016 34.2619 63.504 33.8459 63.168C33.4459 62.832 32.9099 62.664 32.2379 62.664C31.5659 62.664 31.0059 62.84 30.5579 63.192C30.1259 63.528 29.8379 64.032 29.6939 64.704H34.5659ZM40.2625 53.904H43.9825V72H40.2625V53.904ZM57.9745 67.224H49.2385C49.3345 67.896 49.6305 68.392 50.1265 68.712C50.6385 69.016 51.2305 69.168 51.9025 69.168C53.1025 69.168 53.9505 68.688 54.4465 67.728L57.5185 68.928C57.1025 69.984 56.3905 70.816 55.3825 71.424C54.3745 72.016 53.2225 72.312 51.9265 72.312C51.0305 72.312 50.2065 72.16 49.4545 71.856C48.7025 71.552 48.0545 71.12 47.5105 70.56C46.9665 70 46.5425 69.336 46.2385 68.568C45.9345 67.784 45.7825 66.92 45.7825 65.976C45.7825 65.016 45.9345 64.152 46.2385 63.384C46.5425 62.6 46.9585 61.928 47.4865 61.368C48.0305 60.808 48.6785 60.376 49.4305 60.072C50.1985 59.768 51.0385 59.616 51.9505 59.616C52.8625 59.616 53.6865 59.768 54.4225 60.072C55.1585 60.376 55.7905 60.808 56.3185 61.368C56.8465 61.928 57.2545 62.6 57.5425 63.384C57.8305 64.168 57.9745 65.04 57.9745 66V67.224ZM54.2065 64.704C54.1425 64.016 53.9025 63.504 53.4865 63.168C53.0865 62.832 52.5505 62.664 51.8785 62.664C51.2065 62.664 50.6465 62.84 50.1985 63.192C49.7665 63.528 49.4785 64.032 49.3345 64.704H54.2065ZM65.6871 59.616C67.1111 59.616 68.3351 59.976 69.3591 60.696C70.3831 61.384 71.0551 62.312 71.3751 63.48L68.2071 64.728C68.0471 64.2 67.7431 63.776 67.2951 63.456C66.8631 63.136 66.3591 62.976 65.7831 62.976C64.9511 62.976 64.3031 63.248 63.8391 63.792C63.3751 64.336 63.1431 65.072 63.1431 66C63.1431 66.928 63.3751 67.656 63.8391 68.184C64.3191 68.696 64.9671 68.952 65.7831 68.952C66.3751 68.952 66.8951 68.8 67.3431 68.496C67.7911 68.192 68.0951 67.784 68.2551 67.272L71.3751 68.424C71.0231 69.592 70.3271 70.536 69.2871 71.256C68.2471 71.96 67.0471 72.312 65.6871 72.312C64.7591 72.312 63.9031 72.16 63.1191 71.856C62.3511 71.552 61.6951 71.12 61.1511 70.56C60.6071 70 60.1831 69.336 59.8791 68.568C59.5751 67.784 59.4231 66.928 59.4231 66C59.4231 65.04 59.5751 64.168 59.8791 63.384C60.1831 62.6 60.6071 61.928 61.1511 61.368C61.6951 60.808 62.3511 60.376 63.1191 60.072C63.9031 59.768 64.7591 59.616 65.6871 59.616ZM80.6299 63.072H78.3739V72H74.7259V63.072H72.4459V60H74.7259V56.28H78.3739V60H80.6299V63.072ZM13.1458 102.52V106H2.87378H2.24978V88.24H6.18578V102.52H13.1458ZM20.8423 93.64C21.8023 93.64 22.6663 93.792 23.4343 94.096C24.2183 94.4 24.8903 94.832 25.4503 95.392C26.0103 95.952 26.4423 96.624 26.7463 97.408C27.0503 98.176 27.2023 99.032 27.2023 99.976C27.2023 100.904 27.0503 101.76 26.7463 102.544C26.4423 103.312 26.0103 103.976 25.4503 104.536C24.8903 105.096 24.2183 105.528 23.4343 105.832C22.6663 106.136 21.8023 106.288 20.8423 106.288C19.8823 106.288 19.0103 106.136 18.2263 105.832C17.4423 105.528 16.7703 105.096 16.2103 104.536C15.6503 103.976 15.2183 103.312 14.9143 102.544C14.6103 101.76 14.4583 100.904 14.4583 99.976C14.4583 99.032 14.6103 98.176 14.9143 97.408C15.2183 96.624 15.6503 95.952 16.2103 95.392C16.7703 94.832 17.4423 94.4 18.2263 94.096C19.0103 93.792 19.8823 93.64 20.8423 93.64ZM20.8423 102.976C21.6583 102.976 22.2983 102.704 22.7623 102.16C23.2423 101.6 23.4823 100.864 23.4823 99.952C23.4823 99.04 23.2423 98.312 22.7623 97.768C22.2983 97.224 21.6583 96.952 20.8423 96.952C20.0263 96.952 19.3783 97.224 18.8983 97.768C18.4183 98.312 18.1783 99.04 18.1783 99.952C18.1783 100.864 18.4183 101.6 18.8983 102.16C19.3783 102.704 20.0263 102.976 20.8423 102.976ZM34.902 93.616C36.326 93.616 37.55 93.976 38.574 94.696C39.598 95.384 40.27 96.312 40.59 97.48L37.422 98.728C37.262 98.2 36.958 97.776 36.51 97.456C36.078 97.136 35.574 96.976 34.998 96.976C34.166 96.976 33.518 97.248 33.054 97.792C32.59 98.336 32.358 99.072 32.358 100C32.358 100.928 32.59 101.656 33.054 102.184C33.534 102.696 34.182 102.952 34.998 102.952C35.59 102.952 36.11 102.8 36.558 102.496C37.006 102.192 37.31 101.784 37.47 101.272L40.59 102.424C40.238 103.592 39.542 104.536 38.502 105.256C37.462 105.96 36.262 106.312 34.902 106.312C33.974 106.312 33.118 106.16 32.334 105.856C31.566 105.552 30.91 105.12 30.366 104.56C29.822 104 29.398 103.336 29.094 102.568C28.79 101.784 28.638 100.928 28.638 100C28.638 99.04 28.79 98.168 29.094 97.384C29.398 96.6 29.822 95.928 30.366 95.368C30.91 94.808 31.566 94.376 32.334 94.072C33.118 93.768 33.974 93.616 34.902 93.616ZM49.7728 106C49.7408 105.856 49.7088 105.704 49.6768 105.544C49.6608 105.368 49.6368 105.184 49.6048 104.992C49.2848 105.376 48.8448 105.696 48.2848 105.952C47.7248 106.192 47.0608 106.312 46.2928 106.312C45.6528 106.312 45.0608 106.216 44.5168 106.024C43.9888 105.848 43.5328 105.592 43.1488 105.256C42.7648 104.92 42.4688 104.512 42.2608 104.032C42.0528 103.536 41.9488 102.976 41.9488 102.352C41.9488 101.152 42.3328 100.232 43.1008 99.592C43.8688 98.936 44.9328 98.608 46.2928 98.608H49.5088V98.224C49.5088 97.664 49.3248 97.248 48.9568 96.976C48.5888 96.704 48.0928 96.568 47.4688 96.568C46.2848 96.568 45.4208 97.08 44.8768 98.104L42.2128 96.592C43.2848 94.608 45.1088 93.616 47.6848 93.616C49.2688 93.616 50.5648 94.024 51.5728 94.84C52.5968 95.624 53.1088 96.968 53.1088 98.872V103.144C53.1088 103.816 53.1328 104.416 53.1808 104.944C53.2288 105.456 53.2848 105.808 53.3488 106H49.7728ZM49.5328 101.056H47.2048C46.7088 101.056 46.3328 101.168 46.0768 101.392C45.8368 101.616 45.7168 101.92 45.7168 102.304C45.7168 103.152 46.2688 103.576 47.3728 103.576C47.9008 103.576 48.3888 103.424 48.8368 103.12C49.3008 102.8 49.5328 102.176 49.5328 101.248V101.056ZM63.8244 90.016C63.8244 89.424 64.0244 88.928 64.4244 88.528C64.8404 88.128 65.3444 87.928 65.9364 87.928C66.5124 87.928 67.0004 88.128 67.4004 88.528C67.8164 88.928 68.0244 89.424 68.0244 90.016C68.0244 90.608 67.8164 91.112 67.4004 91.528C67.0004 91.928 66.5124 92.128 65.9364 92.128C65.3444 92.128 64.8404 91.928 64.4244 91.528C64.0244 91.112 63.8244 90.608 63.8244 90.016ZM67.7364 94V106H64.0164V97.072H60.0084V106H56.3604V97.072H54.0804V94H56.3604V90.28H60.0084V94H67.7364ZM76.3188 93.64C77.2788 93.64 78.1428 93.792 78.9108 94.096C79.6948 94.4 80.3668 94.832 80.9268 95.392C81.4868 95.952 81.9188 96.624 82.2228 97.408C82.5268 98.176 82.6788 99.032 82.6788 99.976C82.6788 100.904 82.5268 101.76 82.2228 102.544C81.9188 103.312 81.4868 103.976 80.9268 104.536C80.3668 105.096 79.6948 105.528 78.9108 105.832C78.1428 106.136 77.2788 106.288 76.3188 106.288C75.3588 106.288 74.4868 106.136 73.7028 105.832C72.9188 105.528 72.2468 105.096 71.6868 104.536C71.1268 103.976 70.6948 103.312 70.3908 102.544C70.0868 101.76 69.9348 100.904 69.9348 99.976C69.9348 99.032 70.0868 98.176 70.3908 97.408C70.6948 96.624 71.1268 95.952 71.6868 95.392C72.2468 94.832 72.9188 94.4 73.7028 94.096C74.4868 93.792 75.3588 93.64 76.3188 93.64ZM76.3188 102.976C77.1348 102.976 77.7748 102.704 78.2388 102.16C78.7188 101.6 78.9588 100.864 78.9588 99.952C78.9588 99.04 78.7188 98.312 78.2388 97.768C77.7748 97.224 77.1348 96.952 76.3188 96.952C75.5028 96.952 74.8548 97.224 74.3748 97.768C73.8948 98.312 73.6548 99.04 73.6548 99.952C73.6548 100.864 73.8948 101.6 74.3748 102.16C74.8548 102.704 75.5028 102.976 76.3188 102.976ZM96.3813 98.584V106H92.6853V99.472C92.6853 98.448 92.4613 97.784 92.0133 97.48C91.5653 97.144 91.0853 96.976 90.5733 96.976C89.9973 96.976 89.4533 97.136 88.9413 97.456C88.4293 97.776 88.1733 98.432 88.1733 99.424V106H84.4773V94H88.0053L88.1013 94.984C88.4373 94.568 88.8933 94.24 89.4693 94C90.0613 93.744 90.7013 93.616 91.3893 93.616C93.0373 93.616 94.2773 94.056 95.1093 94.936C95.9573 95.816 96.3813 97.032 96.3813 98.584Z" fill="white"/>
<path d="M324.22 60.168C324.22 61.048 324.084 61.856 323.812 62.592C323.54 63.328 323.14 63.96 322.612 64.488C322.1 65 321.468 65.4 320.716 65.688C319.964 65.976 319.108 66.12 318.148 66.12H314.86V72H310.972V54.24H314.86H318.196C319.14 54.24 319.98 54.376 320.716 54.648C321.468 54.92 322.1 55.32 322.612 55.848C323.124 56.36 323.516 56.984 323.788 57.72C324.076 58.44 324.22 59.256 324.22 60.168ZM320.116 60.096C320.116 59.456 319.9 58.896 319.468 58.416C319.036 57.92 318.356 57.672 317.428 57.672H314.86V62.76H317.428C318.356 62.76 319.036 62.512 319.468 62.016C319.9 61.504 320.116 60.864 320.116 60.096ZM326.028 56.016C326.028 55.424 326.228 54.928 326.628 54.528C327.044 54.128 327.548 53.928 328.14 53.928C328.716 53.928 329.204 54.128 329.604 54.528C330.02 54.928 330.228 55.424 330.228 56.016C330.228 56.608 330.02 57.112 329.604 57.528C329.204 57.928 328.716 58.128 328.14 58.128C327.548 58.128 327.044 57.928 326.628 57.528C326.228 57.112 326.028 56.608 326.028 56.016ZM329.988 60V72H326.268V60H329.988ZM338.164 59.616C339.588 59.616 340.812 59.976 341.836 60.696C342.86 61.384 343.532 62.312 343.852 63.48L340.684 64.728C340.524 64.2 340.22 63.776 339.772 63.456C339.34 63.136 338.836 62.976 338.26 62.976C337.428 62.976 336.78 63.248 336.316 63.792C335.852 64.336 335.62 65.072 335.62 66C335.62 66.928 335.852 67.656 336.316 68.184C336.796 68.696 337.444 68.952 338.26 68.952C338.852 68.952 339.372 68.8 339.82 68.496C340.268 68.192 340.572 67.784 340.732 67.272L343.852 68.424C343.5 69.592 342.804 70.536 341.764 71.256C340.724 71.96 339.524 72.312 338.164 72.312C337.236 72.312 336.38 72.16 335.596 71.856C334.828 71.552 334.172 71.12 333.628 70.56C333.084 70 332.66 69.336 332.356 68.568C332.052 67.784 331.9 66.928 331.9 66C331.9 65.04 332.052 64.168 332.356 63.384C332.66 62.6 333.084 61.928 333.628 61.368C334.172 60.808 334.828 60.376 335.596 60.072C336.38 59.768 337.236 59.616 338.164 59.616ZM345.528 72V53.904H349.248V64.104L353.112 60H357.744L352.464 65.592L357.336 72H352.8L350.016 68.16L349.248 69V72H345.528ZM303.859 106V88.24H307.747V106H303.859ZM318.103 97.072H315.847V106H312.199V97.072H309.919V94H312.199V90.28H315.847V94H318.103V97.072ZM331.142 101.224H322.406C322.502 101.896 322.798 102.392 323.294 102.712C323.806 103.016 324.398 103.168 325.07 103.168C326.27 103.168 327.118 102.688 327.614 101.728L330.686 102.928C330.27 103.984 329.558 104.816 328.55 105.424C327.542 106.016 326.39 106.312 325.094 106.312C324.198 106.312 323.374 106.16 322.622 105.856C321.87 105.552 321.222 105.12 320.678 104.56C320.134 104 319.71 103.336 319.406 102.568C319.102 101.784 318.95 100.92 318.95 99.976C318.95 99.016 319.102 98.152 319.406 97.384C319.71 96.6 320.126 95.928 320.654 95.368C321.198 94.808 321.846 94.376 322.598 94.072C323.366 93.768 324.206 93.616 325.118 93.616C326.03 93.616 326.854 93.768 327.59 94.072C328.326 94.376 328.958 94.808 329.486 95.368C330.014 95.928 330.422 96.6 330.71 97.384C330.998 98.168 331.142 99.04 331.142 100V101.224ZM327.374 98.704C327.31 98.016 327.07 97.504 326.654 97.168C326.254 96.832 325.718 96.664 325.046 96.664C324.374 96.664 323.814 96.84 323.366 97.192C322.934 97.528 322.646 98.032 322.502 98.704H327.374ZM352.199 98.488V106H348.599V99.064C348.599 98.328 348.423 97.776 348.071 97.408C347.719 97.024 347.239 96.832 346.631 96.832C346.023 96.832 345.519 97.032 345.119 97.432C344.719 97.816 344.519 98.488 344.519 99.448V106H340.871V99.064C340.871 98.344 340.695 97.8 340.343 97.432C340.007 97.048 339.535 96.856 338.927 96.856C338.319 96.856 337.807 97.056 337.391 97.456C336.991 97.856 336.791 98.52 336.791 99.448V106H333.071V94H336.527L336.647 94.96C337.319 94.048 338.415 93.592 339.935 93.592C340.847 93.592 341.631 93.768 342.287 94.12C342.959 94.472 343.487 95.008 343.871 95.728C344.175 95.056 344.647 94.536 345.287 94.168C345.943 93.784 346.735 93.592 347.663 93.592C349.055 93.592 350.159 94.024 350.975 94.888C351.791 95.736 352.199 96.936 352.199 98.488ZM359.17 103.408C359.586 103.408 359.914 103.328 360.154 103.168C360.394 103.008 360.514 102.784 360.514 102.496C360.514 102.08 360.21 101.792 359.602 101.632L358.09 101.224C356.778 100.872 355.85 100.392 355.306 99.784C354.762 99.176 354.49 98.44 354.49 97.576C354.49 97 354.594 96.472 354.802 95.992C355.026 95.496 355.338 95.08 355.738 94.744C356.138 94.392 356.626 94.12 357.202 93.928C357.794 93.72 358.458 93.616 359.194 93.616C360.458 93.616 361.514 93.904 362.362 94.48C363.226 95.04 363.762 95.832 363.97 96.856L360.634 97.624C360.602 97.288 360.466 97.024 360.226 96.832C359.986 96.64 359.682 96.544 359.314 96.544C358.962 96.544 358.674 96.632 358.45 96.808C358.226 96.968 358.114 97.2 358.114 97.504C358.114 97.728 358.194 97.92 358.354 98.08C358.53 98.224 358.834 98.352 359.266 98.464L360.73 98.848C363.066 99.456 364.234 100.68 364.234 102.52C364.234 103.672 363.794 104.592 362.914 105.28C362.05 105.968 360.818 106.312 359.218 106.312C357.682 106.312 356.49 105.992 355.642 105.352C354.794 104.712 354.29 103.856 354.13 102.784L357.538 102.208C357.554 102.576 357.706 102.872 357.994 103.096C358.282 103.304 358.674 103.408 359.17 103.408Z" fill="white"/>
<path d="M585.107 60.168C585.107 61.048 584.971 61.856 584.699 62.592C584.427 63.328 584.027 63.96 583.499 64.488C582.987 65 582.355 65.4 581.603 65.688C580.851 65.976 579.995 66.12 579.035 66.12H575.747V72H571.859V54.24H575.747H579.083C580.027 54.24 580.867 54.376 581.603 54.648C582.355 54.92 582.987 55.32 583.499 55.848C584.011 56.36 584.403 56.984 584.675 57.72C584.963 58.44 585.107 59.256 585.107 60.168ZM581.003 60.096C581.003 59.456 580.787 58.896 580.355 58.416C579.923 57.92 579.243 57.672 578.315 57.672H575.747V62.76H578.315C579.243 62.76 579.923 62.512 580.355 62.016C580.787 61.504 581.003 60.864 581.003 60.096ZM593.731 59.832C594.323 59.832 594.819 59.888 595.219 60V63.408C594.627 63.28 594.163 63.216 593.827 63.216C592.819 63.216 592.043 63.528 591.499 64.152C590.955 64.76 590.683 65.64 590.683 66.792V72H586.915V60.024H590.371L590.563 61.32C590.819 60.824 591.227 60.456 591.787 60.216C592.363 59.96 593.011 59.832 593.731 59.832ZM602.545 59.64C603.505 59.64 604.369 59.792 605.137 60.096C605.921 60.4 606.593 60.832 607.153 61.392C607.713 61.952 608.145 62.624 608.449 63.408C608.753 64.176 608.905 65.032 608.905 65.976C608.905 66.904 608.753 67.76 608.449 68.544C608.145 69.312 607.713 69.976 607.153 70.536C606.593 71.096 605.921 71.528 605.137 71.832C604.369 72.136 603.505 72.288 602.545 72.288C601.585 72.288 600.713 72.136 599.929 71.832C599.145 71.528 598.473 71.096 597.913 70.536C597.353 69.976 596.921 69.312 596.617 68.544C596.313 67.76 596.161 66.904 596.161 65.976C596.161 65.032 596.313 64.176 596.617 63.408C596.921 62.624 597.353 61.952 597.913 61.392C598.473 60.832 599.145 60.4 599.929 60.096C600.713 59.792 601.585 59.64 602.545 59.64ZM602.545 68.976C603.361 68.976 604.001 68.704 604.465 68.16C604.945 67.6 605.185 66.864 605.185 65.952C605.185 65.04 604.945 64.312 604.465 63.768C604.001 63.224 603.361 62.952 602.545 62.952C601.729 62.952 601.081 63.224 600.601 63.768C600.121 64.312 599.881 65.04 599.881 65.952C599.881 66.864 600.121 67.6 600.601 68.16C601.081 68.704 601.729 68.976 602.545 68.976ZM616.605 59.616C618.029 59.616 619.253 59.976 620.277 60.696C621.301 61.384 621.973 62.312 622.293 63.48L619.125 64.728C618.965 64.2 618.661 63.776 618.213 63.456C617.781 63.136 617.277 62.976 616.701 62.976C615.869 62.976 615.221 63.248 614.757 63.792C614.293 64.336 614.061 65.072 614.061 66C614.061 66.928 614.293 67.656 614.757 68.184C615.237 68.696 615.885 68.952 616.701 68.952C617.293 68.952 617.813 68.8 618.261 68.496C618.709 68.192 619.013 67.784 619.173 67.272L622.293 68.424C621.941 69.592 621.245 70.536 620.205 71.256C619.165 71.96 617.965 72.312 616.605 72.312C615.677 72.312 614.821 72.16 614.037 71.856C613.269 71.552 612.613 71.12 612.069 70.56C611.525 70 611.101 69.336 610.797 68.568C610.493 67.784 610.341 66.928 610.341 66C610.341 65.04 610.493 64.168 610.797 63.384C611.101 62.6 611.525 61.928 612.069 61.368C612.613 60.808 613.269 60.376 614.037 60.072C614.821 59.768 615.677 59.616 616.605 59.616ZM635.799 67.224H627.063C627.159 67.896 627.455 68.392 627.951 68.712C628.463 69.016 629.055 69.168 629.727 69.168C630.927 69.168 631.775 68.688 632.271 67.728L635.343 68.928C634.927 69.984 634.215 70.816 633.207 71.424C632.199 72.016 631.047 72.312 629.751 72.312C628.855 72.312 628.031 72.16 627.279 71.856C626.527 71.552 625.879 71.12 625.335 70.56C624.791 70 624.367 69.336 624.063 68.568C623.759 67.784 623.607 66.92 623.607 65.976C623.607 65.016 623.759 64.152 624.063 63.384C624.367 62.6 624.783 61.928 625.311 61.368C625.855 60.808 626.503 60.376 627.255 60.072C628.023 59.768 628.863 59.616 629.775 59.616C630.687 59.616 631.511 59.768 632.247 60.072C632.983 60.376 633.615 60.808 634.143 61.368C634.671 61.928 635.079 62.6 635.367 63.384C635.655 64.168 635.799 65.04 635.799 66V67.224ZM632.031 64.704C631.967 64.016 631.727 63.504 631.311 63.168C630.911 62.832 630.375 62.664 629.703 62.664C629.031 62.664 628.471 62.84 628.023 63.192C627.591 63.528 627.303 64.032 627.159 64.704H632.031ZM649.439 67.224H640.703C640.799 67.896 641.095 68.392 641.591 68.712C642.103 69.016 642.695 69.168 643.367 69.168C644.567 69.168 645.415 68.688 645.911 67.728L648.983 68.928C648.567 69.984 647.855 70.816 646.847 71.424C645.839 72.016 644.687 72.312 643.391 72.312C642.495 72.312 641.671 72.16 640.919 71.856C640.167 71.552 639.519 71.12 638.975 70.56C638.431 70 638.007 69.336 637.703 68.568C637.399 67.784 637.247 66.92 637.247 65.976C637.247 65.016 637.399 64.152 637.703 63.384C638.007 62.6 638.423 61.928 638.951 61.368C639.495 60.808 640.143 60.376 640.895 60.072C641.663 59.768 642.503 59.616 643.415 59.616C644.327 59.616 645.151 59.768 645.887 60.072C646.623 60.376 647.255 60.808 647.783 61.368C648.311 61.928 648.719 62.6 649.007 63.384C649.295 64.168 649.439 65.04 649.439 66V67.224ZM645.671 64.704C645.607 64.016 645.367 63.504 644.951 63.168C644.551 62.832 644.015 62.664 643.343 62.664C642.671 62.664 642.111 62.84 641.663 63.192C641.231 63.528 640.943 64.032 640.799 64.704H645.671ZM660.968 72C660.888 71.696 660.824 71.288 660.776 70.776C660.408 71.256 659.888 71.632 659.216 71.904C658.544 72.176 657.816 72.312 657.032 72.312C655.224 72.312 653.744 71.784 652.592 70.728C651.456 69.64 650.888 68.064 650.888 66C650.888 65.024 651.048 64.144 651.368 63.36C651.688 62.576 652.128 61.912 652.688 61.368C653.248 60.808 653.904 60.376 654.656 60.072C655.424 59.768 656.256 59.616 657.152 59.616C657.824 59.616 658.488 59.728 659.144 59.952C659.8 60.16 660.328 60.48 660.728 60.912V53.904H664.424V68.76C664.424 69.224 664.448 69.84 664.496 70.608C664.544 71.392 664.6 71.856 664.664 72H660.968ZM660.656 65.952C660.656 65.024 660.368 64.296 659.792 63.768C659.232 63.224 658.52 62.952 657.656 62.952C656.792 62.952 656.072 63.224 655.496 63.768C654.92 64.296 654.632 65.024 654.632 65.952C654.632 66.88 654.92 67.616 655.496 68.16C656.072 68.688 656.792 68.952 657.656 68.952C658.52 68.952 659.232 68.688 659.792 68.16C660.368 67.616 660.656 66.88 660.656 65.952ZM576.749 94.336C576.477 93.456 575.997 92.8 575.309 92.368C574.637 91.92 573.837 91.696 572.909 91.696C572.189 91.696 571.541 91.824 570.965 92.08C570.389 92.336 569.901 92.704 569.501 93.184C569.101 93.648 568.789 94.216 568.565 94.888C568.357 95.56 568.253 96.304 568.253 97.12C568.253 98.816 568.669 100.136 569.501 101.08C570.349 102.008 571.477 102.472 572.885 102.472C573.893 102.472 574.781 102.232 575.549 101.752C576.317 101.272 576.853 100.64 577.157 99.856L580.853 101.44C580.229 102.992 579.197 104.192 577.757 105.04C576.333 105.872 574.701 106.288 572.861 106.288C571.549 106.288 570.357 106.072 569.285 105.64C568.213 105.208 567.293 104.592 566.525 103.792C565.773 102.992 565.189 102.032 564.773 100.912C564.357 99.792 564.149 98.552 564.149 97.192C564.133 95.832 564.333 94.584 564.749 93.448C565.181 92.296 565.781 91.312 566.549 90.496C567.333 89.664 568.261 89.024 569.333 88.576C570.421 88.128 571.613 87.912 572.909 87.928C574.797 87.928 576.429 88.4 577.805 89.344C579.181 90.272 580.069 91.52 580.469 93.088L576.749 94.336ZM594.67 98.584V106H590.974V99.472C590.974 98.448 590.75 97.784 590.302 97.48C589.854 97.144 589.374 96.976 588.862 96.976C588.286 96.976 587.742 97.136 587.23 97.456C586.718 97.776 586.462 98.432 586.462 99.424V106H582.766V87.904H586.486V94.864C586.838 94.48 587.294 94.176 587.854 93.952C588.43 93.728 589.038 93.616 589.678 93.616C591.326 93.616 592.566 94.056 593.398 94.936C594.246 95.816 594.67 97.032 594.67 98.584ZM608.541 101.224H599.805C599.901 101.896 600.197 102.392 600.693 102.712C601.205 103.016 601.797 103.168 602.469 103.168C603.669 103.168 604.517 102.688 605.013 101.728L608.085 102.928C607.669 103.984 606.957 104.816 605.949 105.424C604.941 106.016 603.789 106.312 602.493 106.312C601.597 106.312 600.773 106.16 600.021 105.856C599.269 105.552 598.621 105.12 598.077 104.56C597.533 104 597.109 103.336 596.805 102.568C596.501 101.784 596.349 100.92 596.349 99.976C596.349 99.016 596.501 98.152 596.805 97.384C597.109 96.6 597.525 95.928 598.053 95.368C598.597 94.808 599.245 94.376 599.997 94.072C600.765 93.768 601.605 93.616 602.517 93.616C603.429 93.616 604.253 93.768 604.989 94.072C605.725 94.376 606.357 94.808 606.885 95.368C607.413 95.928 607.821 96.6 608.109 97.384C608.397 98.168 608.541 99.04 608.541 100V101.224ZM604.773 98.704C604.709 98.016 604.469 97.504 604.053 97.168C603.653 96.832 603.117 96.664 602.445 96.664C601.773 96.664 601.213 96.84 600.765 97.192C600.333 97.528 600.045 98.032 599.901 98.704H604.773ZM616.254 93.616C617.678 93.616 618.902 93.976 619.926 94.696C620.95 95.384 621.622 96.312 621.942 97.48L618.774 98.728C618.614 98.2 618.31 97.776 617.862 97.456C617.43 97.136 616.926 96.976 616.35 96.976C615.518 96.976 614.87 97.248 614.406 97.792C613.942 98.336 613.71 99.072 613.71 100C613.71 100.928 613.942 101.656 614.406 102.184C614.886 102.696 615.534 102.952 616.35 102.952C616.942 102.952 617.462 102.8 617.91 102.496C618.358 102.192 618.662 101.784 618.822 101.272L621.942 102.424C621.59 103.592 620.894 104.536 619.854 105.256C618.814 105.96 617.614 106.312 616.254 106.312C615.326 106.312 614.47 106.16 613.686 105.856C612.918 105.552 612.262 105.12 611.718 104.56C611.174 104 610.75 103.336 610.446 102.568C610.142 101.784 609.99 100.928 609.99 100C609.99 99.04 610.142 98.168 610.446 97.384C610.75 96.6 611.174 95.928 611.718 95.368C612.262 94.808 612.918 94.376 613.686 94.072C614.47 93.768 615.326 93.616 616.254 93.616ZM623.618 106V87.904H627.338V98.104L631.202 94H635.834L630.554 99.592L635.426 106H630.89L628.106 102.16L627.338 103V106H623.618ZM642.084 93.64C643.044 93.64 643.908 93.792 644.676 94.096C645.46 94.4 646.132 94.832 646.692 95.392C647.252 95.952 647.684 96.624 647.988 97.408C648.292 98.176 648.444 99.032 648.444 99.976C648.444 100.904 648.292 101.76 647.988 102.544C647.684 103.312 647.252 103.976 646.692 104.536C646.132 105.096 645.46 105.528 644.676 105.832C643.908 106.136 643.044 106.288 642.084 106.288C641.124 106.288 640.252 106.136 639.468 105.832C638.684 105.528 638.012 105.096 637.452 104.536C636.892 103.976 636.46 103.312 636.156 102.544C635.852 101.76 635.7 100.904 635.7 99.976C635.7 99.032 635.852 98.176 636.156 97.408C636.46 96.624 636.892 95.952 637.452 95.392C638.012 94.832 638.684 94.4 639.468 94.096C640.252 93.792 641.124 93.64 642.084 93.64ZM642.084 102.976C642.9 102.976 643.54 102.704 644.004 102.16C644.484 101.6 644.724 100.864 644.724 99.952C644.724 99.04 644.484 98.312 644.004 97.768C643.54 97.224 642.9 96.952 642.084 96.952C641.268 96.952 640.62 97.224 640.14 97.768C639.66 98.312 639.42 99.04 639.42 99.952C639.42 100.864 639.66 101.6 640.14 102.16C640.62 102.704 641.268 102.976 642.084 102.976ZM658.904 106C658.808 105.76 658.736 105.432 658.688 105.016C658.016 105.88 656.928 106.312 655.424 106.312C654.032 106.312 652.84 105.944 651.848 105.208C650.856 104.456 650.36 103.168 650.36 101.344V94H654.08V100.528C654.08 101.536 654.304 102.208 654.752 102.544C655.216 102.864 655.712 103.024 656.24 103.024C656.784 103.024 657.312 102.864 657.824 102.544C658.336 102.208 658.592 101.552 658.592 100.576V94H662.312V103.768C662.312 104.072 662.336 104.456 662.384 104.92C662.432 105.368 662.496 105.728 662.576 106H658.904ZM672.329 97.072H670.073V106H666.425V97.072H664.145V94H666.425V90.28H670.073V94H672.329V97.072Z" fill="white"/>
<path d="M891.047 54.24V72H887.231V62.928L883.703 72H880.031L876.575 63V72H872.879V54.24H876.575L881.879 67.488L887.231 54.24H891.047ZM901.347 72C901.315 71.856 901.283 71.704 901.251 71.544C901.235 71.368 901.211 71.184 901.179 70.992C900.859 71.376 900.419 71.696 899.859 71.952C899.299 72.192 898.635 72.312 897.867 72.312C897.227 72.312 896.635 72.216 896.091 72.024C895.563 71.848 895.107 71.592 894.723 71.256C894.339 70.92 894.043 70.512 893.835 70.032C893.627 69.536 893.523 68.976 893.523 68.352C893.523 67.152 893.907 66.232 894.675 65.592C895.443 64.936 896.507 64.608 897.867 64.608H901.083V64.224C901.083 63.664 900.899 63.248 900.531 62.976C900.163 62.704 899.667 62.568 899.043 62.568C897.859 62.568 896.995 63.08 896.451 64.104L893.787 62.592C894.859 60.608 896.683 59.616 899.259 59.616C900.843 59.616 902.139 60.024 903.147 60.84C904.171 61.624 904.683 62.968 904.683 64.872V69.144C904.683 69.816 904.707 70.416 904.755 70.944C904.803 71.456 904.859 71.808 904.923 72H901.347ZM901.107 67.056H898.779C898.283 67.056 897.907 67.168 897.651 67.392C897.411 67.616 897.291 67.92 897.291 68.304C897.291 69.152 897.843 69.576 898.947 69.576C899.475 69.576 899.963 69.424 900.411 69.12C900.875 68.8 901.107 68.176 901.107 67.248V67.056ZM906.942 72V53.904H910.662V64.104L914.526 60H919.158L913.878 65.592L918.75 72H914.214L911.43 68.16L910.662 69V72H906.942ZM931.217 67.224H922.481C922.577 67.896 922.873 68.392 923.369 68.712C923.881 69.016 924.473 69.168 925.145 69.168C926.345 69.168 927.193 68.688 927.689 67.728L930.761 68.928C930.345 69.984 929.633 70.816 928.625 71.424C927.617 72.016 926.465 72.312 925.169 72.312C924.273 72.312 923.449 72.16 922.697 71.856C921.945 71.552 921.297 71.12 920.753 70.56C920.209 70 919.785 69.336 919.481 68.568C919.177 67.784 919.025 66.92 919.025 65.976C919.025 65.016 919.177 64.152 919.481 63.384C919.785 62.6 920.201 61.928 920.729 61.368C921.273 60.808 921.921 60.376 922.673 60.072C923.441 59.768 924.281 59.616 925.193 59.616C926.105 59.616 926.929 59.768 927.665 60.072C928.401 60.376 929.033 60.808 929.561 61.368C930.089 61.928 930.497 62.6 930.785 63.384C931.073 64.168 931.217 65.04 931.217 66V67.224ZM927.449 64.704C927.385 64.016 927.145 63.504 926.729 63.168C926.329 62.832 925.793 62.664 925.121 62.664C924.449 62.664 923.889 62.84 923.441 63.192C923.009 63.528 922.721 64.032 922.577 64.704H927.449ZM866.556 94.168C866.556 95.048 866.42 95.856 866.148 96.592C865.876 97.328 865.476 97.96 864.948 98.488C864.436 99 863.804 99.4 863.052 99.688C862.3 99.976 861.444 100.12 860.484 100.12H857.196V106H853.308V88.24H857.196H860.532C861.476 88.24 862.316 88.376 863.052 88.648C863.804 88.92 864.436 89.32 864.948 89.848C865.46 90.36 865.852 90.984 866.124 91.72C866.412 92.44 866.556 93.256 866.556 94.168ZM862.452 94.096C862.452 93.456 862.236 92.896 861.804 92.416C861.372 91.92 860.692 91.672 859.764 91.672H857.196V96.76H859.764C860.692 96.76 861.372 96.512 861.804 96.016C862.236 95.504 862.452 94.864 862.452 94.096ZM875.285 106C875.253 105.856 875.221 105.704 875.189 105.544C875.173 105.368 875.149 105.184 875.117 104.992C874.797 105.376 874.357 105.696 873.797 105.952C873.237 106.192 872.573 106.312 871.805 106.312C871.165 106.312 870.573 106.216 870.029 106.024C869.501 105.848 869.045 105.592 868.661 105.256C868.277 104.92 867.981 104.512 867.773 104.032C867.565 103.536 867.461 102.976 867.461 102.352C867.461 101.152 867.845 100.232 868.613 99.592C869.381 98.936 870.445 98.608 871.805 98.608H875.021V98.224C875.021 97.664 874.837 97.248 874.469 96.976C874.101 96.704 873.605 96.568 872.98 96.568C871.797 96.568 870.933 97.08 870.389 98.104L867.725 96.592C868.797 94.608 870.621 93.616 873.197 93.616C874.781 93.616 876.077 94.024 877.085 94.84C878.109 95.624 878.621 96.968 878.621 98.872V103.144C878.621 103.816 878.645 104.416 878.693 104.944C878.741 105.456 878.797 105.808 878.861 106H875.285ZM875.045 101.056H872.717C872.221 101.056 871.845 101.168 871.589 101.392C871.349 101.616 871.229 101.92 871.229 102.304C871.229 103.152 871.781 103.576 872.885 103.576C873.413 103.576 873.901 103.424 874.349 103.12C874.813 102.8 875.045 102.176 875.045 101.248V101.056ZM893.014 94L887.134 108.88C886.302 111.04 884.878 112.12 882.862 112.12C882.398 112.12 881.926 112.064 881.446 111.952C880.966 111.856 880.422 111.72 879.814 111.544L880.822 108.184C881.43 108.536 881.99 108.712 882.502 108.712C883.302 108.712 883.846 108.312 884.134 107.512L884.446 106.672L879.31 94H883.222L886.198 101.92L889.126 94H893.014ZM913.578 98.488V106H909.978V99.064C909.978 98.328 909.802 97.776 909.45 97.408C909.098 97.024 908.618 96.832 908.01 96.832C907.402 96.832 906.898 97.032 906.498 97.432C906.098 97.816 905.898 98.488 905.898 99.448V106H902.25V99.064C902.25 98.344 902.074 97.8 901.722 97.432C901.386 97.048 900.914 96.856 900.306 96.856C899.698 96.856 899.186 97.056 898.77 97.456C898.37 97.856 898.17 98.52 898.17 99.448V106H894.45V94H897.906L898.026 94.96C898.698 94.048 899.794 93.592 901.314 93.592C902.226 93.592 903.01 93.768 903.666 94.12C904.338 94.472 904.866 95.008 905.25 95.728C905.554 95.056 906.026 94.536 906.666 94.168C907.322 93.784 908.114 93.592 909.042 93.592C910.434 93.592 911.538 94.024 912.354 94.888C913.17 95.736 913.578 96.936 913.578 98.488ZM927.701 101.224H918.965C919.061 101.896 919.357 102.392 919.853 102.712C920.365 103.016 920.957 103.168 921.629 103.168C922.829 103.168 923.677 102.688 924.173 101.728L927.245 102.928C926.829 103.984 926.117 104.816 925.109 105.424C924.101 106.016 922.949 106.312 921.653 106.312C920.757 106.312 919.933 106.16 919.181 105.856C918.429 105.552 917.781 105.12 917.237 104.56C916.693 104 916.269 103.336 915.965 102.568C915.661 101.784 915.509 100.92 915.509 99.976C915.509 99.016 915.661 98.152 915.965 97.384C916.269 96.6 916.685 95.928 917.213 95.368C917.757 94.808 918.405 94.376 919.157 94.072C919.925 93.768 920.765 93.616 921.677 93.616C922.589 93.616 923.413 93.768 924.149 94.072C924.885 94.376 925.517 94.808 926.045 95.368C926.573 95.928 926.981 96.6 927.269 97.384C927.557 98.168 927.701 99.04 927.701 100V101.224ZM923.933 98.704C923.869 98.016 923.629 97.504 923.213 97.168C922.813 96.832 922.277 96.664 921.605 96.664C920.933 96.664 920.373 96.84 919.925 97.192C919.493 97.528 919.205 98.032 919.061 98.704H923.933ZM941.534 98.584V106H937.838V99.472C937.838 98.448 937.614 97.784 937.166 97.48C936.718 97.144 936.238 96.976 935.726 96.976C935.15 96.976 934.606 97.136 934.094 97.456C933.582 97.776 933.326 98.432 933.326 99.424V106H929.63V94H933.158L933.254 94.984C933.59 94.568 934.046 94.24 934.622 94C935.214 93.744 935.854 93.616 936.542 93.616C938.19 93.616 939.43 94.056 940.262 94.936C941.11 95.816 941.534 97.032 941.534 98.584ZM951.153 97.072H948.897V106H945.249V97.072H942.969V94H945.249V90.28H948.897V94H951.153V97.072Z" fill="white"/>
<path d="M1152.86 72H1148.49L1145.87 65.736H1142.95V72H1139.06V54.24H1145.92C1148.19 54.256 1149.89 54.752 1151.01 55.728C1152.13 56.688 1152.69 58.112 1152.69 60C1152.69 61.216 1152.44 62.256 1151.95 63.12C1151.47 63.984 1150.75 64.64 1149.79 65.088L1152.86 72ZM1148.59 60C1148.59 59.312 1148.37 58.752 1147.94 58.32C1147.52 57.888 1146.85 57.672 1145.92 57.672H1142.95V62.376H1145.9C1146.83 62.376 1147.51 62.16 1147.94 61.728C1148.37 61.296 1148.59 60.72 1148.59 60ZM1166.13 67.224H1157.39C1157.49 67.896 1157.79 68.392 1158.28 68.712C1158.79 69.016 1159.39 69.168 1160.06 69.168C1161.26 69.168 1162.11 68.688 1162.6 67.728L1165.67 68.928C1165.26 69.984 1164.55 70.816 1163.54 71.424C1162.53 72.016 1161.38 72.312 1160.08 72.312C1159.19 72.312 1158.36 72.16 1157.61 71.856C1156.86 71.552 1156.21 71.12 1155.67 70.56C1155.12 70 1154.7 69.336 1154.39 68.568C1154.09 67.784 1153.94 66.92 1153.94 65.976C1153.94 65.016 1154.09 64.152 1154.39 63.384C1154.7 62.6 1155.11 61.928 1155.64 61.368C1156.19 60.808 1156.83 60.376 1157.59 60.072C1158.35 59.768 1159.19 59.616 1160.11 59.616C1161.02 59.616 1161.84 59.768 1162.58 60.072C1163.31 60.376 1163.95 60.808 1164.47 61.368C1165 61.928 1165.41 62.6 1165.7 63.384C1165.99 64.168 1166.13 65.04 1166.13 66V67.224ZM1162.36 64.704C1162.3 64.016 1162.06 63.504 1161.64 63.168C1161.24 62.832 1160.71 62.664 1160.03 62.664C1159.36 62.664 1158.8 62.84 1158.35 63.192C1157.92 63.528 1157.63 64.032 1157.49 64.704H1162.36ZM1173.84 59.616C1175.27 59.616 1176.49 59.976 1177.52 60.696C1178.54 61.384 1179.21 62.312 1179.53 63.48L1176.36 64.728C1176.2 64.2 1175.9 63.776 1175.45 63.456C1175.02 63.136 1174.52 62.976 1173.94 62.976C1173.11 62.976 1172.46 63.248 1172 63.792C1171.53 64.336 1171.3 65.072 1171.3 66C1171.3 66.928 1171.53 67.656 1172 68.184C1172.48 68.696 1173.12 68.952 1173.94 68.952C1174.53 68.952 1175.05 68.8 1175.5 68.496C1175.95 68.192 1176.25 67.784 1176.41 67.272L1179.53 68.424C1179.18 69.592 1178.48 70.536 1177.44 71.256C1176.4 71.96 1175.2 72.312 1173.84 72.312C1172.92 72.312 1172.06 72.16 1171.28 71.856C1170.51 71.552 1169.85 71.12 1169.31 70.56C1168.76 70 1168.34 69.336 1168.04 68.568C1167.73 67.784 1167.58 66.928 1167.58 66C1167.58 65.04 1167.73 64.168 1168.04 63.384C1168.34 62.6 1168.76 61.928 1169.31 61.368C1169.85 60.808 1170.51 60.376 1171.28 60.072C1172.06 59.768 1172.92 59.616 1173.84 59.616ZM1181.44 56.016C1181.44 55.424 1181.64 54.928 1182.04 54.528C1182.46 54.128 1182.96 53.928 1183.55 53.928C1184.13 53.928 1184.62 54.128 1185.02 54.528C1185.43 54.928 1185.64 55.424 1185.64 56.016C1185.64 56.608 1185.43 57.112 1185.02 57.528C1184.62 57.928 1184.13 58.128 1183.55 58.128C1182.96 58.128 1182.46 57.928 1182.04 57.528C1181.64 57.112 1181.44 56.608 1181.44 56.016ZM1185.4 60V72H1181.68V60H1185.4ZM1199.62 67.224H1190.89C1190.98 67.896 1191.28 68.392 1191.77 68.712C1192.29 69.016 1192.88 69.168 1193.55 69.168C1194.75 69.168 1195.6 68.688 1196.09 67.728L1199.17 68.928C1198.75 69.984 1198.04 70.816 1197.03 71.424C1196.02 72.016 1194.87 72.312 1193.57 72.312C1192.68 72.312 1191.85 72.16 1191.1 71.856C1190.35 71.552 1189.7 71.12 1189.16 70.56C1188.61 70 1188.19 69.336 1187.89 68.568C1187.58 67.784 1187.43 66.92 1187.43 65.976C1187.43 65.016 1187.58 64.152 1187.89 63.384C1188.19 62.6 1188.61 61.928 1189.13 61.368C1189.68 60.808 1190.33 60.376 1191.08 60.072C1191.85 59.768 1192.69 59.616 1193.6 59.616C1194.51 59.616 1195.33 59.768 1196.07 60.072C1196.81 60.376 1197.44 60.808 1197.97 61.368C1198.49 61.928 1198.9 62.6 1199.19 63.384C1199.48 64.168 1199.62 65.04 1199.62 66V67.224ZM1195.85 64.704C1195.79 64.016 1195.55 63.504 1195.13 63.168C1194.73 62.832 1194.2 62.664 1193.53 62.664C1192.85 62.664 1192.29 62.84 1191.85 63.192C1191.41 63.528 1191.13 64.032 1190.98 64.704H1195.85ZM1213.56 60L1208.54 72H1204.9L1200.19 60H1204.2L1206.84 67.56L1209.72 60H1213.56ZM1226.04 67.224H1217.3C1217.4 67.896 1217.69 68.392 1218.19 68.712C1218.7 69.016 1219.29 69.168 1219.97 69.168C1221.17 69.168 1222.01 68.688 1222.51 67.728L1225.58 68.928C1225.17 69.984 1224.45 70.816 1223.45 71.424C1222.44 72.016 1221.29 72.312 1219.99 72.312C1219.09 72.312 1218.27 72.16 1217.52 71.856C1216.77 71.552 1216.12 71.12 1215.57 70.56C1215.03 70 1214.61 69.336 1214.3 68.568C1214 67.784 1213.85 66.92 1213.85 65.976C1213.85 65.016 1214 64.152 1214.3 63.384C1214.61 62.6 1215.02 61.928 1215.55 61.368C1216.09 60.808 1216.74 60.376 1217.49 60.072C1218.26 59.768 1219.1 59.616 1220.01 59.616C1220.93 59.616 1221.75 59.768 1222.49 60.072C1223.22 60.376 1223.85 60.808 1224.38 61.368C1224.91 61.928 1225.32 62.6 1225.61 63.384C1225.89 64.168 1226.04 65.04 1226.04 66V67.224ZM1222.27 64.704C1222.21 64.016 1221.97 63.504 1221.55 63.168C1221.15 62.832 1220.61 62.664 1219.94 62.664C1219.27 62.664 1218.71 62.84 1218.26 63.192C1217.83 63.528 1217.54 64.032 1217.4 64.704H1222.27ZM1156.61 91.888V95.56H1162.87L1162.85 99.064H1156.61V106H1152.72V88.24H1156.61H1164.05L1164.03 91.888H1156.61ZM1172.13 93.832C1172.73 93.832 1173.22 93.888 1173.62 94V97.408C1173.03 97.28 1172.57 97.216 1172.23 97.216C1171.22 97.216 1170.45 97.528 1169.9 98.152C1169.36 98.76 1169.09 99.64 1169.09 100.792V106H1165.32V94.024H1168.77L1168.97 95.32C1169.22 94.824 1169.63 94.456 1170.19 94.216C1170.77 93.96 1171.41 93.832 1172.13 93.832ZM1186.52 101.224H1177.79C1177.88 101.896 1178.18 102.392 1178.67 102.712C1179.19 103.016 1179.78 103.168 1180.45 103.168C1181.65 103.168 1182.5 102.688 1182.99 101.728L1186.07 102.928C1185.65 103.984 1184.94 104.816 1183.93 105.424C1182.92 106.016 1181.77 106.312 1180.47 106.312C1179.58 106.312 1178.75 106.16 1178 105.856C1177.25 105.552 1176.6 105.12 1176.06 104.56C1175.51 104 1175.09 103.336 1174.79 102.568C1174.48 101.784 1174.33 100.92 1174.33 99.976C1174.33 99.016 1174.48 98.152 1174.79 97.384C1175.09 96.6 1175.51 95.928 1176.03 95.368C1176.58 94.808 1177.23 94.376 1177.98 94.072C1178.75 93.768 1179.59 93.616 1180.5 93.616C1181.41 93.616 1182.23 93.768 1182.97 94.072C1183.71 94.376 1184.34 94.808 1184.87 95.368C1185.39 95.928 1185.8 96.6 1186.09 97.384C1186.38 98.168 1186.52 99.04 1186.52 100V101.224ZM1182.75 98.704C1182.69 98.016 1182.45 97.504 1182.03 97.168C1181.63 96.832 1181.1 96.664 1180.43 96.664C1179.75 96.664 1179.19 96.84 1178.75 97.192C1178.31 97.528 1178.03 98.032 1177.88 98.704H1182.75ZM1193.01 103.408C1193.43 103.408 1193.75 103.328 1193.99 103.168C1194.23 103.008 1194.35 102.784 1194.35 102.496C1194.35 102.08 1194.05 101.792 1193.44 101.632L1191.93 101.224C1190.62 100.872 1189.69 100.392 1189.15 99.784C1188.6 99.176 1188.33 98.44 1188.33 97.576C1188.33 97 1188.43 96.472 1188.64 95.992C1188.87 95.496 1189.18 95.08 1189.58 94.744C1189.98 94.392 1190.47 94.12 1191.04 93.928C1191.63 93.72 1192.3 93.616 1193.03 93.616C1194.3 93.616 1195.35 93.904 1196.2 94.48C1197.07 95.04 1197.6 95.832 1197.81 96.856L1194.47 97.624C1194.44 97.288 1194.31 97.024 1194.07 96.832C1193.83 96.64 1193.52 96.544 1193.15 96.544C1192.8 96.544 1192.51 96.632 1192.29 96.808C1192.07 96.968 1191.95 97.2 1191.95 97.504C1191.95 97.728 1192.03 97.92 1192.19 98.08C1192.37 98.224 1192.67 98.352 1193.11 98.464L1194.57 98.848C1196.91 99.456 1198.07 100.68 1198.07 102.52C1198.07 103.672 1197.63 104.592 1196.75 105.28C1195.89 105.968 1194.66 106.312 1193.06 106.312C1191.52 106.312 1190.33 105.992 1189.48 105.352C1188.63 104.712 1188.13 103.856 1187.97 102.784L1191.38 102.208C1191.39 102.576 1191.55 102.872 1191.83 103.096C1192.12 103.304 1192.51 103.408 1193.01 103.408ZM1211.91 98.584V106H1208.21V99.472C1208.21 98.448 1207.99 97.784 1207.54 97.48C1207.09 97.144 1206.61 96.976 1206.1 96.976C1205.52 96.976 1204.98 97.136 1204.47 97.456C1203.96 97.776 1203.7 98.432 1203.7 99.424V106H1200V87.904H1203.72V94.864C1204.08 94.48 1204.53 94.176 1205.09 93.952C1205.67 93.728 1206.28 93.616 1206.92 93.616C1208.56 93.616 1209.8 94.056 1210.64 94.936C1211.48 95.816 1211.91 97.032 1211.91 98.584Z" fill="white"/>
</svg>
