<svg width="1259" height="360" viewBox="0 0 1259 360" fill="none" xmlns="http://www.w3.org/2000/svg">
<path d="M1171.5 234C1172.43 234 1173.32 234.369 1173.97 235.025C1174.63 235.682 1175 236.572 1175 237.5V251.5C1175 252.428 1174.63 253.318 1173.97 253.975C1173.32 254.631 1172.43 255 1171.5 255C1170.57 255 1169.68 254.631 1169.03 253.975C1168.37 253.318 1168 252.428 1168 251.5V237.5C1168 236.572 1168.37 235.682 1169.03 235.025C1169.68 234.369 1170.57 234 1171.5 234ZM1144.27 245.27C1144.6 244.944 1144.98 244.685 1145.41 244.509C1145.83 244.333 1146.29 244.242 1146.75 244.242C1147.21 244.242 1147.66 244.333 1148.09 244.509C1148.51 244.685 1148.9 244.944 1149.23 245.27L1159.12 255.175C1159.46 255.498 1159.72 255.884 1159.91 256.311C1160.09 256.738 1160.19 257.197 1160.19 257.662C1160.2 258.127 1160.11 258.588 1159.93 259.018C1159.76 259.448 1159.5 259.839 1159.17 260.167C1158.84 260.496 1158.45 260.756 1158.02 260.932C1157.59 261.108 1157.13 261.196 1156.66 261.192C1156.2 261.188 1155.74 261.092 1155.31 260.908C1154.88 260.725 1154.5 260.458 1154.18 260.124L1144.28 250.226C1143.62 249.57 1143.25 248.68 1143.25 247.752C1143.25 246.823 1143.62 245.933 1144.28 245.277L1144.27 245.27ZM1198.73 245.27C1199.06 245.595 1199.31 245.981 1199.49 246.407C1199.67 246.832 1199.76 247.288 1199.76 247.748C1199.76 248.208 1199.67 248.664 1199.49 249.089C1199.31 249.515 1199.06 249.901 1198.73 250.226L1188.82 260.124C1188.5 260.458 1188.11 260.725 1187.68 260.908C1187.25 261.092 1186.8 261.188 1186.33 261.192C1185.87 261.196 1185.41 261.108 1184.98 260.932C1184.55 260.756 1184.15 260.496 1183.83 260.167C1183.5 259.839 1183.24 259.448 1183.06 259.018C1182.89 258.588 1182.8 258.127 1182.8 257.662C1182.8 257.197 1182.9 256.738 1183.08 256.311C1183.27 255.884 1183.53 255.498 1183.87 255.175L1193.77 245.277C1194.42 244.621 1195.31 244.252 1196.24 244.252C1197.17 244.252 1198.06 244.621 1198.72 245.277L1198.73 245.27ZM1133 272.5C1133 271.572 1133.37 270.682 1134.03 270.025C1134.68 269.369 1135.57 269 1136.5 269H1150.5C1151.43 269 1152.32 269.369 1152.97 270.025C1153.63 270.682 1154 271.572 1154 272.5C1154 273.428 1153.63 274.318 1152.97 274.975C1152.32 275.631 1151.43 276 1150.5 276H1136.5C1135.57 276 1134.68 275.631 1134.03 274.975C1133.37 274.318 1133 273.428 1133 272.5ZM1171.5 276.224V341.044C1171.5 341.737 1171.7 342.415 1172.09 342.992C1172.47 343.569 1173.02 344.018 1173.66 344.283C1174.3 344.549 1175 344.618 1175.68 344.483C1176.36 344.347 1176.99 344.013 1177.48 343.522L1195.4 325.602C1198.02 322.976 1201.58 321.501 1205.3 321.5H1227.92C1228.65 321.499 1229.35 321.273 1229.95 320.852C1230.54 320.43 1230.98 319.835 1231.22 319.149C1231.46 318.463 1231.48 317.719 1231.28 317.022C1231.07 316.324 1230.66 315.707 1230.09 315.256L1177.17 273.473C1176.65 273.065 1176.03 272.811 1175.38 272.74C1174.72 272.668 1174.06 272.783 1173.47 273.07C1172.88 273.357 1172.38 273.806 1172.03 274.363C1171.68 274.921 1171.5 275.566 1171.5 276.224Z" fill="#F2994A"/>
<g clip-path="url(#clip0)">
<path d="M135.896 52.9246C136.332 53.7441 136.424 54.7032 136.153 55.591C135.882 56.4787 135.269 57.2224 134.45 57.6583L122.09 64.2337C121.27 64.6696 120.311 64.7622 119.423 64.491C118.536 64.2198 117.792 63.6071 117.356 62.7875C116.92 61.968 116.828 61.0089 117.099 60.1212C117.37 59.2334 117.983 58.4897 118.802 58.0538L131.162 51.4784C131.982 51.0425 132.941 50.9499 133.828 51.2211C134.716 51.4923 135.46 52.105 135.896 52.9246ZM113.157 34.1778C113.598 34.3118 114.007 34.5313 114.363 34.8238C114.718 35.1164 115.013 35.4762 115.229 35.8826C115.445 36.289 115.579 36.7341 115.623 37.1924C115.667 37.6507 115.62 38.1131 115.485 38.5532L111.389 51.9437C111.261 52.3904 111.045 52.8072 110.754 53.1697C110.464 53.5322 110.103 53.8331 109.695 54.055C109.287 54.2768 108.838 54.4151 108.376 54.4617C107.913 54.5084 107.446 54.4625 107.002 54.3267C106.557 54.1909 106.144 53.968 105.787 53.6709C105.43 53.3738 105.135 53.0085 104.92 52.5963C104.706 52.1842 104.575 51.7334 104.537 51.2702C104.498 50.8071 104.552 50.3409 104.695 49.8988L108.785 36.5117C109.056 35.6242 109.669 34.8807 110.488 34.4448C111.308 34.0089 112.267 33.9163 113.154 34.1873L113.157 34.1778ZM138.735 82.2575C138.601 82.698 138.382 83.1077 138.089 83.4632C137.797 83.8187 137.437 84.1129 137.03 84.3292C136.624 84.5454 136.179 84.6793 135.721 84.7232C135.262 84.7672 134.8 84.7203 134.36 84.5852L120.966 80.4832C120.519 80.3552 120.103 80.1394 119.74 79.8486C119.378 79.5578 119.077 79.1977 118.855 78.7893C118.633 78.3809 118.495 77.9324 118.448 77.47C118.401 77.0076 118.447 76.5406 118.583 76.0961C118.719 75.6516 118.942 75.2387 119.239 74.8813C119.536 74.5239 119.901 74.2292 120.313 74.0145C120.726 73.7998 121.176 73.6694 121.64 73.6308C122.103 73.5921 122.569 73.6462 123.011 73.7896L136.398 77.8793C137.286 78.1506 138.029 78.7632 138.465 79.5826C138.901 80.4019 138.993 81.3608 138.722 82.2485L138.735 82.2575ZM83.8242 37.0172C84.6437 36.5812 85.6028 36.4887 86.4906 36.7599C87.3783 37.0311 88.122 37.6438 88.5579 38.4633L95.1333 50.8231C95.5692 51.6427 95.6618 52.6018 95.3906 53.4895C95.1194 54.3773 94.5067 55.121 93.6871 55.5569C92.8676 55.9929 91.9085 56.0855 91.0208 55.8143C90.133 55.5431 89.3893 54.9303 88.9534 54.1108L82.378 41.751C81.9421 40.9315 81.8495 39.9724 82.1207 39.0846C82.3919 38.1968 83.0047 37.4532 83.8242 37.0172ZM98.6186 72.7557L41.3926 103.2C40.7801 103.524 40.2777 104.023 39.9492 104.633C39.6206 105.244 39.4806 105.938 39.547 106.628C39.6135 107.318 39.8832 107.972 40.3222 108.509C40.7611 109.045 41.3495 109.439 42.0126 109.641L66.2496 117.045C69.8005 118.129 72.7753 120.58 74.5198 123.857L85.1455 143.83C85.4872 144.472 86.02 144.99 86.6699 145.315C87.3198 145.64 88.0547 145.754 88.7726 145.643C89.4905 145.531 90.1558 145.198 90.6763 144.692C91.1967 144.185 91.5465 143.528 91.6772 142.814L103.71 76.4694C103.828 75.8221 103.761 75.1547 103.517 74.5439C103.272 73.933 102.861 73.4033 102.329 73.0156C101.798 72.6279 101.168 72.3979 100.511 72.3519C99.855 72.306 99.199 72.4459 98.6186 72.7557Z" fill="#F2994A"/>
</g>
<defs>
<clipPath id="clip0">
<rect width="140" height="140" fill="white" transform="translate(123.598) rotate(61.9874)"/>
</clipPath>
</defs>
</svg>
